<?xml version="1.0" encoding="UTF-8"?>
<svg id="Layer_1" xmlns="http://www.w3.org/2000/svg" version="1.1" viewBox="0 0 200 200">
  <!-- Generator: Adobe Illustrator 29.1.0, SVG Export Plug-In . SVG Version: 2.1.0 Build 142)  -->
  <defs>
    <style>
      .st0 {
        fill: #ddd;
      }

      .st1 {
        fill: #4b5a6b;
      }
    </style>
  </defs>
  <circle class="st0" cx="100" cy="100" r="93.1"/>
  <path class="st1" d="M131,85.8c0,3.1-.4,6.1-1.4,9.1-3.9,12.7-29.2,50.2-29.2,50.2,0,0-26.2-37.6-30-50.3-4.9-16.4,4.2-33.7,20.6-38.6,16.4-4.9,33.7,4.2,38.6,20.6.9,2.9,1.4,5.9,1.4,9ZM109.9,86c0-5.6-4.5-10-10-10h0c-5.6,0-10,4.5-10,10s4.5,10,10,10,10-4.5,10-10h0Z"/>
</svg>