<?xml version="1.0" encoding="UTF-8"?>
<svg id="Layer_1" xmlns="http://www.w3.org/2000/svg" version="1.1" viewBox="0 0 200 200">
  <!-- Generator: Adobe Illustrator 29.2.0, SVG Export Plug-In . SVG Version: 2.1.0 Build 108)  -->
  <defs>
    <style>
      .st0 {
        fill: #333;
      }

      .st1 {
        fill: #ff0019;
      }

      .st2 {
        fill: #333;
      }

      .st3 {
        stroke: #ff0019;
        stroke-miterlimit: 10;
        stroke-width: .6px;
      }

      .st3, .st4 {
        fill: none;
      }

      .st4 {
        stroke: #333;
        stroke-linecap: round;
        stroke-linejoin: round;
        stroke-width: 3px;
      }

      .st5 {
        fill: #f4f4f4;
      }
    </style>
  </defs>
  <path class="st5" d="M17.3,33.5l.4,129.8h52.3s16.2.2,27.7,16.3V57.4s.5-22.2-25.9-24.6l-54.5.7Z"/>
  <g>
    <g>
      <g>
        <path class="st1" d="M16.9,142.6H7.2V22.2h50.6c.2,0,18.6-.7,26.3,13.5l-.5.3c-7.5-13.9-25.6-13.2-25.8-13.2H7.8v119.2h9.1v.6Z"/>
        <path class="st1" d="M98.3,181.1l-.5-.8c-.1-.2-10.2-15.3-29.1-16.4H17s0-131.3,0-131.3h50.6c.2,0,18.6-.7,26.3,13.4,0,0,5.6,8.3,4.5,25.1v110.1ZM17.6,163.3h51.2c16.7,1,26.7,12.9,29,16v-108.2c1.2-16.6-4.3-24.7-4.4-24.7-7.5-13.8-25.6-13.1-25.8-13.1H17.6v130.2Z"/>
        <path class="st1" d="M97.8,169.5c-9.7-16.8-25.9-17.2-26.1-17.2H17.4v-.6h54.3c.2,0,16.7.3,26.6,17.4l-.5.3Z"/>
        <rect class="st1" x="38" y="59.2" width="34.6" height=".6"/>
        <rect class="st1" x="38" y="80.7" width="34.6" height=".6"/>
        <rect class="st1" x="38" y="102.7" width="34.6" height=".6"/>
        <rect class="st1" x="38" y="124.2" width="34.6" height=".6"/>
      </g>
      <g>
        <path class="st1" d="M189,58.6h-.6V22.8h-50c-.2,0-18.3-.7-25.8,13.2l-.5-.3c7.7-14.2,26.1-13.5,26.3-13.5h50.6s0,36.4,0,36.4Z"/>
        <path class="st3" d="M178.4,142.3"/>
        <path class="st1" d="M97.9,181.1v-110.1c-1.2-16.7,4.4-25,4.5-25.1,7.7-14.1,26.1-13.4,26.3-13.4h50.6s0,20.7,0,20.7h-.6v-20.1h-50c-.2,0-18.3-.7-25.8,13.1,0,.1-5.6,8.2-4.4,24.8v108.3c2.3-3.1,12.3-14.9,29-16h51.2v-32.8h.6v33.4h-51.8c-18.8,1.2-28.9,16.3-29,16.4l-.5.8Z"/>
        <path class="st1" d="M98.5,169.5l-.5-.3c9.9-17.1,26.4-17.4,26.6-17.4h54.3v.6h-54.3c-.2,0-16.4.4-26.1,17.2Z"/>
      </g>
      <rect class="st1" x="191.9" y="132.4" width=".6" height="13.8"/>
    </g>
    <g>
      <g>
        <path class="st4" d="M16.9,142.6H7.2V22.2h50.6c.2,0,18.6-.7,26.3,13.5l-.5.3c-7.5-13.9-25.6-13.2-25.8-13.2H7.8v119.2h9.1v.6Z"/>
        <path class="st4" d="M98.3,181.1l-.5-.8c-.1-.2-10.2-15.3-29.1-16.4H17s0-131.3,0-131.3h50.6c.2,0,18.6-.7,26.3,13.4,0,0,5.6,8.3,4.5,25.1v110.1ZM17.6,163.3h51.2c16.7,1,26.7,12.9,29,16v-108.2c1.2-16.6-4.3-24.7-4.4-24.7-7.5-13.8-25.6-13.1-25.8-13.1H17.6v130.2Z"/>
        <path class="st4" d="M97.8,169.5c-9.7-16.8-25.9-17.2-26.1-17.2H17.4v-.6h54.3c.2,0,16.7.3,26.6,17.4l-.5.3Z"/>
        <rect class="st4" x="38" y="59.2" width="34.6" height=".6"/>
        <rect class="st4" x="38" y="80.7" width="34.6" height=".6"/>
        <rect class="st4" x="38" y="102.7" width="34.6" height=".6"/>
        <rect class="st4" x="38" y="124.2" width="34.6" height=".6"/>
      </g>
      <g>
        <path class="st4" d="M189,58.6h-.6V22.8h-50c-.2,0-18.3-.7-25.8,13.2l-.5-.3c7.7-14.2,26.1-13.5,26.3-13.5h50.6s0,36.4,0,36.4Z"/>
        <path class="st4" d="M178.4,142.3"/>
        <path class="st4" d="M97.9,181.1v-110.1c-1.2-16.7,4.4-25,4.5-25.1,7.7-14.1,26.1-13.4,26.3-13.4h50.6s0,20.7,0,20.7h-.6v-20.1h-50c-.2,0-18.3-.7-25.8,13.1,0,.1-5.6,8.2-4.4,24.8v108.3c2.3-3.1,12.3-14.9,29-16h51.2v-32.8h.6v33.4h-51.8c-18.8,1.2-28.9,16.3-29,16.4l-.5.8Z"/>
        <path class="st4" d="M98.5,169.5l-.5-.3c9.9-17.1,26.4-17.4,26.6-17.4h54.3v.6h-54.3c-.2,0-16.4.4-26.1,17.2Z"/>
      </g>
      <rect class="st4" x="191.9" y="132.4" width=".6" height="13.8"/>
    </g>
  </g>
  <path class="st0" d="M157.6,76.9c.2.1,2.5-1,3.1-1.1,4.4-.7,7.2,4.8,3.8,7.9s-8.4,4-8.5,4.5,0,.5,0,.8c1.6,0,3.6,1.2,4.2,2.7s1.5,6.3,1.5,7.4c0,3.8-4.2,6-7.2,3.7-1.7-1.2-1.8-3.1-2.1-5l-3.2-.5-10,7.1c-2.3,1.1-5.7-.4-6.2-2.9-.9-5,3.7-5.1,6-8.4,0-.5,0-.3-.3-.4-1.4-.4-2.1-.2-3.3-1.3-1.8-1.7-1.9-4.1-.5-6s5.7-6,6.7-6.6c1.8-1.1,3-.7,4.9-.3-2.2-5.3,2.9-10.6,8.2-8s4,4.1,3.2,6.6ZM151.1,72.1c-5.4.9-2.4,9.9,2.8,6.4,3.3-2.3.9-7-2.8-6.4ZM154.2,95.4c1,1.5.1,5,2.2,5.6s2.1-.1,2.5-.9-.5-6.5-1-7.6c-.7-1.6-2.5-1-3.7-2.1s-1.1-2.4-.4-3.6c1-1.8,7.2-3.7,9.1-5.1,1.5-1.6.3-4.1-1.9-3.6s-6.4,3.4-9.5,4c-2,0-6.4-2.2-8.1-1.8s-.7.3-1,.5c-.8.6-4.9,4.7-5.5,5.5-1.9,2.6.8,4.7,3.4,2.6s3.2-3.5,3.8-3.7c1-.3,1.9.3,1.6,1.4s-1.9,3.5-2.3,4.2c-.9,1.3-2.8,3.9-3.9,5-1.5,1.6-4.8,2.2-4.2,4.9s1.8,1.7,2.8,1.2l10.1-7.2,6,.7Z"/>
  <path class="st0" d="M178.7,63.9c.3,0,.5,0,.7.1,1.2.6,2.3,5.2,3.3,6.1s7.1.4,7.6,2.1-4.3,4.6-5,5.8c0,1.5,1.5,6.2.8,7.3s-.6.4-.8.4c-1.1.2-5-2.8-6.4-3.1-1.1,0-4.6,2.6-5.9,3-3.3.9-.3-6.2-.8-7.9s-4.4-3.6-4.7-4.7-.1-1.3.4-1.6c1.3-.7,6.2-.6,7-1.2.9-1.2,2.3-6.1,3.8-6.3ZM186.3,73.3l-5-.9-2.2-4.4-2.8,4.5-4.9.8,3.6,3.8-.7,5.1,4.5-2.2,4.9,2.2c-.2-1.6-1.1-3.8-.6-5.3s3.7-3.2,3.3-3.6Z"/>
  <path class="st0" d="M130.4,83.6c1.4-.3,2.1,1.1,1.2,2.1l-10.9,7.2c-1.7.9-2.9-1.1-1.2-2.1l10.9-7.2Z"/>
  <path class="st0" d="M130.4,89.6c1.4-.3,2.1,1.1,1.2,2.1l-7.7,5.1c-1.4.7-2.6-.8-1.5-2l8-5.2Z"/>
  <path class="st0" d="M124.5,99.5c1-1.2,4.4-2.6,5.7-3.8.5-.2,1.5,0,1.7.5.1.5.1,1-.2,1.4s-5.2,3.6-5.7,3.7c-1.4.5-2.3-.9-1.5-1.9Z"/>
  <g>
    <rect class="st5" x="126" y="110.9" width="14.1" height="13.5"/>
    <path class="st2" d="M141.8,126.1h-17.4v-16.8h17.4v16.8ZM127.7,122.8h10.8v-10.2h-10.8v10.2Z"/>
  </g>
  <g>
    <rect class="st5" x="149.4" y="106.2" width="12.4" height="18.2"/>
    <path class="st2" d="M163.4,126.1h-15.7v-21.5h15.7v21.5ZM151,122.8h9.1v-14.9h-9.1v14.9Z"/>
  </g>
  <g>
    <rect class="st5" x="172.6" y="96.9" width="12.9" height="27.5"/>
    <path class="st2" d="M187.1,126.1h-16.2v-30.8h16.2v30.8ZM174.2,122.8h9.6v-24.2h-9.6v24.2Z"/>
  </g>
</svg>