<?xml version="1.0" encoding="UTF-8"?>
<svg id="Layer_1" xmlns="http://www.w3.org/2000/svg" version="1.1" viewBox="0 0 200 200">
  <!-- Generator: Adobe Illustrator 29.2.0, SVG Export Plug-In . SVG Version: 2.1.0 Build 108)  -->
  <defs>
    <style>
      .st0 {
        fill: #333;
      }

      .st1 {
        fill: #f4f4f4;
      }
    </style>
  </defs>
  <path class="st1" d="M98.1,40.4s-58.2,4.6-50.2,65.2c0,0,4.3,18.6,19,30,0,0,12.7,13.3,11.3,22.6h43.6s3.9-18.8,14.8-24.9c0,0,34.6-31.8,5.3-73.9,0,0-16.5-21.4-43.7-19.1Z"/>
  <g>
    <path class="st0" d="M78.7,158.3c0,0,.1,0,.2,0,.8,0,1.3-.8,1.2-1.5-1.6-14.2-13.7-23.2-14.2-23.6-11.3-9.9-17.9-24.2-17.9-39.3,0-28.8,23.4-52.2,52.2-52.2,28.8,0,52.2,23.4,52.2,52.2s-6.2,28.7-17.1,38.6c-1.2.8-12.4,9.1-14,24.8,0,.8.5.5,1.3.5.8,0,1.5.5,1.5-.3,1.4-14.9,12.7-22.7,12.8-22.8,0,0,.1,0,.2-.1,11.5-10.4,18-25.3,18-40.7,0-30.3-24.7-55-55-55-30.3,0-55,24.7-55,55,0,15.9,6.9,31,18.9,41.5.2.1,11.8,8.7,13.2,21.8,0,.7.7,1.2,1.4,1.2Z"/>
    <path class="st0" d="M119.9,62.8c.5,0,1-.3,1.2-.7.4-.7.2-1.5-.5-1.9-3.4-1.9-7-3.5-10.7-4.7-.7-.2-1.5.2-1.8.9-.2.7.2,1.5.9,1.8,3.5,1.1,6.9,2.6,10.2,4.4.2.1.5.2.7.2Z"/>
    <path class="st0" d="M138.4,84.7c.2,0,.4,0,.6-.1.7-.3,1-1.2.7-1.9-3-6.6-8.2-13.5-14.2-18.8-.6-.5-1.5-.5-2,.1-.5.6-.5,1.5.1,2,5.7,5.1,10.6,11.6,13.5,17.9.2.5.7.8,1.3.8Z"/>
    <path class="st0" d="M64.3,164.6c0-4.7,3.8-8.5,8.5-8.5h55.3c4.7,0,8.5,3.8,8.5,8.5s-3.8,8.5-8.5,8.5h-55.3c-4.7,0-8.5-3.8-8.5-8.5ZM72.8,158.9c-3.1,0-5.7,2.5-5.7,5.7s2.5,5.7,5.7,5.7h55.3c3.1,0,5.7-2.6,5.7-5.7s-2.6-5.7-5.7-5.7h-55.3Z"/>
    <path class="st0" d="M100.1,193.6c11.8,0,21.5-9.4,21.5-20.9,0-.8-.6-1.4-1.4-1.4s-1.4.6-1.4,1.4c0,10-8.4,18.2-18.7,18.2s-18.7-8.1-18.7-18.2-.6-1.4-1.4-1.4-1.4.6-1.4,1.4c0,11.5,9.6,20.9,21.5,20.9Z"/>
    <path class="st0" d="M90.5,157.3v-38.4s-7.3,0-7.3,0c-5.6,0-10.1-4.8-10.1-10.7s4.5-10.7,10.1-10.7,10.1,4.8,10.1,10.7v7.9s11.8,0,11.8,0v-7.9c0-5.9,4.8-10.7,10.7-10.7s10.7,4.8,10.7,10.7c0,5.9-4.8,10.7-10.7,10.7h-7.9s0,38.4,0,38.4c0,.8-.6,1.4-1.4,1.4s-1.4-.6-1.4-1.4v-38.4s-11.8,0-11.8,0v38.4c0,.8-.6,1.4-1.4,1.4s-1.4-.6-1.4-1.4ZM90.5,108.2c0-4.3-3.3-7.9-7.3-7.9s-7.3,3.5-7.3,7.9,3.3,7.9,7.3,7.9h7.3s0-7.9,0-7.9ZM108,108.2v7.9s7.9,0,7.9,0c4.3,0,7.9-3.5,7.9-7.9s-3.5-7.9-7.9-7.9-7.9,3.5-7.9,7.9Z"/>
    <g>
      <path class="st0" d="M99.7,25.5h0c.8,0,1.4-.6,1.4-1.4V7.9c0-.8-.7-1.4-1.5-1.4h0c-.8,0-1.4.6-1.4,1.4v16.2c0,.8.7,1.4,1.5,1.4Z"/>
      <path class="st0" d="M148.7,45.7c.4,0,.7,0,1-.3l12.7-10.9c.6-.5.7-1.4.1-2-.5-.6-1.4-.7-2-.1l-12.7,10.9c-.6.5-.7,1.4-.1,2,.2.3.6.4.9.5Z"/>
      <path class="st0" d="M38.2,155.7c.4,0,.7-.1,1-.4l12-11.7c.6-.5.6-1.4,0-2-.5-.6-1.4-.6-2,0l-12,11.7c-.6.5-.6,1.4,0,2,.3.3.6.4,1,.4Z"/>
      <path class="st0" d="M12.7,94.4c.3.3.6.4,1,.4l16.7-.2c.8,0,1.4-.6,1.4-1.4,0-.8-.6-1.4-1.4-1.4l-16.7.2c-.8,0-1.4.6-1.4,1.4,0,.4.2.7.4,1Z"/>
      <path class="st0" d="M168.1,94.4c.3.3.6.4,1,.4l16.7-.2c.8,0,1.4-.6,1.4-1.4,0-.8-.6-1.4-1.4-1.4l-16.7.2c-.8,0-1.4.6-1.4,1.4,0,.4.2.7.4,1Z"/>
      <path class="st0" d="M147.6,142.6c0,.4.1.7.4,1l12,11.7c.6.5,1.4.5,2,0,.5-.6.5-1.4,0-2l-12-11.7c-.6-.5-1.4-.5-2,0-.3.3-.4.6-.4,1Z"/>
      <path class="st0" d="M37.1,32.5c0,.4.1.7.4,1l12,11.7c.6.5,1.4.5,2,0,.5-.6.5-1.4,0-2l-12-11.7c-.6-.5-1.4-.5-2,0-.3.3-.4.6-.4,1Z"/>
    </g>
  </g>
</svg>