<?xml version="1.0" encoding="UTF-8"?>
<svg id="Layer_1" xmlns="http://www.w3.org/2000/svg" version="1.1" viewBox="0 0 200 200">
  <!-- Generator: Adobe Illustrator 29.2.0, SVG Export Plug-In . SVG Version: 2.1.0 Build 108)  -->
  <defs>
    <style>
      .st0 {
        fill: #f4f4f4;
      }

      .st0, .st1 {
        stroke: #333;
        stroke-linecap: round;
        stroke-linejoin: round;
        stroke-width: 2.8px;
      }

      .st1 {
        fill: none;
      }
    </style>
  </defs>
  <path class="st1" d="M92.9,53.1S116.3,15.5,54.4,15.5c0,0-5.2,49.6,38.5,37.6Z"/>
  <path class="st1" d="M112.9,91.9s-16.9-38.1,34-36.5c0,0,3.2,50.7-34,36.5Z"/>
  <path class="st1" d="M70,33.1s45.4,15.8,33.4,98.3c0,0,.3-45.7,29.9-61"/>
  <path class="st0" d="M75.3,156.7c7.8-2.8,13.2-3.3,17.6-3.1,8.9.4,26.8-.1,35.7,0,8.9.1,12.7-7.1,12.4-11.4-.5-7.5-7.5-10.4-11.6-10.1s-16.9-.4-22.5,0c-9.8.8-18.3-1.1-23.5-4.1-12.9-7.5-19.9-10.4-26.8-13-26.2-10-45.2,15.1-45.2,15.1v28.3s31,2.2,45.8,11.6l27.4,12.1s19.6,7.1,38.1-3.6l17-7s15-3.2,22-12.1l26.7-58s-6.1-3.9-17.9,5.3l-29.1,34.6"/>
</svg>