<?xml version="1.0" encoding="UTF-8"?>
<svg id="Layer_1" xmlns="http://www.w3.org/2000/svg" version="1.1" viewBox="0 0 200 200">
  <!-- Generator: Adobe Illustrator 29.1.0, SVG Export Plug-In . SVG Version: 2.1.0 Build 142)  -->
  <path d="M96.7,139.2c-1,.9-1.7,1.6-2.5,2.4-15.8,15.8-31.5,31.5-47.3,47.3-3.5,3.5-4.8,3.6-8.3,0-9.2-9.2-18.5-18.5-27.7-27.7-3.4-3.4-3.4-4.7,0-8,15.8-15.8,31.5-31.5,47.3-47.3.7-.7,1.6-1.3,2.7-2.2-1-1.1-1.7-1.8-2.4-2.5-13.7-13.7-27.4-27.4-41-41.1-7.9-7.9-7.9-16.3,0-24.2,3.2-3.2,6.3-6.3,9.5-9.5,7.4-7.4,15.3-7.4,22.8,0,13,12.9,25.9,25.9,38.8,38.8,1.7,1.7,3.2,3.5,5.3,5.7,1-1.3,1.5-2.3,2.2-3,18.9-19,37.9-37.9,56.8-56.8,3.7-3.7,4.8-3.7,8.5,0,9,9,18.1,18.1,27.1,27.1,3.9,3.9,4,5,0,8.9-18.9,18.9-37.7,37.7-56.6,56.6-.7.7-1.6,1.3-3.4,2.8,1.4.8,2.5,1.2,3.2,1.9,10.2,10.1,20.4,20.3,30.5,30.5,1.4,1.4,2.5,3.2,3.2,5,4.7,12.9,9.3,25.8,13.9,38.7.7,1.9,1.5,3.9-.2,5.6-1.7,1.7-3.7,1-5.6.4-13.1-4.6-26.3-9.1-39.4-13.7-1.7-.6-3.4-1.7-4.7-3-10.9-10.8-21.7-21.7-32.8-32.8ZM157.3,18.1c-19.2,19.2-38.4,38.4-57.5,57.5,8.2,8.1,16.5,16.5,24.5,24.5,1.9-1.7,4-3.5,6.4-5.6-1.2-1-2.2-1.9-3.2-2.8-3-2.9-6-5.9-8.9-8.9-1.5-1.6-1.6-3.5,0-5.1,1.6-1.6,3.4-1.5,5.1,0,.8.7,1.5,1.4,2.3,2.2,3.2,3.2,6.4,6.4,9.6,9.6,2.7-2.7,5.2-5.2,8-7.9-1.8-1.6-3.5-3.2-5.2-4.9-1.6-1.6-2-3.5-.4-5.4,1.4-1.6,3.7-1.6,5.5.2,1.7,1.7,3.2,3.5,4.5,5.1,3-2.9,5.6-5.4,8.3-8-3.4-3.3-6.8-6.7-10.1-10-3-3-3.5-4.9-1.8-6.8,1.8-2,3.9-1.5,7,1.6,3.4,3.4,6.8,6.8,9.8,9.8,2.8-2.7,5.3-5.2,8.2-7.9-1.6-1.4-3.3-2.9-4.9-4.5-1.7-1.7-2.2-3.6-.4-5.5,1.5-1.6,3.6-1.5,5.5.3,1.7,1.6,3.3,3.4,4.9,5,2.8-2.8,5.3-5.2,7.6-7.5-8.3-8.3-16.7-16.7-24.8-24.8ZM90.7,133.9c-8.1-8.1-16.4-16.5-24.6-24.6-16,16-32.1,32.1-48,48.1,8.1,8.1,16.4,16.4,24.6,24.6,3-3,6.1-6.2,9.7-9.8-.9-.7-2.1-1.5-3.1-2.4-3-2.9-6-5.9-8.9-8.9-1.5-1.6-1.6-3.5,0-5.1,1.6-1.6,3.4-1.4,5.1,0,.7.6,1.4,1.3,2,2,3.2,3.3,6.5,6.7,9.9,10.3,2.3-2.4,4.3-4.5,6.3-6.5.5-.5.9-1,1.8-2-1.6-1.4-3.3-2.7-4.8-4.2-2.4-2.4-2.7-4.4-.9-6.2,1.7-1.6,3.7-1.4,6,.9,1.5,1.5,2.9,3.1,4,4.3,3-2.8,5.6-5.2,8.5-7.9-1.1-.9-2.2-1.7-3.1-2.6-2.9-2.9-5.8-5.8-8.7-8.7-1.6-1.6-1.9-3.5-.3-5.4,1.4-1.6,3.6-1.5,5.6.2.6.6,1.2,1.2,1.8,1.8,3.2,3.2,6.4,6.5,9.6,9.7,2.5-2.6,4.9-5.1,7.2-7.6ZM155.4,143.4c-31.9-31.9-63.8-63.8-95.4-95.5-2.6,2.5-5.5,5.2-7.9,7.5,31.9,31.9,63.8,63.8,95.6,95.6,2.5-2.5,5.2-5.2,7.7-7.7ZM141.5,157.5c-32-32-63.9-63.9-95.5-95.5-2.5,2.5-5.3,5.1-7.7,7.5,31.8,31.8,63.7,63.7,95.6,95.6,2.5-2.4,5.1-5.1,7.6-7.6ZM54.4,41.7c-3.6-3.7-7.2-7.6-11.1-11.2-2.9-2.7-6.6-2.9-9.3-.4-4.4,4.2-8.7,8.5-12.9,12.9-2.7,2.8-2.8,7.2-.2,9.9,3.6,3.9,7.6,7.4,11.2,11,7.3-7.3,14.7-14.7,22.2-22.2ZM140.8,169.5c9.7,3.3,19.5,6.7,29.7,10.3-3.7-10.3-7.2-19.9-10.6-29.4-6.4,6.4-12.7,12.6-19.2,19.1Z"/>
</svg>