<?xml version="1.0" encoding="UTF-8"?>
<svg id="Layer_1" xmlns="http://www.w3.org/2000/svg" version="1.1" viewBox="0 0 200 200">
  <!-- Generator: Adobe Illustrator 29.2.0, SVG Export Plug-In . SVG Version: 2.1.0 Build 108)  -->
  <defs>
    <style>
      .st0, .st1 {
        fill: #333;
      }

      .st1 {
        stroke-miterlimit: 10;
      }

      .st1, .st2 {
        stroke: #333;
      }

      .st3 {
        fill: #f4f4f4;
      }

      .st2 {
        fill: none;
        stroke-linecap: round;
        stroke-linejoin: round;
        stroke-width: 2.8px;
      }
    </style>
  </defs>
  <path class="st1" d="M146.2,145.4c2.5,7.4-4.2,14.2-11.6,11.9,1.6,6.9-3,12.9-10.3,12.1-1.6-.2-2.9-1.1-4.3-1.7,1.4,7.7-7.1,13.4-13.8,9.2s-3.9-3.3-4.3-3.3c-1,.7-1.7,1.8-2.6,2.5-6.9,5.3-15.9-.1-15.1-8.5-1,.4-1.8,1.1-3,1.4-6.6,1.8-12.5-3.6-11.6-10.3-1.2.5-2.1,1.1-3.4,1.4-7.3,1.7-13.2-5-10.9-12-6.7,2.1-12.7-2.8-12.1-9.8s.8-2.4,1-3.8l-14.6-8.6h-.7c-.6,1.2-1.4,5-3.1,4.8l-22.8-10.4v-.6c-.1,0,24.8-53.5,24.8-53.5h.8c0,0,22.6,11.1,22.6,11.1.2.3-.2.8-.1,1s2.7,1.1,3.1,1.3c5.4,1.7,10.4.9,15.7-.4,8.1-1.9,13.8-5.9,22.5-4.2s5.5,1.8,6.8,1.9c2.2,0,7.1-1.9,9.9-2.2,12.9-1.1,26.4,9,38.3,3.2.9-.5,1.6-.5,1.7-1.8l23-10.4,25.1,53-1.1.9-21.5,9.6c-1.9.4-1.8-2.2-2.8-3.3-.4-.2-1.1.3-1.5.5-4.1,2-8,4.7-12.1,6.7v.2c2.8,7.4-4.4,14.7-11.8,12ZM194.9,118.5l-23.5-50.5-20.4,9.3,23.1,50.2,20.7-8.9ZM25.9,128.9l23.5-50.5-20.8-10L4.9,119.6l21,9.3ZM95.8,77.7c-2.3-.5-4.7-1.4-7-1.5-5.4-.3-12.1,3.1-17.5,4.5s-14.1,2.9-20.6-.7h-.3c0,0-20.5,44.1-20.5,44.1l15.4,9.3c3.6-2.6,6.5-7,10-9.7,6.7-5.3,16,.3,14.8,8.5,1.8-1.5,3.3-3.4,5.6-4.1,6.7-2.2,12.9,3.2,12.2,10.1,1-.5,1.9-1,3-1.3,8.6-2.4,14.9,7.3,9.8,14.4,3.7-.3,7.3,1.1,9.2,4.2s.9,2.8,1.6,3.6,9.5,7.5,10.7,8.1c7.7,4,15.2-6.1,8.2-12.4l-22.7-17.1-.4-.6c0-.5.4-1.1.8-1.1l25.2,19c7.7,4.8,15.4-4.9,9.5-11.5l-23.6-17.9v-1s.9-.2.9-.2l24.9,18.8c7.2,4.5,14.9-3.7,10.2-10.7-8.5-6.2-17.6-11.7-26.1-17.9-5.4-3.9-15.6-13.4-21.7-14.7-15.3-3.3-12.6,17.2-25.1,18.6s-7.5-1.1-8.8-2.8,0-5.4,0-6.7c.7-13.8,2.2-22.9,15.9-28.8s3.8-1.2,5.5-1.9.6-.2.6-.5ZM75.4,114.7c6.7,4.6,12.4.9,15.9-5.4,3.8-7,5.9-12.3,15.6-11.4s17.3,10.6,23,14.8c8.3,6.1,18.2,11.4,26.1,17.6.5.4.6.9,1.1,1.2,4.7-1.8,8.9-4.8,13.4-7l.3-.5-21.1-45.3c-10.7,6.7-22-.3-33-1.9-9.2-1.4-27.6,3.4-34.4,9.9-6.9,6.6-6.8,19.1-6.9,28ZM54,127.3c-2.4,2.2-7.6,6.7-8.7,9.5-2.8,7.3,5.7,13.4,12,8.3,1.9-1.5,9.9-9.6,10.7-11.3,3-6.9-5-13.6-11.3-9.1-.9.6-1.9,1.9-2.7,2.6ZM77.7,129.2c-1.4.2-2.8.9-3.9,1.8-5.6,4.5-10.8,11.5-16.2,16.4-3.7,6.2,2.6,13.7,9.4,10.9,1.8-.8,6.5-5.7,8.2-7.4s9.9-9.2,10.7-11.8c1.6-5.4-2.5-10.6-8.1-9.9ZM98.9,140.3c-3.2-3.4-7.7-2.8-11,0-4,3.4-11.2,10.6-14.6,14.6-6.4,7.6,3.1,16.8,10.4,10.9s11.2-11.7,16.4-16.8c1.5-2.7,1-6.5-1.1-8.7ZM100.7,152.9c-1.1.2-2.3.9-3.2,1.5-2.2,1.8-7.3,6.7-9.1,8.9-6.8,7.9,2,16.9,9.3,11.8,2.1-1.5,8.4-7.9,10.2-10.1,4.6-5.6-.1-13.3-7.2-12.2ZM111.4,161c-.3,5.1-5.2,7.7-8.1,11.3,0,.4.2.4.4.6,3.4,3.4,8.1,5.5,12.3,2,2.4-2,3.7-6.7,1.6-9.3s-4.8-3.8-5.6-4.3-.2-.4-.6-.2Z"/>
  <path class="st3" d="M25.9,128.9l-21-9.3,23.6-51.3,20.8,10-23.5,50.5ZM16.2,113.9c-4.3.8-4.8,7.8-.2,9.2,7.7,2.3,8.8-10.8.2-9.2Z"/>
  <path class="st3" d="M194.9,118.5l-20.7,8.9-23.1-50.2,20.4-9.3,23.5,50.5ZM181,111.6c-5.8,1-4.8,10.1,1.4,9.6,6.4-.5,5.5-10.7-1.4-9.6Z"/>
  <path class="st0" d="M16.2,113.9c8.6-1.6,7.6,11.5-.2,9.2s-4.1-8.4.2-9.2ZM17.2,115.3c-4.6.5-3,8,1.6,6.1,3.5-1.5,1.6-6.4-1.6-6.1Z"/>
  <path class="st0" d="M181,111.6c6.8-1.2,7.8,9,1.4,9.6-6.2.5-7.2-8.6-1.4-9.6ZM184.2,118.7c3.1-2.9-1.7-7.6-4.6-4.5s1.7,7.3,4.6,4.5Z"/>
  <line class="st2" x1="63" y1="41.7" x2="83.1" y2="60.1"/>
  <line class="st2" x1="133.2" y1="42.2" x2="113.1" y2="60.6"/>
  <line class="st2" x1="98.8" y1="21.7" x2="98.8" y2="51.9"/>
</svg>