<?xml version="1.0" encoding="UTF-8"?>
<svg id="Layer_1" xmlns="http://www.w3.org/2000/svg" version="1.1" viewBox="0 0 200 200">
  <!-- Generator: Adobe Illustrator 29.1.0, SVG Export Plug-In . SVG Version: 2.1.0 Build 142)  -->
  <defs>
    <style>
      .st0 {
        fill: #fff;
      }
    </style>
  </defs>
  <path class="st0" d="M75.2,7.7c51-13.7,103.5,16.5,117.2,67.5,13.7,51-16.5,103.5-67.5,117.2-51,13.7-103.5-16.5-117.2-67.5-6.6-24.5-3.2-50.6,9.5-72.6C29.8,30.2,50.7,14.2,75.2,7.7ZM51.9,113.7c3.7,4.8,8,9,13,12.4,10.8,7.4,23.6,11.3,36.7,11,12.8,0,25.2-4.3,35.4-12,4.2-3.3,8-7.2,11-11.5.1-.2.3-.2.5,0l3.6,3.6c.1.1.1.3,0,.4-5.1,8.9-12.2,16.5-20.7,22.3-8.8,5.9-19,9.1-29.6,9.3-10.7.2-21.2-2.7-30.4-8.2-9.6-5.8-17.7-13.8-23.8-23.2,0-.1,0-.3,0-.4l3.7-3.7c.1-.1.3-.1.5,0h0ZM122.9,57.1c6.3,0,11.4,7.4,11.4,16.6s-5.1,16.5-11.4,16.5-11.4-7.4-11.4-16.5,5.1-16.6,11.4-16.6ZM76.9,57.1c6.3,0,11.4,7.4,11.4,16.6s-5.1,16.5-11.4,16.5-11.4-7.4-11.4-16.5,5.1-16.6,11.4-16.6ZM142.4,26.4C101.7,2.9,49.8,16.8,26.3,57.4c-23.5,40.6-9.6,92.6,31,116.1,40.6,23.5,92.6,9.6,116.1-31,11.3-19.5,14.4-42.7,8.5-64.5-5.8-21.8-20-40.3-39.6-51.6Z"/>
</svg>