<?xml version="1.0" encoding="UTF-8"?>
<svg id="Layer_1" xmlns="http://www.w3.org/2000/svg" version="1.1" viewBox="0 0 100 100">
  <!-- Generator: Adobe Illustrator 29.1.0, SVG Export Plug-In . SVG Version: 2.1.0 Build 142)  -->
  <defs>
    <style>
      .st0 {
        fill: #ddd;
      }
    </style>
  </defs>
  <path class="st0" d="M96.8,50c0,25.8-21.1,46.9-47.1,46.8-25.6-.2-46.5-21.2-46.4-47C3.4,24.1,24.4,3.1,50.3,3.2c25.6.2,46.4,21.1,46.4,46.7ZM50,80.5s0,0,0,0c4.2,0,8.5,0,12.7,0,1.6,0,3.1-.2,4.6-.6,7.6-2,13-9,13-16.9,0-8.5,0-17,0-25.5,0-2.6-.5-5.2-1.7-7.6-3.2-6.4-8.5-9.9-15.7-10.1-8.7-.1-17.4,0-26,0-2.6,0-5.1.5-7.4,1.7-6.4,3.4-9.8,8.7-9.9,15.9,0,8.5,0,17,0,25.5,0,.6,0,1.2,0,1.7.4,4,2,7.5,4.8,10.4,3.3,3.4,7.3,5.2,12.1,5.3,4.4,0,8.9,0,13.3,0Z"/>
  <path class="st0" d="M50,25.6c4.3,0,8.7,0,13,0,5.6,0,10.2,3.7,11.4,9.1.2.8.3,1.6.3,2.3,0,8.8,0,17.7,0,26.5,0,5.2-3.8,10-8.9,11.1-1,.2-2,.3-2.9.3-8.6,0-17.3,0-25.9,0-5.6,0-10.3-3.7-11.5-9.1-.2-.8-.3-1.6-.3-2.5,0-8.8,0-17.6,0-26.4,0-5.5,4.2-10.4,9.6-11.3.7-.1,1.4-.2,2.1-.2,2.2,0,4.3,0,6.5,0,2.2,0,4.3,0,6.5,0ZM50,34.6c-8.6,0-15.7,7-15.8,15.5,0,8.7,6.8,16,15.7,16,8.9,0,15.6-7.1,15.8-15.4.2-8.7-6.7-16-15.7-16.1ZM66.3,37.7c2,0,3.7-1.6,3.7-3.7,0-2-1.7-3.7-3.7-3.7-2,0-3.7,1.6-3.7,3.6,0,2,1.6,3.7,3.7,3.7Z"/>
  <path class="st0" d="M50,40.2c5.7,0,10.2,4.6,10.2,10.3,0,5.5-4.7,10.1-10.2,10.1-5.6,0-10.2-4.6-10.2-10.3,0-5.5,4.6-10.1,10.2-10.1Z"/>
</svg>