<?xml version="1.0" encoding="UTF-8"?>
<svg id="Layer_1" xmlns="http://www.w3.org/2000/svg" version="1.1" viewBox="0 0 200 200">
  <!-- Generator: Adobe Illustrator 29.2.0, SVG Export Plug-In . SVG Version: 2.1.0 Build 108)  -->
  <defs>
    <style>
      .st0 {
        fill: #333;
      }

      .st1 {
        fill: #f4f4f4;
      }
    </style>
  </defs>
  <circle class="st1" cx="143.5" cy="118.6" r="45.2"/>
  <path class="st0" d="M96.8,194.2c-.5,0-1,0-1.5-.3-5.8-2.3-26.1-11.3-44.9-33.4C26,131.9,14.6,94,16.5,47.8c0-2.2,1.9-3.9,4.1-3.9,0,0,.1,0,.2,0,9.9,0,43.6-2.4,74.6-32.7.8-.8,1.9-1.2,3-1.2,1.1,0,2.1.5,2.9,1.3,6,6.7,29.1,28.9,74.3,34.2,2,.2,3.5,1.9,3.6,3.9.2,4.9.3,15-1.4,28.2,0,.7-.8,1.3-1.5,1.2-.7,0-1.3-.8-1.2-1.5,1.7-13.5,1.5-23.9,1.4-27.7,0-.7-.5-1.2-1.2-1.3-46.2-5.4-69.8-28.2-76-35.1-.2-.3-.6-.4-1-.4-.4,0-.7.1-1,.4C65.5,44.1,30.8,46.6,20.7,46.6s-.1,0-.2,0c-.7,0-1.3.6-1.4,1.3-1.8,45.5,9.4,82.8,33.3,110.9,18.4,21.6,38.2,30.4,43.8,32.6.3.1.7.1,1.1,0,12.6-5.7,23.9-13.2,33.6-22.1.5-.5,1.4-.5,1.9,0,.5.5.5,1.4,0,1.9-9.9,9.1-21.5,16.7-34.3,22.5-.5.2-1.1.4-1.7.4Z"/>
  <path class="st0" d="M67.3,148.3c-.4,0-.8-.2-1-.5-34-39.1-28.6-87.4-28.6-87.9,0-.4.2-.7.5-.9.3-.2.7-.3,1.1-.2,20.2,3.9,43.2-14.8,43.5-15,.6-.5,1.4-.4,1.9.2s.4,1.4-.2,1.9c-1,.8-23.2,18.9-44.2,15.9-.6,8.1-1.9,49.9,28.1,84.3.5.6.4,1.4-.1,1.9-.3.2-.6.3-.9.3Z"/>
  <path class="st0" d="M143.3,163.9c-25,0-45.3-20.3-45.3-45.3s20.3-45.3,45.3-45.3,45.3,20.3,45.3,45.3-20.3,45.3-45.3,45.3ZM143.3,75.9c-23.5,0-42.7,19.1-42.7,42.7s19.1,42.7,42.7,42.7,42.7-19.1,42.7-42.7-19.1-42.7-42.7-42.7Z"/>
  <path class="st0" d="M143.7,118.8c-.3,0-.6-.1-.9-.3l-15.7-14.1c-.5-.5-.6-1.3,0-1.8.5-.5,1.3-.6,1.8,0l14.8,13.3,30.5-28.5c.5-.5,1.3-.5,1.8,0s.5,1.3,0,1.8l-31.3,29.3c-.2.2-.6.3-.9.3Z"/>
  <path class="st0" d="M112.7,150.4c-.3,0-.7-.1-.9-.4-.5-.5-.5-1.3,0-1.8l9.1-9.1c.5-.5,1.3-.5,1.8,0,.5.5.5,1.3,0,1.8l-9.1,9.1c-.3.3-.6.4-.9.4Z"/>
  <path class="st0" d="M186.6,119.7h-12.9c-.7,0-1.3-.6-1.3-1.3s.6-1.3,1.3-1.3h12.9c.7,0,1.3.6,1.3,1.3s-.6,1.3-1.3,1.3Z"/>
  <path class="st0" d="M112.9,119.7h-12.9c-.7,0-1.3-.6-1.3-1.3s.6-1.3,1.3-1.3h12.9c.7,0,1.3.6,1.3,1.3s-.6,1.3-1.3,1.3Z"/>
  <path class="st0" d="M173.9,150.4c-.3,0-.7-.1-.9-.4l-9.1-9.1c-.5-.5-.5-1.3,0-1.8.5-.5,1.3-.5,1.8,0l9.1,9.1c.5.5.5,1.3,0,1.8-.3.3-.6.4-.9.4Z"/>
  <path class="st0" d="M121.8,98.2c-.3,0-.7-.1-.9-.4l-9.1-9.1c-.5-.5-.5-1.3,0-1.8.5-.5,1.3-.5,1.8,0l9.1,9.1c.5.5.5,1.3,0,1.8-.3.3-.6.4-.9.4Z"/>
  <path class="st0" d="M143.3,163c-.7,0-1.3-.6-1.3-1.3v-12.9c0-.7.6-1.3,1.3-1.3s1.3.6,1.3,1.3v12.9c0,.7-.6,1.3-1.3,1.3Z"/>
  <path class="st0" d="M143.3,89.3c-.7,0-1.3-.6-1.3-1.3v-12.9c0-.7.6-1.3,1.3-1.3s1.3.6,1.3,1.3v12.9c0,.7-.6,1.3-1.3,1.3Z"/>
  <circle class="st0" cx="74.4" cy="153.8" r="3.1"/>
</svg>