<?xml version="1.0" encoding="UTF-8"?>
<svg id="Layer_1" xmlns="http://www.w3.org/2000/svg" version="1.1" viewBox="0 0 100 100">
  <!-- Generator: Adobe Illustrator 29.1.0, SVG Export Plug-In . SVG Version: 2.1.0 Build 142)  -->
  <defs>
    <style>
      .st0 {
        fill: #ddd;
      }
    </style>
  </defs>
  <path class="st0" d="M50,3.1C24.1,3.1,3.1,24.1,3.1,50s21,46.9,46.9,46.9,46.9-21,46.9-46.9S75.9,3.1,50,3.1ZM37,69.7h-9.1v-29.2h9.1v29.2ZM32.2,36.8h0c-3.3,0-5.5-2.2-5.5-5.1s2.2-5.1,5.6-5.1,5.4,2.2,5.5,5.1c0,2.8-2.1,5.1-5.6,5.1ZM73.6,69.7h-10.4v-15.1c0-4-1.6-6.7-5.2-6.7s-4.2,1.8-4.9,3.6c-.3.6-.2,1.5-.2,2.4v15.8h-10.3s.1-26.8,0-29.2h10.3v4.6c.6-2,3.9-4.9,9.1-4.9s11.6,4.2,11.6,13.3v16.3Z"/>
</svg>