<?xml version="1.0" encoding="UTF-8"?>
<svg id="Layer_1" xmlns="http://www.w3.org/2000/svg" version="1.1" viewBox="0 0 100 100">
  <!-- Generator: Adobe Illustrator 29.7.0, SVG Export Plug-In . SVG Version: 2.1.1 Build 138)  -->
  <defs>
    <style>
      .st0 {
        fill: #fff;
      }

      .st1 {
        fill: none;
        stroke: #fff;
        stroke-miterlimit: 10;
        stroke-width: 5.9px;
      }
    </style>
  </defs>
  <circle class="st1" cx="50" cy="50" r="46.4"/>
  <path class="st0" d="M73.8,41.9v21.9c0,2.1-1.9,3.8-4.2,3.8H30.4c-2.3,0-4.2-1.7-4.2-3.8v-21.9l17.5,13.3c3.7,2.8,9,2.8,12.7,0l17.5-13.3ZM69.6,32.4c.5,0,1,0,1.5.2.7.2,1.3.6,1.8,1.1.3.3.5.6.6.9.2.4.3.8.3,1.2v.2s0,1.3,0,1.3l-21.1,16.1c-1.5,1.1-3.7,1.2-5.2.1l-.2-.2-21.1-16.1v-1.3c0-1.4.9-2.7,2.3-3.4.6-.3,1.2-.4,1.9-.4h39.2Z"/>
</svg>