<?xml version="1.0" encoding="UTF-8"?>
<svg id="Layer_1" xmlns="http://www.w3.org/2000/svg" version="1.1" viewBox="0 0 100 100">
  <!-- Generator: Adobe Illustrator 29.1.0, SVG Export Plug-In . SVG Version: 2.1.0 Build 142)  -->
  <defs>
    <style>
      .st0 {
        fill: #fff;
      }

      .st1 {
        fill: none;
        stroke: #fff;
        stroke-miterlimit: 10;
        stroke-width: 5.9px;
      }
    </style>
  </defs>
  <circle class="st1" cx="50" cy="50" r="46.4"/>
  <g id="Group_11071">
    <g id="Group_11070">
      <g id="Group_11069">
        <path id="Path_10818" class="st0" d="M70.8,62.6l-6.7-6.7c-1.4-1.4-3.5-1.3-4.9,0l-3.4,3.4c-.2,0-.4-.2-.7-.4-3-1.6-5.7-3.5-8.2-5.9-2.4-2.4-4.3-5.1-5.9-8.2,0-.2-.2-.5-.4-.7l2.3-2.3,1.1-1.1c1.4-1.4,1.4-3.5,0-4.9l-6.7-6.8c-1.4-1.3-3.5-1.3-4.9,0l-1.9,1.9h0c-.7.9-1.2,1.8-1.6,2.9-.4.9-.6,1.9-.7,2.9-.9,7.4,2.5,14.1,11.6,23.2,12.6,12.6,22.7,11.7,23.2,11.6,1,0,1.9-.3,2.9-.7,1-.4,2-.9,2.8-1.6h0l2-1.9c1.4-1.4,1.4-3.6,0-5l.2.2Z"/>
      </g>
    </g>
  </g>
</svg>