<?xml version="1.0" encoding="UTF-8"?>
<svg id="Layer_1" xmlns="http://www.w3.org/2000/svg" version="1.1" viewBox="0 0 200 200">
  <!-- Generator: Adobe Illustrator 29.1.0, SVG Export Plug-In . SVG Version: 2.1.0 Build 142)  -->
  <defs>
    <style>
      .st0 {
        fill: #fff;
      }
    </style>
  </defs>
  <path class="st0" d="M168.1,146.4c-2.8-2.1-6.7-1.6-8.9,1.2-.4.5-.8,1.1-1.2,1.6-6.3,7.8-14.9,14-25.4,18.7,0,0-.1,0-.2,0-16.6,7.9-36.1,9-54.7,3.1-16.4-5.3-29.7-15.7-39.6-30.7-7.4-11.8-11.2-24.6-11.5-38.1,0-.3,0-.7,0-1h7.7c2.9,0,4.4-3.5,2.3-5.6l-14.1-14.1c-1.3-1.3-3.3-1.3-4.6,0l-14.1,14.1c-2.1,2.1-.6,5.6,2.3,5.6h7.8c.1,16.3,4.6,31.7,13.5,45.9,0,0,0,0,0,.1,11.5,17.5,27.1,29.6,46.3,35.8,9.2,2.9,18.6,4.4,27.8,4.4,12.6,0,24.9-2.7,36.1-8,13.2-5.9,23.8-14,31.5-24.2,2.1-2.8,1.6-6.7-1.2-8.9Z"/>
  <path class="st0" d="M193.7,100h-7.8c0-1.7,0-3.5-.2-5.2-.8-13.6-4.9-27.1-11.8-38.9-6.7-11.5-16.1-21.4-27.2-28.8-11.3-7.5-24.3-12.3-37.8-13.9-14.9-1.8-30.1.2-43.9,5.9-13.5,5.6-25.5,14.5-34.8,26-2.2,2.7-1.8,6.7.9,8.9,2.7,2.2,6.7,1.8,8.9-.9.5-.6,1-1.2,1.4-1.7,7.7-9,17.4-16,28.3-20.5,11.8-4.9,24.8-6.6,37.6-5.1,11.5,1.4,22.6,5.5,32.3,11.9,9.5,6.3,17.6,14.8,23.3,24.7,5.9,10.1,9.4,21.6,10.1,33.2,0,.7,0,1.5,0,2.2,0,.7,0,1.5,0,2.2h-7.8c-2.9,0-4.4,3.5-2.3,5.6l14.1,14.1c1.3,1.3,3.3,1.3,4.6,0l14.1-14.1c2.1-2.1.6-5.6-2.3-5.6Z"/>
</svg>