<?xml version="1.0" encoding="UTF-8"?>
<svg id="Layer_1" xmlns="http://www.w3.org/2000/svg" version="1.1" viewBox="0 0 200 200">
  <!-- Generator: Adobe Illustrator 29.1.0, SVG Export Plug-In . SVG Version: 2.1.0 Build 142)  -->
  <defs>
    <style>
      .st0 {
        fill: #ddd;
      }

      .st1 {
        fill: #4b5a6b;
      }
    </style>
  </defs>
  <circle class="st0" cx="100" cy="100" r="92.8"/>
  <g id="Group_11071">
    <g id="Group_11070">
      <g id="Group_11069">
        <path id="Path_10818" class="st1" d="M141.6,125.2l-13.4-13.4c-2.8-2.7-7.2-2.6-9.9.2l-6.8,6.8c-.5-.3-.8-.5-1.4-.7-6-3.1-11.5-7.1-16.3-11.8-4.7-4.8-8.7-10.3-11.8-16.3-.3-.5-.5-.9-.7-1.3l4.5-4.5,2.2-2.2c2.8-2.7,2.9-7.1.2-9.9l-13.4-13.6c-2.8-2.7-7.2-2.6-9.9.2l-3.8,3.8h0c-1.3,1.8-2.3,3.6-3.1,5.6-.7,1.8-1.2,3.7-1.4,5.6-1.7,14.7,5,28.2,23.2,46.5,25.2,25.2,45.6,23.4,46.5,23.3,1.9-.2,3.8-.7,5.6-1.4,2-.8,3.9-1.8,5.5-3.1h0c0,0,3.9-3.7,3.9-3.7,2.7-2.8,2.8-7.2.1-10.1Z"/>
      </g>
    </g>
  </g>
</svg>