<?xml version="1.0" encoding="UTF-8"?>
<svg id="Layer_1" xmlns="http://www.w3.org/2000/svg" version="1.1" viewBox="0 0 200 200">
  <!-- Generator: Adobe Illustrator 29.1.0, SVG Export Plug-In . SVG Version: 2.1.0 Build 142)  -->
  <defs>
    <style>
      .st0 {
        fill: #fff;
      }
    </style>
  </defs>
  <path class="st0" d="M37.4,13.2c0-3.1,2.5-5.6,5.6-5.6h130.7c7.2,0,13.1,5.9,13.1,13.1v74.7c0,3.1-2.5,5.6-5.6,5.6s-5.6-2.5-5.6-5.6V20.6c0-1-.8-1.9-1.9-1.9H43c-3.1,0-5.6-2.5-5.6-5.6h0Z"/>
  <path class="st0" d="M24.4,41.2c-1,0-1.9.8-1.9,1.9v127c0,1,.8,1.9,1.9,1.9h63.5c3.1,0,5.6,2.5,5.6,5.6s-2.5,5.6-5.6,5.6H24.4c-7.2,0-13.1-5.9-13.1-13.1h0V43c0-7.2,5.9-13.1,13.1-13.1h140v54.2c0,3.1-2.5,5.6-5.6,5.6s-5.6-2.5-5.6-5.6v-42.9H24.4Z"/>
  <path class="st0" d="M48.6,87.9c0-3.1,2.5-5.6,5.6-5.6h67.2c3.1,0,5.6,2.5,5.6,5.6,0,3.1-2.5,5.6-5.6,5.6H54.3c-3.1,0-5.6-2.5-5.6-5.6h0s0,0,0,0ZM54.3,119.6c-3.1,0-5.6,2.5-5.6,5.6s2.5,5.6,5.6,5.6h26.1c3.1,0,5.6-2.5,5.6-5.6s-2.5-5.6-5.6-5.6h-26.1ZM165.4,144c2-2.3,1.8-5.9-.5-7.9-2.2-2-5.6-1.8-7.7.3l-13.5,14.4-7.1-7.1c-2.1-2.2-5.7-2.3-7.9-.1-2.2,2.1-2.3,5.7-.1,7.9,0,0,0,0,.1.1l11.2,11.2c2.2,2.2,5.7,2.2,7.9,0,0,0,0,0,.1-.1l17.4-18.7h0Z"/>
  <path class="st0" d="M143.9,192.4c24.8,0,44.8-20.1,44.8-44.8s-20.1-44.8-44.8-44.8h0c-24.8,0-44.8,20.1-44.8,44.8s20.1,44.8,44.8,44.8ZM143.9,181.2c-18.6,0-33.6-15-33.6-33.6s15-33.6,33.6-33.6h0c18.6,0,33.6,15,33.6,33.6s-15,33.6-33.6,33.6h0Z"/>
</svg>