<?xml version="1.0" encoding="UTF-8"?>
<svg id="Layer_1" xmlns="http://www.w3.org/2000/svg" version="1.1" viewBox="0 0 200 200">
  <!-- Generator: Adobe Illustrator 29.1.0, SVG Export Plug-In . SVG Version: 2.1.0 Build 142)  -->
  <defs>
    <style>
      .st0 {
        stroke-width: 5.4px;
      }

      .st0, .st1 {
        stroke-miterlimit: 10;
      }

      .st0, .st1, .st2 {
        fill: none;
        stroke: #000;
      }

      .st1, .st2 {
        stroke-width: 6.3px;
      }

      .st2 {
        stroke-linecap: round;
        stroke-linejoin: round;
      }
    </style>
  </defs>
  <path class="st0" d="M100.8,13.1l5.5,17h17.8c.7,0,1,.9.4,1.3l-14.4,10.5,5.5,17c.2.6-.5,1.2-1.1.8l-14.4-10.5-14.4,10.5c-.6.4-1.3-.1-1.1-.8l5.5-17-14.4-10.5c-.6-.4-.3-1.3.4-1.3h17.8s5.5-17,5.5-17c.2-.6,1.1-.6,1.3,0Z"/>
  <path class="st0" d="M167.9,41.4l5.5,17h17.8c.7,0,1,.9.4,1.3l-14.4,10.5,5.5,17c.2.6-.5,1.2-1.1.8l-14.4-10.5-14.4,10.5c-.6.4-1.3-.1-1.1-.8l5.5-17-14.4-10.5c-.6-.4-.3-1.3.4-1.3h17.8s5.5-17,5.5-17c.2-.6,1.1-.6,1.3,0Z"/>
  <path class="st0" d="M33.4,42.1l5.5,17h17.8c.7,0,1,.9.4,1.3l-14.4,10.5,5.5,17c.2.6-.5,1.2-1.1.8l-14.4-10.5-14.4,10.5c-.6.4-1.3-.1-1.1-.8l5.5-17-14.4-10.5c-.6-.4-.3-1.3.4-1.3h17.8s5.5-17,5.5-17c.2-.6,1.1-.6,1.3,0Z"/>
  <circle class="st1" cx="100.6" cy="120.5" r="47.4"/>
  <circle class="st1" cx="100.1" cy="121.5" r="28.1"/>
  <polyline class="st2" points="63.7 149.3 45.6 179.8 63.4 176.4 73 186.6 84.1 166"/>
  <polyline class="st2" points="137.8 150 155.9 180.6 138.1 177.2 128.5 187.4 117.5 166.7"/>
  <polyline class="st2" points="87 120.7 94.2 131.6 114.5 112"/>
</svg>