<?xml version="1.0" encoding="UTF-8"?>
<svg id="Layer_1" xmlns="http://www.w3.org/2000/svg" version="1.1" viewBox="0 0 100 100">
  <!-- Generator: Adobe Illustrator 29.1.0, SVG Export Plug-In . SVG Version: 2.1.0 Build 142)  -->
  <defs>
    <style>
      .st0 {
        fill: none;
        stroke: #aaa;
        stroke-miterlimit: 10;
        stroke-width: 1.8px;
      }

      .st1 {
        opacity: .3;
      }
    </style>
  </defs>
  <g class="st1">
    <path class="st0" d="M2.3,18.7c.9-3.1,2.4-5.9,5.4-7.5,1.4-.7,3.1-1.4,4.6-1.4,7.9-.1,15.9-.2,23.8,0,5.8.1,10.1,5.1,10.2,11.4,0,8.7,0,17.4,0,26.1,0,5.4,0,10.7-.2,16.1-.5,12.9-11.5,24.9-24.3,26.6-2.8.4-5.6.4-8.5.4-2.2,0-3.6-1.4-3.7-3.6,0-2.4,0-4.8,0-7.1,0-2.3,1.4-3.7,3.7-3.8,1.3,0,2.7,0,4,0,7.6-.2,13.6-6.2,14.2-13.8.5-6.5-2.3-8.6-7.8-8.3-3.3.2-6.6,0-10,0-5.8,0-9.7-2.9-11.3-8.5,0-.2-.2-.3-.3-.5,0-8.6,0-17.3,0-25.9Z"/>
    <path class="st0" d="M97.7,64c-.5,2-.8,4-1.5,5.9-3.9,12.1-14.5,20-27.2,20.4-1.4,0-2.9,0-4.3,0-2.1,0-3.6-1.4-3.7-3.5,0-2.5,0-5.1,0-7.6,0-2.1,1.7-3.4,4-3.5,2.4-.1,4.9,0,7.2-.6,6.3-1.6,11.8-7.8,10.6-16.8-.4-2.8-2.6-4.6-5.7-4.7-4,0-8,0-12.1,0-6.9,0-11.5-4.5-11.5-11.5,0-7,0-14,0-21,0-6.9,4.6-11.5,11.5-11.5,6.8,0,13.7,0,20.5,0,6.4,0,9.9,2.6,11.8,8.8,0,.2.1.4.2.5v45Z"/>
  </g>
</svg>