<?xml version="1.0" encoding="UTF-8"?>
<svg id="Layer_1" xmlns="http://www.w3.org/2000/svg" version="1.1" viewBox="0 0 200 200">
  <!-- Generator: Adobe Illustrator 29.1.0, SVG Export Plug-In . SVG Version: 2.1.0 Build 142)  -->
  <path d="M157.3,149.7c-.9-4.2-5.3-9.4-13-11-7-1.5-12.7,1.3-19.3,6.3l-12.7.7c-1.1-2.7-3.4-5.3-7.2-7.1l-15.6-7.3c-.5-.5-1.3-2.1-1.8-3.2-1.6-3.1-3.4-6.6-6.6-8.1l-14.9-7c-5-2.3-12.3-1.4-17.1.2-4.4,1.6-10.7,3.9-14.4,5.3l-2.1-5.9c-.6-1.6-2.5-2.5-4.1-1.9l-21.9,7.9c-1.7.6-2.5,2.4-1.9,4.1l19.1,52.5c.3.8.9,1.5,1.6,1.8s1.6.4,2.4.1l21.9-7.9c1.7-.6,2.5-2.4,1.9-4.1l-1.9-5.3c.5,0,1,.2,1.7.5l41.8,19.5c5.4,2.5,36-9.7,36.3-9.8,3.6-1.5,20.8-12,27-17.5.9-.7,1.2-1.9,1-3ZM28.5,170.3l-16.9-46.6,15.9-5.8,14.7,40.5c0,.1,0,.3,0,.4,0,.1.1.2.2.4l1.9,5.3-15.9,5.8ZM126.8,164.4c-5.4,2.3-27.4,10-31.4,9.8l-41.5-19.4c-2.8-1.3-4.9-1.3-6.6-1l-10.6-29.2c3.7-1.4,10-3.7,14.3-5.2,3.9-1.3,9.4-1.8,12.4-.4l14.9,7c1.2.6,2.6,3.3,3.7,5.2,1.4,2.7,2.6,4.9,4.7,5.9l15.8,7.4c4.2,2,5,5.1,3.9,7.4s-1.5,2-2.7,2.4c-1.6.5-3.5.3-5.5-.7l-23.9-11.1c-1.6-.7-3.5,0-4.2,1.5-.7,1.6,0,3.5,1.5,4.2l23.9,11.2c4.4,2.1,8,1.7,10.1.9,2.9-1,5.2-3,6.5-5.8.4-.8.6-1.6.8-2.5l13.4-.8c.6,0,1.3-.3,1.8-.7,6.7-5.2,10.6-6.7,14.9-5.8,3.7.8,6.2,2.8,7.4,4.5-6.6,5.2-20.6,13.8-23.5,15Z"/>
  <path d="M25.4,127.7c-.6-1.7-2.4-2.5-4.1-1.9-1.7.6-2.5,2.4-1.9,4.1l3.2,8.8c.3.8.9,1.5,1.6,1.8s1.6.4,2.4.1c1.7-.6,2.5-2.4,1.9-4.1l-3.2-8.8Z"/>
  <path d="M44.5,46.8c.6,4.2,4.8,9.7,12.4,11.8,6.9,1.9,12.7-.6,19.7-5.3h12.7c1,2.8,3.1,5.5,6.8,7.4l15.2,8.1c.4.5,1.2,2.1,1.7,3.3,1.4,3.2,3.1,6.8,6.1,8.4l14.5,7.8c4.9,2.6,12.2,2.1,17.1.8,4.4-1.3,10.9-3.3,14.7-4.5l1.8,6c.5,1.6,2.4,2.6,4,2.1l22.3-6.7c1.7-.5,2.6-2.3,2.1-4l-16.1-53.5c-.3-.8-.8-1.5-1.5-1.9s-1.6-.5-2.4-.2l-22.3,6.7c-1.7.5-2.6,2.3-2.1,4l1.6,5.4c-.5,0-1-.3-1.7-.6l-40.6-21.8c-5.3-2.8-36.5,7.7-36.8,7.8-3.6,1.3-21.5,10.9-27.9,16-.9.7-1.3,1.8-1.2,2.9ZM174.2,33.4l14.3,47.4-16.2,4.9-12.4-41.3c0-.1,0-.3,0-.4,0-.1-.1-.2-.2-.4l-1.6-5.4,16.2-4.9ZM75.7,33.8c5.6-2,27.9-8.4,31.9-8l40.4,21.7c2.7,1.4,4.9,1.6,6.6,1.4l9,29.7c-3.8,1.2-10.2,3.1-14.6,4.4-4,1-9.5,1.3-12.4-.3l-14.5-7.8c-1.2-.6-2.5-3.4-3.4-5.4-1.2-2.7-2.3-5.1-4.3-6.2l-15.3-8.2c-4.1-2.2-4.7-5.4-3.5-7.6.6-1.1,1.6-1.9,2.9-2.3,1.6-.4,3.5,0,5.4,1l23.2,12.5c1.5.8,3.5.3,4.3-1.3.8-1.5.3-3.5-1.3-4.3l-23.2-12.5c-4.3-2.3-7.9-2.1-10.1-1.5-3,.8-5.4,2.7-6.8,5.4s-.7,1.6-.9,2.4h-13.4c-.6,0-1.3.2-1.8.6-6.9,4.8-10.9,6.1-15.2,4.9-3.6-1-6-3.1-7.1-4.9,6.9-4.8,21.4-12.6,24.3-13.7Z"/>
  <path d="M174.9,76.1c.5,1.7,2.3,2.6,4,2.1,1.7-.5,2.6-2.3,2.1-4l-2.7-8.9c-.3-.8-.8-1.5-1.5-1.9-.7-.4-1.6-.5-2.4-.2-1.7.5-2.6,2.3-2.1,4l2.7,8.9Z"/>
  <path d="M135.7,122.8c1.1-.6,1.7-2,1.3-3.2l-3.6-11.5c-.2-.7-.7-1.3-1.3-1.6h0l-29.4-15.4c.1-7.8-4.3-15.1-11.6-18.9-10.6-5.6-23.2-1.7-28.6,8.7-5.5,10.4-1.4,23.3,9,28.8,5.9,3.1,12.9,3.2,19,.4l6.1,3.2c.6.3,1.4.4,2.1.2l1.2-.4.4,1.2c.2.7.7,1.3,1.3,1.6l5,2.6c.6.3,1.4.4,2.1.2l2.7-.9,3,1.6.8,2.7c.2.7.7,1.3,1.3,1.6l7.5,3.9c.8.4,1.8.4,2.6,0l9-4.9ZM131.1,119.1l-5.7,3.1-5.2-2.7-.8-2.7c-.2-.7-.7-1.3-1.3-1.6l-5-2.6c-.6-.3-1.4-.4-2.1-.2l-2.7.9-3-1.6-.9-2.8c-.2-.7-.7-1.3-1.3-1.6s-1.4-.4-2.1-.2l-2.7.9-6.4-3.3c-.8-.4-1.8-.4-2.6,0-4.7,2.6-10.4,2.7-15.1.3-7.7-4.1-10.7-13.7-6.7-21.4,4-7.7,13.4-10.5,21.3-6.4,5.9,3.1,9.2,9.1,8.5,15.4-.1,1.1.5,2.2,1.4,2.7h0l30,15.7,2.6,8.3Z"/>
  <path d="M77.8,93.9l3.9-7.5c.7-1.3.2-3-1.1-3.7-1.3-.7-3-.2-3.7,1.1l-3.9,7.5c-.7,1.3-.2,3,1.1,3.7,1.3.7,3,.2,3.7-1.1Z"/>
</svg>