<?xml version="1.0" encoding="UTF-8"?>
<svg id="Layer_1" xmlns="http://www.w3.org/2000/svg" version="1.1" viewBox="0 0 200 200">
  <!-- Generator: Adobe Illustrator 29.1.0, SVG Export Plug-In . SVG Version: 2.1.0 Build 142)  -->
  <defs>
    <style>
      .st0 {
        fill: #fff;
      }
    </style>
  </defs>
  <path class="st0" d="M164.1,23.8h-5.9v-6.4c0-8.1-6.4-14.7-14.3-14.7s-14.3,6.6-14.3,14.7v6.4h-14.6v-6.4c0-8.1-6.4-14.7-14.3-14.7s-14.3,6.6-14.3,14.7v6.4h-14.6v-6.4c0-8.1-6.4-14.7-14.3-14.7s-14.3,6.6-14.3,14.7v6.4h-7.5c-12.5,0-22.7,10.2-22.7,22.7v128.2c0,12.5,10.2,22.7,22.7,22.7h128.2c12.5,0,22.7-10.2,22.7-22.7V46.5c0-12.5-10.2-22.7-22.7-22.7ZM137.7,17.4c0-3.7,2.8-6.7,6.2-6.7s6.2,3,6.2,6.7v26.1c0,3.7-2.8,6.7-6.2,6.7s-6.2-3-6.2-6.7v-26.1ZM94.6,17.4c0-3.7,2.8-6.7,6.2-6.7s6.2,3,6.2,6.7v26.1c0,3.7-2.8,6.7-6.2,6.7s-6.2-3-6.2-6.7v-26.1ZM51.4,17.4c0-3.7,2.8-6.7,6.2-6.7s6.2,3,6.2,6.7v26.1c0,3.7-2.8,6.7-6.2,6.7s-6.2-3-6.2-6.7v-26.1ZM173.4,174.6c0,5.2-4.2,9.3-9.3,9.3H35.9c-5.2,0-9.3-4.2-9.3-9.3V57.1h146.9v117.5Z"/>
  <path class="st0" d="M95.5,126.7c3,3,7.7,2.9,10.7,0,3-3,3-7.7,0-10.7-.5-.5-1.1-.9-1.8-1.3-.8-12.5-3.6-21.7-3.6-21.7,0,0-2.8,9.3-3.6,21.7-.6.3-1.2.8-1.8,1.3-.5.5-.9,1.1-1.3,1.8-12.4.8-21.7,3.6-21.7,3.6,0,0,9.3,2.8,21.7,3.6.3.6.7,1.3,1.3,1.8Z"/>
  <path class="st0" d="M100.8,172.4c28.2,0,51-22.9,51-51s-22.9-51-51-51-51,22.9-51,51,22.9,51,51,51ZM100.8,77.9c24,0,43.5,19.5,43.5,43.5s-19.5,43.5-43.5,43.5-43.5-19.5-43.5-43.5,19.5-43.5,43.5-43.5Z"/>
  <path class="st0" d="M100.8,162.9c22.9,0,41.6-18.7,41.6-41.6s-18.7-41.6-41.6-41.6-41.6,18.7-41.6,41.6c0,22.9,18.7,41.6,41.6,41.6ZM100.8,83.5c20.8,0,37.8,17,37.8,37.8s-17,37.8-37.8,37.8-37.8-17-37.8-37.8,17-37.8,37.8-37.8Z"/>
</svg>