<?xml version="1.0" encoding="UTF-8"?>
<svg id="Layer_1" xmlns="http://www.w3.org/2000/svg" version="1.1" viewBox="0 0 100 100">
  <!-- Generator: Adobe Illustrator 29.1.0, SVG Export Plug-In . SVG Version: 2.1.0 Build 142)  -->
  <defs>
    <style>
      .st0 {
        fill: #ddd;
      }
    </style>
  </defs>
  <path class="st0" d="M50,3.4C24.4,3.4,3.4,24.4,3.4,50s20.9,46.6,46.6,46.6,46.6-20.9,46.6-46.6S75.6,3.4,50,3.4ZM78.8,55.3c-.1,1.7-.2,3.4-.4,5.1-.2,1.1-.3,2.4-.6,3.7-.3,1.3-.9,2.5-1.9,3.5-.3.3-.8.6-1.3,1-.6.4-1.3.7-2.2.9-1,.3-2.3.5-3.5.6-1.2.1-2.4.2-3.4.2-1.5,0-3,.2-4.5.2-6.9.3-15.1.3-22,0-1.5,0-3-.2-4.5-.2s-2.2-.1-3.4-.2c-1.2-.2-2.5-.3-3.5-.6-.9-.3-1.6-.6-2.2-.9-.6-.3-1-.7-1.3-1-1-.9-1.5-2.2-1.9-3.5-.3-1.3-.5-2.6-.6-3.7-.3-1.6-.4-3.3-.4-5.1-.1-3.4,0-6.3.1-9.7l.2-4.6c.2-4,1.1-6.5,2.8-8.1,1.6-1.5,4-2.2,7.1-2.4l6-.3c8.5-.4,16.7-.4,25.2,0l6,.3c3.1.3,5.5.9,7.1,2.4,1.6,1.5,2.6,4.1,2.8,8.1h0l.2,4.6c.2,3.3.2,6.3.1,9.7Z"/>
  <polygon class="st0" points="44.1 41.5 44.1 58.8 58.9 50.2 44.1 41.5"/>
</svg>