<?xml version="1.0" encoding="UTF-8"?>
<svg id="Layer_1" xmlns="http://www.w3.org/2000/svg" version="1.1" viewBox="0 0 200 153">
  <!-- Generator: Adobe Illustrator 29.2.1, SVG Export Plug-In . SVG Version: 2.1.0 Build 116)  -->
  <defs>
    <style>
      .st0 {
        fill: #75b523;
      }
    </style>
  </defs>
  <g id="Layer_11">
    <g>
      <path class="st0" d="M7,23.1c.3-1,.6-2.1.9-3.1,2.4-7.4,9.2-12.4,17-12.5h21.6c2.5,0,4.1,1.5,4.1,3.7s-1.6,3.6-4.1,3.6h-20.3c-7.3,0-11.8,4.5-11.8,11.7v100.1c0,7.1,4.6,11.7,11.7,11.7h148.1c7.2,0,11.8-4.5,11.8-11.8V26.6c0-7.4-4.5-11.8-11.9-11.8h-96.3c-3.4,0-5.2-1.3-5.1-3.7,0-2.4,1.7-3.6,5.1-3.6h96.3c11.5,0,19.3,7.7,19.3,19.2v99.7c0,11.4-7.8,19.1-19.2,19.1H26.5c-9.9,0-16.7-5.5-18.9-15.2,0-.2-.2-.3-.3-.4V23.1h-.3Z"/>
      <path class="st0" d="M61.4,26.4c19.2,0,34.9,15.6,34.9,34.8s-15.6,34.9-34.8,34.9-34.9-15.6-34.9-34.8,15.6-34.9,34.8-34.9ZM72.2,68.6c4.5,2.3,8,5.6,10.6,10,8.8-10.2,9-27.6-3.2-38.2-12.1-10.5-30.1-8.6-39.9,4-9.6,12.3-5.6,28,.7,34,2.5-4.4,6.1-7.6,10.5-9.9-5.1-6.6-3.8-16.3,1.4-20.8,5.1-4.4,12.7-4.6,18-.3,5.1,4.1,7.4,13.5,1.9,21.2ZM77.1,83.8c-2.1-6.1-9.2-10.8-16.1-10.4-6.9.3-13.7,5.1-15,10.5,9.5,7,23.2,6.1,31.1,0h0ZM68.1,58.9c0-3.5-1.5-5.8-4.2-6.9-2.6-1-5.5-.3-7.3,1.8-2,2.3-2.1,5-1.3,7.7.9,3.3,4.1,5.1,7.5,4.6,3.3-.5,5.4-3.3,5.4-7.1h0Z"/>
      <path class="st0" d="M143.4,80.2h-25c-3.2,0-4.5-1.3-4.5-4.5v-27.4c0-3.1,1.3-4.4,4.4-4.4h50.8c3.1,0,4.4,1.3,4.4,4.5v27.4c0,3.1-1.3,4.4-4.4,4.4h-25.7ZM121.2,51.2v21.6h44.8v-21.6s-44.8,0-44.8,0Z"/>
      <path class="st0" d="M143.8,87.4h26.5c1.8.3,3.2,1.8,3.1,3.7,0,1.7-1.3,3.2-3.1,3.5h-52.7c-2.2,0-3.7-1.7-3.7-3.7s1.5-3.5,3.6-3.5h26.3Z"/>
      <path class="st0" d="M61.6,110.7h-22.1c-2.9,0-4.7-2.3-3.7-4.8.7-1.8,2.2-2.5,4-2.5h43.7c2.8,0,4.6,2.1,3.9,4.6-.5,1.8-1.8,2.7-4,2.7-7.3,0-14.5,0-21.8,0Z"/>
      <path class="st0" d="M61.4,125.2h-15.8c-2.6,0-4.3-1.4-4.3-3.6s1.7-3.7,4.3-3.7h31.9c2.6,0,4.3,1.5,4.3,3.7s-1.7,3.6-4.3,3.6h-16.1Z"/>
      <path class="st0" d="M158.1,109.2h-11.1c-2.6,0-4.2-1.5-4.2-3.7s1.7-3.5,4.2-3.5h22.1c2.5,0,4.1,1.4,4.2,3.5,0,2.2-1.6,3.7-4.2,3.7h-11.1.1Z"/>
      <path class="st0" d="M65.1,11.1c0,2-1.7,3.7-3.7,3.6-1.9,0-3.5-1.7-3.6-3.6,0-2,1.7-3.7,3.7-3.6,1.9,0,3.5,1.7,3.6,3.6Z"/>
      <path class="st0" d="M117.4,109.2c-2,0-3.6-1.8-3.5-3.8,0-1.9,1.8-3.5,3.7-3.4,2,0,3.6,1.8,3.5,3.8,0,1.9-1.8,3.5-3.7,3.4Z"/>
      <path class="st0" d="M131.9,102c2,0,3.7,1.7,3.6,3.7,0,1.9-1.7,3.5-3.6,3.6-2,0-3.7-1.7-3.6-3.7,0-1.9,1.7-3.5,3.6-3.6Z"/>
    </g>
  </g>
</svg>