<?xml version="1.0" encoding="UTF-8"?>
<svg id="Layer_1" xmlns="http://www.w3.org/2000/svg" version="1.1" viewBox="0 0 200 153">
  <!-- Generator: Adobe Illustrator 29.2.1, SVG Export Plug-In . SVG Version: 2.1.0 Build 116)  -->
  <defs>
    <style>
      .st0 {
        fill: #75b523;
        stroke: #75b523;
        stroke-miterlimit: 10;
        stroke-width: 2px;
      }
    </style>
  </defs>
  <g id="Layer_11" data-name="Layer_1">
    <g>
      <path class="st0" d="M158.3,134.1H41.7v14.3c0,1.5-.6,2.2-2.1,2.2h-15.3c-1.5,0-2.2-.7-2.2-2.2V33.3c0-1.5.6-2.2,2.2-2.2h15.4c1.4,0,2,.7,2,2.1v14.3h116.6v-14.2c0-1.7.6-2.3,2.2-2.3h15.1c1.6,0,2.3.6,2.3,2.3v114.9c0,1.6-.6,2.2-2.3,2.2h-14.9c-1.9,0-2.4-.5-2.4-2.4v-14.2.3ZM100,62.7h-21.4c-4.9,0-8.2,3.4-8.2,8.2v40c0,4.7,3.4,8.1,8,8.1h43.2c4.6,0,8-3.5,8-8v-40.4c0-.8-.1-1.6-.4-2.4-1.1-3.5-4-5.5-7.8-5.5-7.1,0-14.3,0-21.4,0ZM38.1,147V34.8h-12.4v112.2h12.4ZM174.3,147V34.8h-12.4v112.2h12.4ZM41.7,64.2h26.4c.3,0,.8-.2,1-.5,2.4-3,5.5-4.6,9.4-4.6h43.2c3.8,0,6.9,1.6,9.2,4.5.3.3.8.6,1.2.6h25.4c.7,0,.9-.2.9-.9v-12.1H41.7v12.9h0ZM158.3,117.5h-26.4c-.3,0-.8.3-1,.6-2.3,2.9-5.3,4.5-9,4.5h-43.7c-3.7,0-6.7-1.5-9-4.5-.4-.5-.7-.7-1.3-.7h-26.2v12.9h116.5v-12.9h0ZM66.9,113.9v-12.9h-25.1v12.9h25.1ZM133.1,80.8h25.2v-12.8h-25.2v12.8ZM41.8,67.9v12.3c0,.7.3.7.8.7h24.4v-12.9h-25.2ZM158.2,101h-25.2v12.9h25.2v-12.9ZM41.7,97.3h25v-12.9h-25s0,12.9,0,12.9ZM133.2,97.3h25.1v-12.8h-25.1v12.8Z"/>
      <path class="st0" d="M98.4,2.5c17.9,0,32.9,5.8,45.4,17.7.3.3.6.6.9.9.7.8.7,1.8,0,2.5s-1.7.7-2.5,0c-1.2-1.1-2.4-2.3-3.7-3.3-13-10.8-28-15.4-44.7-13.7-13.8,1.4-25.7,7.2-35.6,16.9-.9.9-2,1-2.7.2-.8-.8-.7-1.8.3-2.7,8.3-8.1,18.1-13.7,29.4-16.4,2.3-.6,4.7-1,7.1-1.3,2.3-.3,4.7-.4,6.4-.6l-.3-.2Z"/>
      <path class="st0" d="M101.1,16.9c9.8,0,19.8,3.9,28.1,12,.9.9,1,2,.2,2.7-.8.8-1.8.7-2.7-.2-8.9-8.5-19.6-12.1-31.8-10.5-8.2,1-15.3,4.6-21.3,10.3,0,.1-.2.3-.4.4-.9.8-1.9.8-2.6,0-.7-.8-.7-1.8,0-2.6.9-.8,1.8-1.7,2.7-2.5,7.4-6.1,16.4-9.4,27.7-9.6Z"/>
      <path class="st0" d="M100.6,31.3c4.8,0,9.5,1.9,13.4,5.7.7.7.9,1.5.5,2.2-.4.8-1.1,1.1-1.9.9-.5,0-.9-.5-1.2-.8-4.8-4.3-10.3-5.5-16.5-3.6-2.4.8-4.5,2.1-6.4,3.9-.8.8-1.9.8-2.6,0-.7-.7-.6-1.8,0-2.6,0,0,.2-.2.3-.3,3.7-3.5,8.6-5.4,14.3-5.5h0Z"/>
      <path class="st0" d="M104.5,85.9h8.1c.9,0,1.6.3,1.9,1.1.3.8,0,1.5-.5,2.1-6.6,7.3-13.2,14.7-19.8,22,0,0-.2.2-.3.3-.7.8-1.4,1-2.2.6-.8-.4-1.2-1.1-1-2.2.5-2.7,1-5.4,1.5-8.1.4-2.1.7-4.1,1.1-6.4h-6.2c-1.8,0-2.6-1.2-1.9-2.8,3-7.2,6.1-14.5,9.1-21.7.4-.9,1-1.4,2.1-1.4h11.8c1.8,0,2.6,1.2,1.9,2.8-1.7,4.1-3.5,8.2-5.3,12.3,0,.3-.3.7-.5,1.2l.2.2ZM95.5,104.2h.2c4.4-4.9,8.8-9.8,13.3-14.8h-6.6c-2,0-2.8-1.1-2-2.9,1.7-4.1,3.5-8.2,5.3-12.3,0-.3.2-.6.4-1.1h-7.7c-.6,0-.9.2-1.2.8-2.4,5.7-4.7,11.4-7.1,17,0,.3-.2.6-.3,1h5.5c1.8,0,2.4.8,2.1,2.5-.6,3.3-1.2,6.6-1.8,9.9h-.1Z"/>
    </g>
  </g>
</svg>