<?xml version="1.0" encoding="UTF-8"?>
<svg id="Layer_1" xmlns="http://www.w3.org/2000/svg" version="1.1" viewBox="0 0 200 153">
  <!-- Generator: Adobe Illustrator 29.2.1, SVG Export Plug-In . SVG Version: 2.1.0 Build 116)  -->
  <defs>
    <style>
      .st0 {
        fill: #75b523;
      }
    </style>
  </defs>
  <g id="Layer_11" data-name="Layer_1">
    <path class="st0" d="M5.4,39.1c.8-1.8,2.3-2.4,4.2-2.4h8.3c.1-2.2,0-4.2.3-6.1,1-7.1,7.5-11.1,14.3-9,.4.1.8.2,1.2.3,0-2.3,0-4.5.5-6.7,1.3-6.1,7-10.5,12.8-10,6.9.6,11.8,5.5,12,12.2.2,5.7,0,11.3,0,17v2.2h12.6c-.2-4.3.4-8.3,4.3-10.9,3.4-2.2,7.3-2,11.5.8,4.2-3.1,8.4-3.2,12.6,0,4.2-3.2,8.4-3.2,12.6,0,3.7-2.7,7.5-3.3,11.5-.8,4,2.5,4.6,6.6,4.3,10.9h12.5v-18.8c.1-6.7,4.7-11.7,11.2-12.5,6.9-.9,13.3,4.4,13.8,11.3.1,1.7,0,3.4,0,5.4,4.8-1.9,8.9-1.3,12.5,2.1s3.5,7.9,3.4,12.6h8.4c1.9,0,3.4.6,4.2,2.4v20.7c-1,1.7-2.5,2.3-4.5,2.2-2.6,0-5.3,0-8.2,0,0,2.1.2,4,0,5.9-1,7.4-7.5,11.4-14.6,9.2-.3,0-.6,0-1.1-.2v4.3c-.3,7-5.7,12.4-12.6,12.3-6.9,0-12.4-5.3-12.5-12.4-.1-5.6,0-11.2,0-16.8v-2.1h-9.5c0,2.3-.2,4.7,0,7,.6,6.6-1.1,12.5-5.7,17.3-3,3.2-3.9,6.8-3.8,11.2.3,14.7,0,33.3,0,48v2.3h-6.2c0-.6,0-1.3,0-1.9v-54.4c0-1.4.6-2.9,1.4-4,1.8-2.7,3.8-5.2,5.7-7.7,1.5-2,2.3-4.2,2.3-6.7v-11h-26.1c-.9,0-1.9.4-2.6.9-2,1.5-4.2,2.2-6.7,2.1-1.8,0-3.6,0-5.4.4,3.2,1.7,6.6,3.1,9.7,5.1,3.2,2.1,5.1,5.3,6.6,8.7,1.5,3.4,2.6,7,2.4,11.1h-5.4c-.3,0-.8-.9-.9-1.5-.5-4.3-2.1-8.1-4.7-11.4-1.7-2.1-3.8-3.4-6.3-4.3-1.8-.6-3.5-1.2-5.2-1.7-1.8-.6-2.6-1.8-2.6-3.6v-5c0-2.8,1.2-3.9,3.9-4h8.3c2.1,0,3.4-1.2,3.5-3,0-1.6-1.3-3.1-3.2-3.2-6.2,0-12.4,0-18.7,0,0,.6,0,1.2,0,1.7v17.2c0,3.3,1,6.1,3.5,8.4,2.6,2.5,5,5.1,7.6,7.6,1.1,1.1,1.6,2.2,1.6,3.8v55.2c0,.5,0,1,0,1.5h-6.2v-54.4c0-1.3-.4-2.3-1.3-3.2-2.1-2-4.1-4.1-6.2-6.1-3.5-3.4-5.1-7.6-5.1-12.4v-9.6h-6.3v1.9c0,5.7,0,11.3,0,17-.3,9.8-10.5,15.5-18.9,10.7-3.8-2.2-5.9-5.5-6.2-9.9,0-1.6,0-3.3,0-5.2-4.8,1.7-9,1.2-12.5-2.2-3.6-3.4-3.4-7.9-3.3-12.5h-8.1c-2,0-3.5-.5-4.5-2.2v-21.1ZM40.1,49.2h0v31.2c0,3.1,1.4,5.3,4,6.3,4.2,1.7,8.6-1.4,8.6-6.2V18.5c0-2.4-.7-4.5-2.8-5.9s-4.3-1.5-6.5-.3-3.3,3.1-3.3,5.6v31.4h0ZM159.9,49.4v-31.4c0-4.4-3.8-7.4-8-6.2-2.9.8-4.6,3.3-4.6,6.8v62.7c.2,2.6,1.5,4.5,3.9,5.5,4.2,1.7,8.6-1.3,8.6-6.1v-31.2h.1ZM24.3,49.4v17.5c.2,2.2,1.9,4,3.9,4.3,2.1.3,4.1-.6,5-2.6.4-.9.6-2,.6-3v-32.7c0-.8,0-1.6-.3-2.4-1-3.3-5.1-4.5-7.5-2.1s-1.6,2.7-1.6,4.1c-.2,5.6,0,11.2,0,16.8h0ZM175.7,49.3v-16.8c0-3.1-2.1-5.3-4.8-5.2-2.6,0-4.7,2.2-4.7,5.1v34c0,1.4.9,2.9,1.9,4,1.2,1.3,3,1.4,4.6.7,2-.9,2.9-2.6,2.9-4.7v-17h.1ZM100.2,55.5h40.7v-12.4h-12.4c-.7,7.9-9,12.1-15.9,7.1-5,2.9-6.8,3-12,.3-.3-.2-1,0-1.2,0-.2.2-.3.8-.2,1.2.3,1.2.7,2.4,1,3.7h0ZM71.5,43.2h-12.5v12.3h6.2v-4.5c0-3.9.9-4.8,4.7-4.9h2c-.2-1.1-.3-1.9-.5-2.8h.1ZM84.2,38.4v-4.8c0-1.9-1.2-3.1-2.9-3.2-1.8,0-3.2,1.1-3.3,3,0,3.2,0,6.4,0,9.6,0,1.9,1.6,3.1,3.3,3,1.7,0,2.8-1.3,2.9-3.2v-4.4ZM122.1,38.4v-4.4c0-2.2-1.3-3.5-3.2-3.5s-3,1.3-3,3.5v8.7c0,2.1,1.2,3.4,3,3.5,1.9,0,3.2-1.3,3.3-3.5v-4.2h-.1ZM96.8,38.3h0v-4.8c-.2-1.8-1.3-2.9-2.9-3-1.7,0-3.2,1-3.2,2.8,0,3.3,0,6.6,0,10,0,1.9,1.5,2.9,3.2,2.8,1.6,0,2.8-1.2,2.9-3,0-1.6,0-3.2,0-4.8ZM103.2,38.1h0v4.8c0,1.9,1.3,3.1,3,3.1s3.1-1.1,3.2-3.1c0-3.2,0-6.4,0-9.6,0-1.9-1.4-3-3.1-3s-2.9,1.2-3,3.1v4.6h0ZM17.9,43.2h-6.1v12.4h6.1s0-12.4,0-12.4ZM188.2,55.5v-12.4h-6v12.4h6Z"/>
  </g>
</svg>