<?xml version="1.0" encoding="UTF-8"?>
<svg id="Layer_1" xmlns="http://www.w3.org/2000/svg" version="1.1" viewBox="0 0 200 153">
  <!-- Generator: Adobe Illustrator 29.2.1, SVG Export Plug-In . SVG Version: 2.1.0 Build 116)  -->
  <defs>
    <style>
      .st0 {
        fill: #75b523;
      }
    </style>
  </defs>
  <g id="Layer_11" data-name="Layer_1">
    <g>
      <path class="st0" d="M51.3,53.2l26.2,15.8-.6,33.3c.7-.3,1.4-.7,2-1.2,5.6-5.6,13.2-8.7,21.1-8.7s9.4,1.1,13.5,3.2l.5-26.2,17.6,7.5c2.5,1.1,5.5.3,7.2-1.8l16.1-20.2c2.1-2.7,1.7-6.5-1-8.7-2.7-2.1-6.5-1.7-8.7,1l-13.2,16.6-17.8-7.5c-1.9-.7-3.6-.9-4.9-.9-7.8,0-31.1,0-31.1,0l-17.6-10.6.5-25c0-3.4-2.6-6.2-6-6.3h0c-3.4,0-6.1,2.7-6.2,6l-.5,28.5c0,2.2,1.1,4.3,3,5.4h0Z"/>
      <circle class="st0" cx="96.4" cy="35.8" r="14.3"/>
      <path class="st0" d="M143.2,86.8c-.5.9-.4,2,.4,2.8.9.8,2.3.8,3.1,0,4.4-4.7,9.4-8.4,16.4-10.8,5.5-2,11.6-2.5,12.5-2.3h.1c.4,0,.9,0,1.3-.2,3.3-.8,5.4-4.1,4.7-7.4s-4-5.4-7.4-4.7c-3.8.7-10.1,3.2-15.2,6.4-7.4,4.5-12.3,10-16,16.3h0Z"/>
      <path class="st0" d="M130.7,41.4c1,.4,2.4,0,2.9-1.4,5.8-14.6,18.5-21.8,22.1-22.6h.1c.4-.2.8-.4,1.2-.6,2.8-1.9,3.6-5.8,1.7-8.6-1.7-2.6-5.2-3.8-8.9-1.5-1.6,1.1-3.4,2.5-4.9,3.9-8.2,7.5-13.8,16.9-15.6,28.4-.2,1,.4,2,1.4,2.4Z"/>
      <path class="st0" d="M31.1,67h0c.4,0,7.8,1.5,15.7,7.5,5.7,4.4,8.8,8.7,11.6,14.3h0c.5,1.1,1.6,1.6,2.7,1.3,1.2-.4,2-1.7,1.6-2.9-2-7-4.6-12.5-10.2-18.9-7.7-8.6-16.8-13-19.2-13.5-3.4-.7-6.6,1.5-7.3,4.8-.7,3.3,1.4,6.6,4.9,7.3h.2Z"/>
      <path class="st0" d="M42.2,114.2c2.2-2.2,5-3.3,8.1-3.3s5.9,1.2,8.1,3.3c4.5,4.5,10.4,7,16.8,7s12.3-2.5,16.8-7,5-3.3,8.1-3.3,5.9,1.2,8.1,3.3c9.3,9.3,24.3,9.3,33.6,0,2.2-2.2,5-3.3,8.1-3.3s5.9,1.2,8.1,3.3c9.3,9.3,24.3,9.3,33.6,0,2.4-2.4,2.4-6.3,0-8.7-2.4-2.4-6.3-2.4-8.7,0-2.2,2.2-5,3.3-8.1,3.3s-5.9-1.2-8.1-3.3c-9.3-9.3-24.3-9.3-33.6,0-4.4,4.4-11.7,4.4-16.1,0s-10.4-7-16.8-7-12.3,2.5-16.8,7-5,3.3-8.1,3.3-5.9-1.2-8.1-3.3c-9.3-9.3-24.3-9.3-33.6,0-2.2,2.2-5,3.3-8.1,3.3s-5.9-1.2-8.1-3.3c-2.4-2.4-6.3-2.4-8.7,0-2.4,2.4-2.4,6.3,0,8.7,9.3,9.3,24.3,9.3,33.6,0h-.1Z"/>
      <path class="st0" d="M182.6,131.8c-2.2,2.2-5,3.3-8.1,3.3s-5.9-1.2-8.1-3.3c-9.3-9.3-24.3-9.3-33.6,0s-11.7,4.4-16.1,0c-4.5-4.5-10.4-7-16.8-7s-12.3,2.5-16.8,7-5,3.3-8.1,3.3-5.9-1.2-8.1-3.3c-9.3-9.3-24.3-9.3-33.6,0-2.2,2.2-5,3.3-8.1,3.3s-5.9-1.2-8.1-3.3c-2.4-2.4-6.3-2.4-8.7,0-2.4,2.4-2.4,6.3,0,8.7,9.3,9.3,24.3,9.3,33.6,0,2.2-2.2,5-3.3,8.1-3.3s5.9,1.2,8.1,3.3c4.5,4.5,10.4,7,16.8,7s12.3-2.5,16.8-7,5-3.3,8.1-3.3,5.9,1.2,8.1,3.3c9.3,9.3,24.3,9.3,33.6,0,2.2-2.2,5-3.3,8.1-3.3s5.9,1.2,8.1,3.3c9.3,9.3,24.3,9.3,33.6,0s2.4-6.3,0-8.7-6.3-2.4-8.7,0h0Z"/>
    </g>
  </g>
</svg>