<?xml version="1.0" encoding="UTF-8"?>
<svg id="Layer_1" xmlns="http://www.w3.org/2000/svg" version="1.1" viewBox="0 0 200 153">
  <!-- Generator: Adobe Illustrator 29.2.1, SVG Export Plug-In . SVG Version: 2.1.0 Build 116)  -->
  <defs>
    <style>
      .st0 {
        fill: #75b523;
        stroke: #75b523;
        stroke-miterlimit: 10;
      }
    </style>
  </defs>
  <g id="Layer_11" data-name="Layer_1">
    <g>
      <path class="st0" d="M95.4,4.4h9.2c.7,0,1.4.2,2.1.2h75.4c6.5.4,12.1,5.1,13.6,11.3,1.5,6.6-1.4,13.4-7.2,16.6-1,.5-1.3,1.1-1.3,2.3v96h5.6c2.2,0,3.3,1.1,3.3,3.4v10.7c0,2.9-.9,3.8-3.9,3.8H7.5c-2.7,0-3.7-1-3.7-3.6v-10.7c0-2.5,1-3.5,3.5-3.5h5.5V34.7c0-1.1-.4-1.6-1.3-2.1-5.5-3-8.6-9.5-7.5-15.5,1.5-7.6,7.3-12.5,15.1-12.5h74.1c.7,0,1.4,0,2.1-.2h0ZM181.1,130.7V34.6H19v96.1h54v-38.9c0-18.3,17.1-31.1,34.7-26.1,11.4,3.2,19.3,13.9,19.3,26v38.9h54.1ZM100,28.6h79.9c.8,0,1.7,0,2.5-.1,5.5-.7,9.1-6.3,7.5-11.5-1.3-4.2-4.7-6.5-9.6-6.5H18.7c-4.5.2-8.3,3.6-8.8,7.9-.6,5.8,3.5,10.2,9.6,10.2,26.8,0,53.7,0,80.5,0ZM9.9,142.7h180.2v-5.9H9.9v5.9ZM96.9,130.7v-59.8c-10,1.4-17.9,10.3-17.9,20.2v38.3c0,.4,0,.8,0,1.3h17.8ZM103.2,70.8v59.8h17.9v-40c0-9.7-8.1-18.4-17.9-19.7h0Z"/>
      <path class="st0" d="M133.1,94.5v-17c0-2.9.9-3.8,3.9-3.8h34.3c2.8,0,3.8,1,3.8,3.7v34.5c0,2.8-1,3.8-3.8,3.8h-34.5c-2.7,0-3.7-1-3.7-3.7v-17.5ZM157.2,91.7h9c2.1,0,3.1-1,3.1-3v-9h-12.1v12ZM157.2,97.6v12h12v-11.1c0-.3-.6-.8-.9-.8h-11.1ZM151,91.6v-11.9h-11.9v11.9h11.9ZM151.1,97.7h-12v11.9h12v-11.9Z"/>
      <path class="st0" d="M45.9,115.6h-17.3c-2.6,0-3.6-1-3.6-3.6v-34.6c0-2.8,1-3.7,3.8-3.8h34.3c2.9,0,3.9.9,3.9,3.8v34.5c0,2.7-1,3.7-3.7,3.7h-17.4ZM30.8,79.6v11c0,1,.5,1.1,1.3,1h10.7v-12.1h-12ZM42.8,109.6v-12h-11.2c-.3,0-.8.5-.8.8v11.2h12ZM60.9,97.7h-11.9v11.9h11.9v-11.9ZM60.9,79.7h-12v11.8h12v-11.8Z"/>
      <path class="st0" d="M100,58.5h-14.7c-5.3,0-9.3-3.9-9.3-9s4-8.9,9.2-8.9h29.5c5.3,0,9.2,3.8,9.2,8.9s-4,9-9.3,9h-14.7.1ZM99.9,52.6h14.7c2.1,0,3.6-1.3,3.6-3s-1.5-3.1-3.6-3.1h-28.9c-.7,0-1.5,0-2.1.4-1.2.6-1.8,1.7-1.6,3.1.2,1.4,1.5,2.5,3,2.5h14.9Z"/>
    </g>
  </g>
</svg>