<?xml version="1.0" encoding="UTF-8"?>
<svg id="Layer_1" xmlns="http://www.w3.org/2000/svg" version="1.1" viewBox="0 0 200 153">
  <!-- Generator: Adobe Illustrator 29.2.1, SVG Export Plug-In . SVG Version: 2.1.0 Build 116)  -->
  <defs>
    <style>
      .st0 {
        fill: #75b523;
        stroke: #75b523;
        stroke-miterlimit: 10;
      }
    </style>
  </defs>
  <g id="Layer_11" data-name="Layer_1">
    <g>
      <path class="st0" d="M4.3,92.7v47.2c0,5.4,4.4,9.8,9.8,9.8h5.8c5.4,0,9.8-4.4,9.8-9.8v-9.3h32.5c1.4,3.7,4.9,6.4,9,6.4h6.2c5.3,0,9.7-4.3,9.7-9.7v-41.3h66.9c12.5,0,22.3-18.2,22.3-41.4s-.6-11.1-1.8-16.2c7.6-.7,13.2-3.3,16.9-7.6,5.5-6.6,4-14.7,4-15h0c-.3-1.5-1.6-2.6-3.1-2.6h-127.9c-13.2,2.1-21.7,18.3-21.7,41.4s7.4,37,19,40.7v19.8h-31.9v-12.5c0-5.4-4.4-9.8-9.8-9.8h-5.8c-5.4,0-9.8,4.4-9.8,9.8h0ZM177.3,9.6c-5,2.5-10.6,5.7-15.4,9.3-.3.2-.6.4-.8.6-.6.5-1.2.9-1.8,1.4-.7.6-1.4,1.2-2,1.8-.3.2-.5.5-.8.7-.4.4-.8.8-1.1,1.2,0,0-.1,0-.2.2-.1.2-.3.3-.4.5-.1.1-.3.3-.4.4-.1.1-.2.3-.3.4-.2.3-.5.6-.7.9-.4.5-.8,1.1-1.1,1.6h0c0,.1-3.4.1-3.4.1h-20.2c-.8,0-1.7.3-2.3.9l-11.8,11.8H49.2c.7-20.1,8.4-30.5,16-31.9h112.1ZM151.3,35.1h2.7c.4,0,.9,0,1.3-.3,0,0,.2,0,.2,0,.4-.2.7-.5,1-.8h0c.4,1.8.7,4,.7,6.5,0,6.7-1.9,11.1-3.2,13-1.3-1.9-3.2-6.3-3.2-13s.1-3.6.4-5.3h.1ZM172.9,22.3c-.3-.8-.6-1.6-.9-2.4,5.9-3.5,12.3-6.6,17.1-8.7-.3,1.8-1,3.8-2.5,5.6-2.7,3.2-7.3,5-13.7,5.4h0ZM154.1,79.7c-7.4,0-15.9-15.3-15.9-35s.2-6.4.6-9.6h6.1c-.2,1.7-.4,3.5-.4,5.3,0,10.7,4.5,20.2,9.6,20.2s9.6-9.4,9.6-20.2-1.2-10-2.3-12.7c1.4-1.4,3.1-2.7,5-4.2,0,0,.1,0,.2-.1,2.2,6.1,3.5,13.5,3.5,21.3,0,20.7-8.4,35-15.9,35h-.1ZM87.2,79.7h-22c-7.6-1.4-15.3-11.7-16-31.9h66.7c.8,0,1.7-.3,2.3-.9l11.8-11.8h1.9v9.6c0,1.7,0,3.3.2,4.9,0,.5,0,1,.1,1.5,0,1.1.2,2.3.4,3.4,0,.5.1,1,.2,1.5.2,1.2.4,2.4.7,3.6,0,.3.1.6.2.9.3,1.5.7,2.9,1.1,4.2.1.3.2.7.3,1,.3,1,.7,2,1.1,3,.2.4.3.8.5,1.2.4.9.8,1.8,1.2,2.7.2.3.3.6.5.9.6,1.1,1.2,2.2,1.9,3.2,0,0,.2.3.3.4.6.8,1.2,1.6,1.8,2.4,0,0,.2.2.3.3h-55.5ZM68.1,127.4v-41.3h12.7v41.3c0,1.8-1.5,3.3-3.3,3.3h-6.2c-1.8,0-3.3-1.5-3.3-3.3h.1ZM29.8,124.3v-12.7h31.9v12.7s-31.9,0-31.9,0ZM10.7,92.7c0-1.9,1.6-3.5,3.5-3.5h5.8c1.9,0,3.5,1.6,3.5,3.5v47.3c0,1.9-1.6,3.5-3.5,3.5h-5.8c-1.9,0-3.5-1.6-3.5-3.5v-47.2h0Z"/>
      <circle class="st0" cx="93.5" cy="67" r="3.2"/>
      <circle class="st0" cx="106.3" cy="67" r="3.2"/>
      <circle class="st0" cx="119" cy="67" r="3.2"/>
    </g>
  </g>
</svg>