<?xml version="1.0" encoding="UTF-8"?>
<svg id="Layer_1" xmlns="http://www.w3.org/2000/svg" version="1.1" viewBox="0 0 200 153">
  <!-- Generator: Adobe Illustrator 29.2.1, SVG Export Plug-In . SVG Version: 2.1.0 Build 116)  -->
  <defs>
    <style>
      .st0 {
        fill: #75b523;
        stroke: #75b523;
        stroke-miterlimit: 10;
        stroke-width: 3px;
      }
    </style>
  </defs>
  <g id="Layer_11" data-name="Layer_1">
    <g>
      <path class="st0" d="M141.4,58.5c-7.9,7.7-20.8,7.1-27.5-3.1-8.5,8.3-21,8.9-30.4,1-7.7,7.7-15.7,9.1-22.8,3.8-6.4-4.7-8.2-13.4-4.4-20.5,3.3-6,11.6-10.7,21.2-6.4.2-.3.4-.7.5-1.1,4.6-10.9,16.1-16.1,27.3-12.4,1.1.4,1.6.2,2.2-.8,5-9.3,15.1-14.2,25.2-12.5,10.2,1.8,18.1,9.7,19.7,20,.2,1.2.6,1.4,1.7,1.5,9.9.6,17.2,8.6,16.7,18.4-.4,9.5-8.6,16.9-18.3,16.5-4.2-.2-7.9-1.8-11.2-4.7v.3ZM82.6,49.8c4.1,5.8,9.5,8.9,16.5,8.6,7.1-.3,12-4.2,15.8-10.5,1.8,6.4,5.2,10.9,11.6,12,6.4,1.1,11.2-1.7,14.6-6.9.2,0,.4,0,.4.2.4.5.9,1,1.3,1.5,3.7,4.2,8.3,5.7,13.8,4.5,6.6-1.5,11.2-7.9,10.7-14.7-.5-6.7-6.1-12.2-12.6-12.7-1.4-.1-1.9.3-2.2,1.7-.3,2.3-1.1,4.6-1.7,7.1-1.4-.6-2.4-1.1-3.4-1.6,5.6-14.9-3.9-25.7-12.9-28.2-5.4-1.5-10.6-1.1-15.5,1.6-6.6,3.6-10,9.4-10.7,16.9-1.3,0-2.5-.1-3.8-.2.2-1.4.2-2.6.6-3.6.5-1.4,0-1.9-1.3-2.3-10.2-3.4-21.1,2.9-23.3,13.4-.2.9-.4,1.8-.7,3-3.3-2.9-6.6-4.7-10.8-4.3-4.2.4-7.5,2.5-9.6,6.2-3.4,5.9-1.2,13.5,4.8,16.7,7,3.8,13.4.9,18.3-8.5h0Z"/>
      <path class="st0" d="M149.7,105.4c1.7-3.7,3.5-7.2,5.1-10.8,2-4.6,5.4-6.8,10.5-6.6,4.1,0,8.3,0,12.4,0h2v3.6h-15c-3.1,0-5.2,1.3-6.5,4.1-5.5,11.7-11,23.3-16.4,35-1.4,3-3.3,4.2-6.6,4.1h-67.3c-3.1,0-5-1.2-6.3-4-5.4-11.7-11-23.3-16.4-35-1.4-2.9-3.5-4.4-6.8-4.3-4.7,0-9.5,0-14.3,0v-3.6h15.3c3.8,0,6.7,1.8,8.4,5.2,1.8,3.5,3.4,7,5.1,10.5.2.5.5.9.7,1.4,5.6-2.8,10.4-1.8,14.9,2.4,3.1,2.9,7.4,2.7,10.7-.4,3.1-3,6.8-4.4,11-3.2,1.9.6,3.9,1.7,5.4,3,3.9,3.3,8,3.5,11.7,0,4.8-4.5,11.4-4.6,16.2,0,3.7,3.5,7.9,3.6,11.7,0,4.3-4,8.6-4.5,14.6-1.6h0ZM55.2,108.7c3.4,7.2,6.7,14.3,10.1,21.3.3.6,1.4,1.1,2.1,1.1,3.5.1,7,0,10.4,0h57.6c1.5,0,2.3-.4,2.9-1.8.8-2,1.9-4,2.8-6,2.3-4.8,4.5-9.6,6.8-14.5-.3-.3-.5-.5-.8-.6-3.2-1.9-6.8-1.4-9.9,1.5-4.8,4.4-11.3,4.6-15.9.3-4.2-3.9-8-3.9-12.3,0-4.5,4.1-11,4.1-15.5,0-4.4-3.9-8-3.9-12.3,0-2.9,2.6-6.3,3.6-10.2,2.8-2.4-.5-4.4-1.8-6.2-3.5-2.9-2.7-6.6-3-9.8-.7h.2Z"/>
      <path class="st0" d="M179.7,99.8v3.6c-3.2,0-6.4,0-9.5,0-1.9,0-2.7.6-3.5,2.3-5.4,11.6-10.9,23.1-16.3,34.6-2,4.3-5.4,6.4-10.1,6.4H63.4c-4.8,0-8.1-2.1-10.1-6.4-5.5-11.7-11-23.3-16.4-35-.7-1.4-1.5-1.9-3-1.9-3.2,0-6.5,0-9.8,0v-3.6h9.5c.9,0,1.8,0,2.7,0,1.9.4,2.9,1.7,3.7,3.4,5.4,11.5,10.9,22.9,16.2,34.5,1.7,3.8,4.2,5.3,8.4,5.3,25.1-.1,50.3,0,75.4,0s5.9-1.4,7.5-4.7c5.4-11.7,11-23.3,16.4-35,1.2-2.5,2.9-3.7,5.6-3.6,3.4,0,6.8,0,10.3,0h-.1Z"/>
      <path class="st0" d="M55.3,21.7c0,9.8-10.3,16.3-19.1,12-1-.5-1.6-.5-2.6,0-3.3,1.9-6.7,1.7-9.8-.6-2.9-2.2-4-5.3-3.2-8.9.9-3.8,3.4-6,7.1-6.7,1.1-.2,1.6-.7,2-1.6,2.7-5.8,9.1-8.9,15.2-7.4,6,1.5,10.3,6.9,10.3,13.1h.1ZM33.2,22.8c-2.9-2.3-5.8-2.4-7.9-.2-1.9,2-2,5.2,0,7.1.9.8,2.2,1.5,3.5,1.6,2.5.4,4-1.4,5.4-3.1,6,3.9,9.9,4.2,13.8,1,3.3-2.7,4.5-7.2,3-11.2-1.5-3.8-5.4-6.5-9.4-6.2-4.1.2-7.8,2.9-8.6,6.3,1,.8,2,1.6,3.1,2.5-1.1.9-1.9,1.5-2.8,2.2h0Z"/>
      <path class="st0" d="M131,91.8c.6-2.3,1.2-4.3,1.8-6.5,1.1.3,2.2.5,3.4.9-.6,2.2-1.1,4.3-1.7,6.6-1.1-.3-2.2-.6-3.5-.9h0Z"/>
      <path class="st0" d="M76,77.3c-1.3-.3-2.3-.6-3.4-1,.6-2.1,1.1-4.2,1.7-6.5,1.2.3,2.3.6,3.5.9-.6,2.2-1.2,4.3-1.8,6.5h0Z"/>
      <path class="st0" d="M92.8,92.7c-1.2-.3-2.2-.6-3.4-.9.6-2.2,1.1-4.2,1.7-6.6,1.2.3,2.2.6,3.5.9-.6,2.3-1.1,4.4-1.7,6.6h0Z"/>
      <path class="st0" d="M96.9,77.3c-1.2-.3-2.2-.6-3.5-.9.6-2.2,1.1-4.2,1.8-6.5,1.2.3,2.2.6,3.5.9-.6,2.2-1.2,4.3-1.8,6.6h0Z"/>
      <path class="st0" d="M70.2,85.3c2.3.5,3.2,1.7,2.7,3.8-.3,1.1-.6,2.3-1,3.6-1.1-.3-2.2-.6-3.4-.9.6-2.2,1.1-4.3,1.7-6.5Z"/>
      <path class="st0" d="M113.6,92.7c-1.2-.3-2.2-.6-3.5-.9.6-2.2,1.1-4.3,1.7-6.5,1.1.3,2.1.5,3.4.9-.6,2.2-1.1,4.4-1.7,6.6h0Z"/>
      <path class="st0" d="M116.1,69.8c1.3.4,2.3.7,3.5,1-.6,2.2-1.2,4.3-1.8,6.5-1.2-.3-2.2-.6-3.4-.9.6-2.2,1.1-4.2,1.8-6.6h0Z"/>
      <path class="st0" d="M135.2,76.4c.6-2.2,1.2-4.3,1.8-6.5,1.2.3,2.2.6,3.5.9-.6,2.2-1.2,4.3-1.8,6.5-1.2-.3-2.2-.6-3.5-.9Z"/>
      <path class="st0" d="M124.4,119.9c.7.9,1.4,1.7,2,2.5-2.5,2.6-7.7,2.9-11,.6-3-2-5.6-2-8.6,0-3.5,2.2-7.2,2.2-10.7,0-2.9-1.9-5.5-1.9-8.3,0-3.5,2.3-7.9,2.2-11.3-.3.7-.9,1.3-1.8,2.1-2.7,3,1.6,5.6,1.1,8.3-.6,3.4-2.2,7.1-2,10.5.2,2.8,1.8,5.4,1.8,8.2,0,3.4-2.3,7.1-2.4,10.5-.3,2.8,1.7,5.3,2.2,8.3.6Z"/>
    </g>
  </g>
</svg>