<?xml version="1.0" encoding="UTF-8"?>
<svg id="Layer_1" xmlns="http://www.w3.org/2000/svg" version="1.1" viewBox="0 0 200 153">
  <!-- Generator: Adobe Illustrator 29.2.1, SVG Export Plug-In . SVG Version: 2.1.0 Build 116)  -->
  <defs>
    <style>
      .st0 {
        fill: #75b523;
      }
    </style>
  </defs>
  <g id="Layer_11" data-name="Layer_1">
    <g>
      <path class="st0" d="M25.3,44.8c1.4-.4,2.7-.7,4.1-1.1,2.2-.6,4.5-1.2,6.7-1.9,2.3-.7,4.5-1.5,6.7-2.4,2.8-1.1,5.7-2.3,8.4-3.6,3.7-1.9,7.3-3.9,10.9-6,4.8-2.8,9.3-5.9,13.6-9.4,2.9-2.4,5.7-4.9,8.6-7.3.9-.8,1.8-1.7,2.6-2.6.2-.2.5-.5.8-.1,1.1,1.1,2.2,2.2,3.4,3.3-.6.7-1.2,1.3-1.7,1.9-1.1,1.4-2.2,2.9-3.4,4.3-.6.8-1.4,1.5-2.1,2.1-6.4,5.4-13.2,10.3-20.5,14.5-3.8,2.2-7.7,4.2-11.6,6-3.6,1.7-7.3,3.1-11,4.5-2.7,1-5.6,1.7-8.4,2.5-.5,0-.7.4-.6.8.1,2.1.2,4.2.3,6.2,0,2,.2,3.9.5,5.9.4,3.3.9,6.6,1.5,9.8.6,3,1.2,6,2,9,.6,2.4,1.4,4.8,2.2,7.1,1,2.7,1.9,5.4,3.1,8,1.5,3.2,3,6.4,4.7,9.4,2.5,4.6,5.6,8.8,8.9,12.8,6.2,7.4,13.3,13.6,21.6,18.6,3.3,2,6.8,3.7,10.2,5.6.2.1.7.1.9,0,7.2-3.4,13.9-7.5,20-12.5,7.7-6.4,14.2-13.8,19.4-22.4,1.2-1.9,2.2-3.9,3.3-5.9.3-.5.5-.7,1.1-.8,1.8,0,3.7-.4,5.5-.6h1.2c-.5,1.2-1,2.2-1.5,3.2-2.7,5.3-5.8,10.5-9.5,15.2-4.6,6-9.7,11.4-15.6,16.2-4.7,3.9-9.7,7.2-15.1,10.1-2.5,1.3-5.1,2.5-7.6,3.8,0,0-.2.1-.2.2h-3.3s-.2-.2-.3-.2c-2.9-1.4-5.8-2.8-8.6-4.4-6.9-3.9-13.3-8.5-19.1-14-4.3-4.1-8.2-8.5-11.7-13.3-2.7-3.7-5.1-7.6-7.2-11.7-1.4-2.7-2.7-5.5-3.9-8.3-1.3-3.2-2.5-6.5-3.6-9.8-.8-2.5-1.6-5-2.1-7.6-.8-3.5-1.5-7-2-10.5-.6-4-1.1-7.9-1.4-11.9-.3-3.6-.2-7.3-.3-11,0-.3-.1-.6-.2-.9v-1.2l.3.4Z"/>
      <path class="st0" d="M174.7,55.3c-.1.4-.3.7-.4,1.1-.6,4-1.7,7.9-3.4,11.6-1.8,4-4,7.6-6.8,11-3.4,4.1-7.4,7.4-12,10.1-2.9,1.7-6,3.1-9.3,4.1-4,1.2-8,2.1-12.2,2-2.8,0-5.6,0-8.4-.4-3.3-.4-6.5-1.3-9.6-2.5-4-1.5-7.8-3.7-11.2-6.2l-.4-.4c.3,0,.5,0,.7,0h9c1.7,0,3.2.4,4.8,1,2.1.7,4.3,1.4,6.5,1.7,2.5.4,5,.5,7.6.6,3.6,0,7.1-.6,10.5-1.6,5-1.5,9.5-3.8,13.5-7.1,5-4,8.8-8.9,11.4-14.7,2.5-5.5,3.6-11.3,3.4-17.4-.2-6.2-1.8-12.1-4.9-17.6-3.5-6.3-8.4-11.4-14.6-15.1-3.1-1.8-6.3-3.2-9.8-4.1-4-1.1-8.1-1.6-12.2-1.4-2.8.1-5.6.6-8.3,1.3-2.5.7-5,1.6-7.4,2.8-3.3,1.7-6.4,3.7-9.1,6.3-3.2,2.9-5.9,6.3-7.9,10.1-.8,1.5-1.5,3-2.2,4.6-.3.6-.5.9-1.3.8-1.6-.2-3.2,0-4.8,0s-1,0-.7-1c2.5-7.3,6.6-13.6,12.2-18.8,3.5-3.3,7.4-6,11.7-7.9,2.7-1.2,5.5-2.2,8.3-3,3.1-.9,6.3-1.3,9.6-1.3s6.1,0,9.2.5c4.1.7,8.1,1.9,11.9,3.7,7.6,3.5,13.7,8.8,18.5,15.6,2.4,3.5,4.3,7.2,5.6,11.3.9,2.6,1.6,5.2,1.9,7.9,0,.4.2.7.4,1v11.7l.2-.2Z"/>
      <path class="st0" d="M87.1,134.5c-2.3-1.3-4.6-2.6-6.9-4-5.7-3.6-10.9-7.8-15.6-12.7-3.8-3.9-7.1-8.2-10-12.9-2.7-4.2-5-8.6-6.9-13.3-1.4-3.4-2.5-7-3.6-10.5-1.3-3.9-2.1-8-2.8-12-.7-4.3-1.3-8.6-1.5-13,0-.5,0-.8.7-1,2-.7,4.1-1.3,6.1-2.1,2.7-1,5.3-2.1,7.9-3.3,4.5-2,8.9-4.3,13.2-6.9h.3c0,.9.3,1.7.4,2.5.3,2.5.6,5,.9,7.5.4,3.1.8,6.1,1.1,9.2,0,.4,0,1-.4,1.3-2.3,2.6-4.7,5.1-6.9,7.7-.5.6-.6,1.5-.8,2.3-.6,3.6-1.3,7.1-1.9,10.7-.3,1.7-.3,1.4,1.1,1.4h24.7c.7,0,1.1.4,1.1,1.1v47.6s-.2,0-.2.1v.3Z"/>
      <path class="st0" d="M99.1,70.3h-5.3c-.6,0-.7-.2-.6-.8.3-1.3.4-2.7.8-4,.2-.8.9-1.4,1.3-2.1,3.3-4.8,6.6-9.6,9.9-14.4,1.5-2.1,2.9-4.3,4.4-6.3.2-.3.6-.5,1-.5h5.5c.6,0,.8.2.7.8-.8,4-1.6,8-2.3,11.9-.6,3-1.1,6-1.7,9,0,.7,0,.9.8.8h2.1c.5,0,.7.2.6.7-.3,1.4-.5,2.9-.8,4.3,0,.2-.4.5-.7.5h-2.4c-.6,0-.9.2-1,.8-.4,2.4-.9,4.7-1.3,7.1v.3c0,.7-.4,1.1-1.2,1h-4.5q-.9,0-.7-.9c.5-2.4,1-4.9,1.5-7.3.2-.9,0-.9-.8-.9h-5.3ZM100.3,64.8h5.6c.2,0,.5-.4.5-.6.4-1.6.6-3.2,1-4.8.5-2.1,1-4.3,1.5-6.4,0-.6.3-1.2.5-1.9h0c-2.9,4.5-5.8,9-8.9,13.7h0Z"/>
      <path class="st0" d="M75,49.3c-.2-1.1-.3-2.2-.4-3.2,0-.4,0-.9,0-1.3-.3-.8,0-1.2.8-1.5,2.6-1.1,5.3-1.7,8.1-1.5,4.2.3,7.3,2.5,7.9,7.3.5,3.9-.7,7.3-2.6,10.6-1.7,2.9-3.8,5.4-6.1,7.8-1.6,1.6-3.1,3.3-4.6,4.9,0,0,0,.2-.3.5h9.7q1.1,0,.9,1.1c-.3,1.6-.6,3.2-.9,4.8,0,.5-.3.6-.8.6h-18.1c-.7,0-.9-.2-.8-.9.3-1.3.4-2.5.7-3.8,0-.3.2-.6.4-.8,2.5-2.8,5.1-5.6,7.6-8.5,2.4-2.7,4.8-5.5,6.5-8.8.8-1.5,1.3-3.1,1.3-4.8s-1.5-3.9-3.9-4c-1.6,0-3.2.3-4.6,1.1-.2,0-.3.2-.6.3h-.1Z"/>
      <path class="st0" d="M127.4,35.4v-7.5c0-.8.4-1.3,1.1-1.6.7-.3,1.3-.1,1.7.4.3.4.5,1,.5,1.6v14.9c0,.2.2.6.4.7,1.8.7,3,2,3.7,3.8,0,.2.6.4.9.4h13.2c.9,0,1.6.7,1.6,1.5s-.7,1.6-1.6,1.6h-13c-.6,0-1,0-1.3.8-1,2.4-3.2,3.7-6,3.6-2.3,0-4.6-1.8-5.3-4.1-.8-2.9.3-6,3.2-7.3.7-.3,1-.7,1-1.5v-7.2h0ZM126.2,49.4c0,1.5,1.2,2.8,2.8,2.9,1.5,0,2.8-1.2,2.8-2.8s-1.3-2.9-2.7-2.9-2.8,1.3-2.8,2.8h-.1Z"/>
      <path class="st0" d="M113.5,24.6c-.4-.3-.9-.5-1.2-.9-.7-1-1.2-2-1.8-3-.4-.7,0-1.6.5-2.1.7-.5,1.6-.5,2.1.3.8,1.1,1.5,2.2,2,3.5.5,1-.4,2.1-1.6,2.2Z"/>
      <path class="st0" d="M160.3,32.5c-.3.4-.5,1-.9,1.2-1,.7-2,1.2-3,1.8-.8.4-1.7,0-2.1-.6-.5-.7-.4-1.6.4-2.1,1-.7,2.1-1.3,3.2-1.8,1.1-.5,2.3.3,2.4,1.5h0Z"/>
      <path class="st0" d="M127.2,17c0-.8.2-1.6.4-2.4.2-.6.9-.9,1.5-.8.7.1,1.4.5,1.4,1.3v3.9c0,.8-.8,1.3-1.7,1.3s-1.5-.6-1.5-1.5v-1.9h-.1Z"/>
      <path class="st0" d="M102.2,35.7s-.3,0-.5,0c-1-.6-2-1.1-3-1.8-.9-.6-1-1.5-.6-2.3.4-.7,1.5-.9,2.3-.5.9.5,1.9,1,2.8,1.6.7.4.9,1.2.7,1.9-.2.8-.7,1.1-1.7,1.1h0Z"/>
      <path class="st0" d="M142.8,22.6s0-.3.1-.5c.6-1,1.2-2.1,1.8-3.1.5-.7,1.4-.9,2.1-.5.8.4,1.1,1.3.7,2.1-.5,1.1-1.1,2.1-1.8,3.1-.4.7-1.2.9-1.9.7-.6-.2-1.1-.9-1.1-1.8h0Z"/>
      <path class="st0" d="M144.4,74.3c.4.3,1,.4,1.2.8.7,1,1.3,2.1,1.8,3.2.3.7,0,1.6-.6,1.9-.7.4-1.6.3-2-.3-.7-1.1-1.5-2.2-2-3.4-.5-1,.4-2.1,1.6-2.2Z"/>
      <path class="st0" d="M130.6,81.8v1.6c0,1.1-.7,1.8-1.7,1.7-.9,0-1.6-.8-1.6-1.7v-3.1c0-1,.7-1.7,1.6-1.7s1.6.6,1.7,1.6v1.6Z"/>
      <path class="st0" d="M160.1,66.4c0,1.2-1.3,2-2.5,1.4-.9-.5-1.8-1-2.7-1.5-1-.6-1.3-1.5-.8-2.3.5-.9,1.5-1.1,2.5-.5.8.5,1.6.9,2.4,1.4.6.3,1,.8,1,1.5h.1Z"/>
      <path class="st0" d="M161.4,51h-1.7c-.9,0-1.5-.6-1.5-1.5s.5-1.6,1.4-1.7h3.7c.8,0,1.4.8,1.4,1.6s-.6,1.5-1.5,1.5h-1.8,0Z"/>
    </g>
  </g>
</svg>