<?xml version="1.0" encoding="UTF-8"?>
<svg id="Layer_1" xmlns="http://www.w3.org/2000/svg" version="1.1" viewBox="0 0 200 153">
  <!-- Generator: Adobe Illustrator 29.2.1, SVG Export Plug-In . SVG Version: 2.1.0 Build 116)  -->
  <defs>
    <style>
      .st0 {
        fill: #75b523;
        stroke: #75b523;
        stroke-miterlimit: 10;
        stroke-width: 2.3px;
      }
    </style>
  </defs>
  <g id="Layer_11" data-name="Layer_1">
    <g>
      <path class="st0" d="M171.2,142.4c-1.7,4.3-3.2,5.3-7.9,5.3h-53.1c-2.5,0-4.7-.7-5.9-2.9-.7-1.3-1-2.9-1-4.4v-52.3c0,0-.3-.2-.4-.3-.2.3-.3.6-.5.9-12.2,14.6-24.4,29.3-36.5,43.9-.5.6-.8,1.5-.8,2.2v10c0,2.1-.7,2.8-2.9,2.8h-8.6c-1.5,0-2.8-.1-3.4-1.8-6.1,2.4-12.5,1.6-18.8,1.7-1.6,0-2.4-.8-2.4-2.4v-9.3c0-2.5.6-3.1,3.1-3.1s6.9-.1,10.3,0c3.8.2,5.8-2.1,7.6-4.9.2-.3.2-.9.2-1.3v-31.8c0-.9-.2-1.4-1.2-1.7-12.5-4.1-20.4-15.3-20.1-28.4.2-6.1,2.2-11.6,6-16.4.6-.7.6-1.3.4-2.1-4.5-14.5,6.5-29.8,21.6-30.3,11.6-.4,22.3,8.9,23.7,20.4.4,3.5,0,6.8-.8,10.2,0,.5,0,1.3.3,1.7,2,2.7,3.7,5.7,4.7,8.9.4,1.4,0,2.6-1.2,3s-2.2-.2-2.7-1.7c-1.1-3.3-2.8-6.4-5.2-8.9-.9-1-.8-2-.3-3.1,3.1-8.1.5-17.1-6.3-22.3-11-8.5-27-2.6-30.1,11.1-.9,3.8-.7,7.6.8,11.2.6,1.4.3,2.4-.6,3.5-11,12.6-6.2,32.4,9.3,38.7.5.2,1,.4,1.7.6v-9.3c0-.4-.5-.8-.9-1.1-2.8-1.9-5.7-3.8-8.5-5.8-.6-.4-1.1-1.5-1-2.2,0-.6.9-1.3,1.6-1.6.5-.2,1.3,0,1.8.5,1.9,1.2,3.8,2.5,5.7,3.8.4.2.8.5,1.3.8v-27.5c0-.7-.4-1.6-.9-2.2-1.1-1.3-2.4-2.4-3.6-3.7-1-1-1-2.2,0-3.1.8-.8,2.1-.8,3.1.2s.7,1,1.1,1.4c.2,0,.3-.2.5-.3v-3.7c0-1.2,0-2.4.3-3.6.8-3.2,4-5.5,7.1-5.3,3.8.2,6.5,2.5,7.1,6.1.2,1,.2,2,.2,3v3.8c.7-.6,1.1-1,1.5-1.4,1.1-1,2.3-1.1,3.2-.2.9.9.8,2-.3,3.2-1.2,1.3-2.5,2.5-3.7,3.8-.3.4-.7.9-.7,1.4v27.5s0,.2,0,.4c.4-.2.7-.4,1-.6,2-1.3,4-2.7,6-4,1.2-.8,2.4-.5,3.1.5s.4,2.2-.8,3c-2.8,1.9-5.6,3.8-8.4,5.6-.7.5-1.1,1-1.1,1.9v8.6c3.9-1.2,7-3.1,9.7-5.8,4.3-4.3,6.7-9.5,7.3-15.5.2-1.9,1-2.8,2.3-2.7,1.4,0,2,1.2,1.9,3-.9,11.6-8.8,21.5-19.9,25-.9.3-1.3.6-1.3,1.7v15.1c.6-.7.9-1,1.3-1.4,8-9.6,16-19.1,23.9-28.7,5.9-7.1,13.3-10.7,22.5-10.7h.8s.2,0,.4,0V30.7h-6.2c-.9,0-1.9.1-2.8-.1-.7-.2-1.5-.7-1.8-1.2-.2-.5.3-1.3.6-1.9.2-.3.5-.5.8-.8,7.1-5.6,14.1-11.3,21.2-16.9,2.8-2.2,5.8-3.8,9.4-4.2.1,0,.2,0,.4-.2h3.6c.2,0,.3.2.5.2,3.4.4,6.4,1.8,9,3.9,5.6,4.5,11.1,8.9,16.7,13.4,2,1.6,4.1,3.3,6.1,5v1.4c-.6,1.1-1.6,1.5-2.9,1.5h-7.8v15.8c0,1.5-1,2.4-2.2,2.4s-1.9-1-2-2.4v-15.7h-38.2v48.8h6.3v-19.4c0-6.7,5.7-12.2,12.4-12.3,7.3,0,12.9,5.5,13,13v18.7h6.4v-24c.2-1.1.8-1.6,1.9-1.7,1,0,1.8.4,2.1,1.5.1.5.1,1.1.1,1.6v22.7h4.2c2,0,3.7.7,4.9,2.2.7.9,1,1.9,1.6,2.9v57.6h.1ZM167,113.6v-26.7c0-2.4-.6-3-3-3h-53.5c-2.5,0-3,.5-3,3v53.5c0,2.4.6,3.1,3,3.1h53.5c2.4,0,3.1-.6,3.1-3v-26.8h-.1ZM113.8,73.3c-8.1-.3-14.8,2.3-19.9,8.5-7,8.4-14.1,16.9-21.1,25.3-7.1,8.5-14.2,17.1-21.3,25.6-1.6,2-3.6,3.5-6.2,4-1.3.3-2.6.3-3.9.3h-8.3v6.3c3.4,0,6.7.2,10,0,4.2-.3,8.1-1.8,11-4.9,3.2-3.4,6.3-6.8,9.3-10.3,12.7-15,25.4-29.9,38.1-45,2-2.3,4.2-3.5,7.2-3.3,1.7,0,3.4,0,5.1,0v-6.5h0ZM54.2,122.3h.3c1.8-2.2,3.6-4.3,5.4-6.5.4-.6.7-1.4.7-2.1V34.9c0-.6,0-1.2-.2-1.8-.4-1.6-1.7-2.5-3.3-2.4-1.5,0-2.7,1.1-2.9,2.7v88.9ZM162.9,26.5c-.5-.4-.7-.7-1-.9-5.4-4.3-10.7-8.6-16.2-12.9-5.4-4.3-11.8-4.2-17.2.1-4.4,3.5-8.8,7-13.2,10.6-1.2,1-2.4,1.9-3.9,3.1,0,0,51.5,0,51.5,0ZM145.6,79.7v-19c0-.7,0-1.5-.3-2.2-1.1-4.2-5-6.9-9.3-6.4-4.2.5-7.4,4.1-7.5,8.5v19.1h17.1ZM60.7,138.8c-1.9,1.6-3.6,3.1-5.4,4.6h5.4v-4.6Z"/>
      <path class="st0" d="M128.6,39.3c0,1.1-1.1,2.1-2.2,2-1.1,0-2-1-2-2.1s1-2.1,2.2-2c1.1,0,2,1,2,2.1Z"/>
      <path class="st0" d="M149.9,39.2c0,1.2-.9,2.1-2.1,2.1s-2-.9-2-2,.9-2.1,2.1-2.1,2,.9,2,2Z"/>
      <path class="st0" d="M155.2,113.2c0,7.5-5,14.6-12,17-1.7.6-2.9.2-3.4-1.1-.4-1.2.2-2.2,2-2.8,5.7-2.1,9.6-7.9,9.3-13.8-.3-6.1-4.5-11.2-10.5-12.7-7.1-1.8-14.4,2.3-16.6,9.3-2.1,6.9,1.7,14.5,8.5,17.1.3,0,.5.2.8.3,1.3.5,1.8,1.5,1.4,2.6-.4,1.1-1.5,1.8-2.7,1.3-2.1-1-4.3-1.9-6.2-3.4-5.8-4.7-8-12.7-5.7-19.6,2.4-7.1,9-12,16.6-12.3,10-.4,18.5,7.9,18.5,18h0Z"/>
      <path class="st0" d="M116,90.4c1.1,0,2,.9,2,2s-1,2.1-2.1,2.1-2.1-1-2-2.2c0-1.1.9-2,2.1-1.9Z"/>
      <path class="st0" d="M160.5,92.4c0,1.1-1,2.1-2.1,2.1s-2-.9-2-2.1.8-2,2-2.1c1.2,0,2.2.9,2.2,2h0Z"/>
      <path class="st0" d="M113.9,134.9c0-1.1.9-2,2-2s2.1.9,2.1,2.1-.9,2-2,2-2.1-.9-2.1-2.1Z"/>
      <path class="st0" d="M158.4,137c-1.1,0-2-.8-2-2s.8-2.1,2-2.1,2,.9,2.1,2c0,1.2-.9,2.1-2.1,2.1Z"/>
    </g>
  </g>
</svg>