<?xml version="1.0" encoding="UTF-8"?>
<svg id="Layer_1" xmlns="http://www.w3.org/2000/svg" version="1.1" viewBox="0 0 200 153">
  <!-- Generator: Adobe Illustrator 29.2.1, SVG Export Plug-In . SVG Version: 2.1.0 Build 116)  -->
  <defs>
    <style>
      .st0 {
        fill: #75b523;
        stroke: #75b523;
        stroke-miterlimit: 10;
        stroke-width: 2px;
      }
    </style>
  </defs>
  <g id="Layer_11" data-name="Layer_1">
    <g>
      <path class="st0" d="M175.4,66.4v72.8c0,.1-.1.3-.1.4-.8,4.4-3.4,7.2-7.7,8.6-.5.2-1,.3-1.5.4H34c0,0-.2-.1-.3-.1-5.4-.9-9-5.2-9-10.6V53.6c0-1.2.5-2,1.6-2.5,11-5,22.6-7.8,34.7-8.3,8.4-.4,16.7.3,24.9,2,10.6,2.1,20.7,5.6,30.1,10.7,1.4.7,2.7,1.2,4.3,1,1.5-.2,2.9,0,4.4,0,0-.4,0-.6,0-.9.2-2.1.8-4,1.8-5.8.3-.5.3-.8,0-1.3-4.5-6.7-1.5-15.9,6.2-18.6.9-.3,1.8-.5,2.8-.7,0-.4.2-.9.3-1.3,1.4-5.8,6.6-9.9,12.2-9.7,6.2.2,11,4.4,12.1,10.4,0,.5.2.6.7.7,9.3,1.2,13.9,11.8,8.5,19.4-.3.5-.3.8,0,1.3,2.2,4.2,2.3,8.5.4,12.8,0,.2-.2.4-.3.7,1.2.4,2.3.8,3.5,1.1,1.1.3,2,.8,2.5,1.9h-.1ZM68,109.2h4.5c12.3-.4,24.5.2,36.6,2.8,7.2,1.5,14.2,3.8,20.8,7.4,10,5.5,17.4,13.2,21.3,24,.2.5.5.5.9.5h12.5c3.5,0,6.1-2.6,6.1-6.1v-42.4c0-.6-.2-.8-.7-1-7.5-2.8-15-5.2-22.7-7.1-11.7-2.9-23.5-4.7-35.5-5.3-8.6-.4-17.2,0-25.8.9-.6,0-1.2.2-1.8.3,1.9,5,1.5,9.6-2.1,13.5-3.8,4.2-8.6,5-14,3.2v9.3h0ZM29.4,119v18.9c0,.5,0,1.1.2,1.6.7,2.7,3,4.4,5.9,4.4h110.8v-.2c0-.2-.2-.4-.2-.6-2.5-5.8-6.2-10.7-11.1-14.7-5.6-4.6-12-7.6-18.9-9.7-8.7-2.7-17.6-3.9-26.6-4.5-11.2-.7-22.5-.3-33.6.9-6.7.7-13.4,1.8-20.1,2.8-2.1.3-4.2.8-6.3,1.2h-.1ZM109.5,57.3c-.3,0-.4-.2-.6-.3-17.6-8-35.9-11.4-55.2-9-8.2,1-16.1,3.2-23.7,6.4-.5.2-.7.5-.7,1.1v40.9c.2,0,.3,0,.4,0,5.1-3,10.4-5.6,15.8-7.8.2,0,.4-.4.5-.7.2-1.8.6-3.5,1.5-5.1.2-.4.2-.7,0-1.1-3.9-6.3-.6-14.4,6.6-16.1.7-.2,1-.5,1.2-1.2,1-4.5,4.6-7.6,9.4-8.2,4.2-.5,8.5,1.9,10.5,5.8.5,1,.8,2.2,1.3,3.4,1.9.3,3.7,1,5.3,2.3.4.3.7.3,1.1,0,6.8-4.5,14.2-7.3,22.1-9.1,1.5-.3,3-.6,4.7-.9l-.2-.3ZM150.2,50.4c.4-.2.6-.4.8-.5,2.1-1.4,4.3-2.7,6.4-4.1,1.4-.9,3.1-.4,3.6,1.1.4,1.1,0,2.2-1.1,2.9-3,1.9-6.1,3.9-9.2,5.8-.4.3-.6.6-.6,1.1v6.7c0,.6.2,1,.7,1.3,3.9,2.7,9.2,2.3,12.6-1.1,3.4-3.5,3.8-8.8.9-12.7-1.2-1.6-1.1-2.5.3-3.9,2.6-2.5,3.1-6.3,1.3-9.4-1.7-2.7-4.1-4-7.3-3.8-2.1,0-3-.8-3-2.9s0-1.9-.4-2.8c-1.1-3.7-4.9-5.9-8.6-5.2-3.8.7-6.5,4-6.4,8,0,2.1-.9,3-3,3s-2.3.2-3.3.6c-5.1,2.1-6.3,8.6-2.5,12.5.6.6,1.1,1.3.9,2.3-.1.6-.5,1.1-.9,1.6-2.9,3.8-2.7,9.2.7,12.7,3.3,3.5,8.7,4,12.6,1.3.5-.4.8-.8.8-1.5v-2.3c0-.5-.2-.8-.6-1-3-1.9-6.1-3.8-9.1-5.8-.5-.3-.9-.7-1.2-1.2-.5-.9-.2-2,.6-2.7s1.9-.8,2.9-.2c2.2,1.4,4.4,2.8,6.6,4.2.2,0,.4.2.7.4v-7.2c0-1.4,1-2.4,2.3-2.4s2.3,1,2.3,2.4v2.9h.2ZM145.5,69.8c-.3,0-.5.2-.7.2-7.6,3.1-16.2-.6-19.1-8.3-.3-.7-.6-.9-1.3-.9-5.1,0-10.1.4-15.1,1.3-7.4,1.3-14.4,3.5-20.9,7.2-1.2.7-2.3,1.4-3.5,2.1.9,2.2,1,4.4.6,6.7,20.3-2.3,40.2-.8,60,3.8v-12.2h0ZM67.9,82.4c.4-.2.6-.3.8-.5,1.6-1,3.1-2,4.7-3,1.4-.9,3.1-.2,3.6,1.3.3,1,0,2-1.2,2.7-2.4,1.6-4.9,3.1-7.3,4.6-.4.3-.6.5-.6,1v5c0,.5.2.8.6,1.1,3.1,2,7.2,1.6,9.8-1,2.7-2.7,2.9-6.9.6-10-1.1-1.4-1-2.4.2-3.7,1.1-1,1.7-2.3,1.8-3.8.3-3.9-2.6-6.7-6.5-6.5-2,0-3-.8-2.8-2.8.2-4-3.6-7.2-7.5-6.1-2.8.7-4.6,3.2-4.5,6.1,0,2-.8,2.9-2.8,2.8h-1.4c-2.3.5-4,1.9-4.6,4.1-.7,2.3-.2,4.3,1.5,6,.6.6,1,1.4.8,2.2,0,.5-.4,1-.8,1.4-2.2,2.9-2.2,6.8,0,9.6,2.2,2.8,6,3.6,9.3,2.2,1.1-.5,1.9-1.1,1.6-2.5v-.5c0-.5,0-.9-.6-1.1-2.4-1.5-4.8-3-7.3-4.6-1.3-.8-1.6-2.2-.9-3.4.7-1.1,2.1-1.4,3.4-.6,1.5,1,3.1,1.9,4.6,2.9.2,0,.5.3.7.4v-5.3c0-1.4,1.1-2.4,2.4-2.4s2.2,1,2.3,2.4v2ZM63.2,109.6v-9.8c-3.3,1.2-6.4,1.3-9.6,0s-5.4-3.7-6.7-6.8h-.3c-5.8,2.4-11.5,5.2-16.8,8.6-.4.3-.5.5-.5,1v11.6c11.2-2.2,22.4-3.8,33.8-4.6h.1ZM150.3,69.9v12.7c0,.5.2.6.6.7,6.5,1.7,12.9,3.7,19.2,6,.2,0,.4,0,.6.2v-20.3c0-.2-.3-.5-.5-.6-1.1-.4-2.2-.7-3.2-1-.5-.2-.9,0-1.3.3-3.4,2.8-7.3,3.8-11.7,3-1.2-.2-2.4-.7-3.7-1h0Z"/>
      <path class="st0" d="M63.4,4.5c.5,0,1.1.2,1.6.4,3.6,1.1,6,3.3,7.3,6.8.2.5.4.7.9.7,2.8.1,5.2,1.2,7.3,3.3,0-.2.3-.4.4-.5,2.5-3.3,5.8-4.9,9.9-4.4,4.3.5,7.1,3,8.6,7,0,.4.3.6.8.6,5.3.2,9.7,4.3,10.1,9.4.4,5.5-3.1,10.3-8.5,11.3-.7,0-1.4.2-2.2.2h-20.3c-4,0-7.1-1.7-9.2-5.1-.3-.4-.6-.5-1.1-.5h-17.4c-4.4,0-8.2-2.6-9.9-6.6-2.8-6.9,1.9-14.3,9.4-14.7.5,0,.8-.2.9-.7,1.4-3.9,4.2-6.3,8.4-7.1,0,0,.3,0,.4,0h2.6ZM89.4,34.6h10.2c2.4,0,4.3-1.1,5.3-3.3,1-2.1.8-4.2-.7-6-1.5-1.9-3.5-2.5-5.8-2.1-2,.4-3.2-.4-3.3-2.5-.2-3-2.8-5.3-5.8-5.3s-5.5,2.4-5.7,5.3c0,2.1-1.3,3-3.3,2.5-3.7-.8-7.2,2-7.1,5.8,0,3.2,2.6,5.6,6,5.6h10.2ZM68.6,28.9c.3-5.4,3-8.7,8.1-10.4-.3-.2-.6-.5-.8-.6-1.5-.9-3-1-4.6-.7-1.7.4-2.9-.5-3.1-2.3,0-.3,0-.6,0-.9-.4-2.8-3.2-5.1-6.1-4.9-3,.1-5.6,2.6-5.7,5.5,0,2.2-1.2,3-3.4,2.5-4.2-.9-8.1,3-7,7.2.7,2.8,3,4.6,5.9,4.6h16.8Z"/>
    </g>
  </g>
</svg>