<?xml version="1.0" encoding="UTF-8"?>
<svg id="Layer_1" xmlns="http://www.w3.org/2000/svg" version="1.1" viewBox="0 0 150 150">
  <!-- Generator: Adobe Illustrator 29.7.0, SVG Export Plug-In . SVG Version: 2.1.1 Build 138)  -->
  <defs>
    <style>
      .st0 {
        fill: #75b523;
      }
    </style>
  </defs>
  <path class="st0" d="M136.2,61.4c-.1-.3-.3-.8-.4-1.1,0,0,0-.2-.1-.2-.1-.3-.2-.5-.3-.8,0-.2-.2-.4-.3-.6,0-.1-.1-.3-.2-.4,0-.2-.2-.4-.3-.6,0-.1-.1-.3-.2-.4-.1-.2-.2-.4-.3-.6,0-.1-.1-.2-.2-.3-.1-.2-.2-.5-.4-.8,0,0,0-.2-.1-.3-.1-.2-.3-.5-.4-.8,0,0,0-.1-.1-.2-.2-.3-.3-.6-.5-.9h0c-.2-.3-.4-.6-.5-.9h0c-.2-.2-.3-.5-.5-.8,0,0,0-.1-.1-.2-.2-.2-.3-.5-.5-.8h0c-.2-.4-.4-.8-.6-1h0c-.2-.3-.4-.5-.6-.9h0c-.2-.3-.4-.5-.8-.9h0c-4-4.7-8.9-8.6-14.6-11.4l1-2c.4-1,0-2.1-1-2.6s-2.1,0-2.6,1l-1,2c-10.8-4.4-22.7-4.5-33.8-.3-11.6,4.4-20.8,13.1-26,24.3-.4,1,0,2.1,1,2.6l38.5,17.4-11,24.2h-32.2l-8.5-16.7c-.3-.6-1.1-1.1-1.7-1.1h-12.1c-.6,0-1.3.3-1.7,1-.3.5-.4,1.3,0,1.9l13.4,27.3c.3.6,1.1,1.1,1.8,1.1h1.2l-3.5,7.9c-.3.6-.2,1.3.1,1.9.3.5,1,.9,1.6.9h9.1c.8,0,1.5-.4,1.8-1.1l4.7-9.5h19.8l-3.2,7.1v.2c-13.4.3-24.3,4.6-31.6,8.5-9.4,5.1-14.8,10.6-15,10.8-.8.9-.8,2.1,0,2.9.9.8,2.1.8,2.9,0,0,0,5.1-5.4,14.2-10.1,8.2-4.4,21.3-9.2,37.4-7.6,31,3.2,42.8,17.5,42.9,17.6.4.5,1,.8,1.6.8s1-.1,1.3-.4c.9-.8,1.1-2,.3-2.9-.5-.6-13-15.8-45.8-19.1-1.4-.1-2.7-.2-4-.3l3.3-7.4h13.2l4.7,9.5c.3.6,1.1,1.1,1.8,1.1h9.1c.6,0,1.3-.3,1.6-.9s.4-1.3.1-1.9l-3.5-7.9h.9c1.1,0,1.9-.9,1.9-1.9v-9.5c0-1.1-.9-1.9-1.9-1.9h-21.8l10.4-22.6,39.1,17.6c.2.1.5.2.9.2s.4,0,.8-.1c.5-.2.9-.5,1.1-1.1,5.1-11.4,5.5-24,1.1-35.6l-.3-.4ZM44.9,123.2h-4.8l3-6.8h5.1l-3.3,6.8ZM102.6,123.2h-4.8l-3.3-6.8h5.1s3,6.8,3,6.8ZM102.8,112.5H38.8l-11.5-23.4h7.7l8.5,16.7c.3.6,1.1,1.1,1.7,1.1h57.6v5.6h0ZM111.9,84.5l-16.9-7.6-3.6-1.6-16.5-7.4c5.1-12,12.7-20.5,22.3-25.1,4.3-2,8-2.9,10.5-3.2,1-.1,1.7-.2,2.3-.2.3.4.8,1.1,1.3,1.8,1.4,2.1,3.2,5.6,4.5,10.1,2.8,10.3,1.5,21.4-3.9,33.2h.1Z"/>
  <g>
    <path class="st0" d="M27,39c7.1,0,12.9-5.8,12.9-12.9s-5.8-12.9-12.9-12.9-12.9,5.8-12.9,12.9,5.8,12.9,12.9,12.9ZM27,17.3c4.9,0,8.9,4,8.9,8.9s-4,8.9-8.9,8.9-8.9-4-8.9-8.9,4-8.9,8.9-8.9Z"/>
    <path class="st0" d="M27,11.5c1.1,0,1.9-.9,1.9-1.9v-4.7c0-1.1-.9-1.9-1.9-1.9s-1.9.9-1.9,1.9v4.7c0,1.1.9,1.9,1.9,1.9Z"/>
    <path class="st0" d="M27,41.2c-1.1,0-1.9.9-1.9,1.9v4.4c0,1.1.9,1.9,1.9,1.9s1.9-.9,1.9-1.9v-4.4c0-1.1-.9-1.9-1.9-1.9Z"/>
    <path class="st0" d="M41.6,26.5c0,1.1.9,1.9,1.9,1.9h4.4c1.1,0,1.9-.9,1.9-1.9s-.9-1.9-1.9-1.9h-4.4c-1.1,0-1.9.9-1.9,1.9Z"/>
    <path class="st0" d="M5.2,28.5h4.7c1.1,0,1.9-.9,1.9-1.9s-.9-1.9-1.9-1.9h-4.7c-1.1,0-1.9.9-1.9,1.9s.9,1.9,1.9,1.9Z"/>
    <path class="st0" d="M40.2,36.9c-.8-.8-2-.8-2.8,0-.8.8-.8,2,0,2.8l3.2,3.2c.4.4.9.5,1.4.5s1-.2,1.4-.5c.8-.8.8-2,0-2.8l-3.2-3.2Z"/>
    <path class="st0" d="M13.4,15.8c.4.4.9.5,1.4.5s1-.2,1.4-.5c.8-.8.8-2,0-2.8l-3.2-3.2c-.8-.8-2-.8-2.8,0-.8.8-.8,2,0,2.8,0,0,3.2,3.2,3.2,3.2Z"/>
    <path class="st0" d="M38.7,16.4c.5,0,1-.2,1.4-.5l3.2-3.2c.8-.8.8-2,0-2.8-.8-.8-2-.8-2.8,0l-3.2,3.2c-.8.8-.8,2,0,2.8.4.4.9.5,1.4.5Z"/>
    <path class="st0" d="M13.1,42.9l3.2-3.2c.8-.8.8-2,0-2.8-.8-.8-2-.8-2.8,0l-3.2,3.2c-.8.8-.8,2,0,2.8.4.4.9.5,1.4.5s1-.2,1.4-.5Z"/>
  </g>
  <path class="st0" d="M144.1,65.3c-1.1.2-1.8,1.2-1.7,2.3,0,.4.1.8.2,1.1,0,.5.1.9.2,1.8,0,1.1,1,1.8,1.9,1.8s0,0,.1,0c1.1,0,1.9-1.1,1.8-2.1,0-1.2-.1-1.6-.2-2.3,0-.2,0-.5-.1-1-.2-1.1-1.2-1.8-2.3-1.6h0Z"/>
  <path class="st0" d="M137.3,51.9c.6,1.2,1.3,2.4,1.8,3.6.6,1.4,1.2,2.9,1.6,4.5.2.9,1.1,1.4,1.9,1.4s.4,0,.5,0c1.1-.3,1.6-1.4,1.3-2.5-.5-1.7-1.1-3.3-1.8-4.9-.5-1.4-1.3-2.7-1.9-4-1.9-3.4-4.2-6.5-6.9-9.1-.8-.8-2-.8-2.8,0-.8.8-.8,2,0,2.8,2.4,2.4,4.5,5.1,6.1,8.3h.1Z"/>
</svg>