<?xml version="1.0" encoding="UTF-8"?>
<svg id="Layer_1" xmlns="http://www.w3.org/2000/svg" version="1.1" viewBox="0 0 200 200">
  <!-- Generator: Adobe Illustrator 29.2.1, SVG Export Plug-In . SVG Version: 2.1.0 Build 116)  -->
  <defs>
    <style>
      .st0 {
        fill: #75b523;
        fill-rule: evenodd;
      }
    </style>
  </defs>
  <path class="st0" d="M26.8,188h-3.8c-5.6-1.2-9.8-5.3-11-11v-4.1c.8-2.5,1.6-4.5,3.3-6.5,7.6-9.3,19-17.7,27-26.9,2.9-1.9,5.2-.4,6.5-1.1,1.9-.9,6.2-6.9,8.4-8.4,2.5-1.7,5.2.8,3.9,3.2-.9,1.7-8.4,7.8-8.5,8.7.4.9,5.1,5.7,5.6,5.6l26.2-26.1c.3-.4,0-.6-.2-.9-.4-.6-4.9-5-5.3-4.9l-10.5,10.4c-3.2.9-5-1.6-2.9-4.3,2.8-3.8,8.6-7.5,11.3-11.4,3.5-4.9,5.6-13.1,8.7-18.4-.6-3.9-2.3-7.6-3.1-11.5-3.1-14.8.5-30.3,10.2-41.9,1.5-1.7,5-6.2,7-2.5s-1.7,4.1-3,5.8c-16.2,20.4-13,56.7,12.7,67.3,27.2,11.3,45.4.7,63-19.7,32.4-37.6-14.2-92.3-57-65.2-2.6,1.6-4.6,4-6.8,5.6-3.6,2.5-6.3-.9-3.6-3.9,8.4-9.2,24.5-14.4,36.8-13.8,38.6,2.1,59.9,47,36.5,78.1-12.9,17.1-30.9,30.6-53.4,28.4s-11-2.7-16.5-4.1l-18.4,8.4-28.2,28.1c-.7,1.2.1,2.2,0,3.7s-1.1,2.9-2,3.9c-9.8,9.2-18.5,19.7-29,28.1l-4,1.3ZM102,111.7l-.4-.8c-5.6-3-9.6-7.8-13.2-12.9l-6,12.9,6.7,6.7,12.9-5.8ZM45.9,143.4l-5,4.6,11.2,11.2c.9-1.2,4.9-4,4.5-5.5s-8.1-8.7-9.1-9.4-.9-.8-1.5-.8ZM37,151.9c-.4.1-4.7,4.5-4.7,4.9l11.1,10.8c.8-1,4.9-4.2,4.6-5.2s-8.9-8.3-10.1-10.2c-.3-.3-.6-.4-1-.3ZM28.4,160.5c-2.8,3.4-10.4,8.6-11.1,12.9-.9,5.1,3.2,9.7,8.3,9.4s10.1-8,13.9-11.2l-11.1-11.1Z"/>
  <path class="st0" d="M137.7,25.2c31.2-1.1,48.8,35.6,28.3,59.2-12.7,14.6-26.8,26.2-47.5,19.3-23.5-7.8-31.9-37.9-15.7-56.8,9.2-10.7,20.1-21.2,35-21.7ZM142.2,30.6c-2.9-.5-6.2-.3-9.1.3s-1-.3-.8.5l4.6,4.6,5.3-5.5ZM148.3,32.1c-1.2.3-6.2,6.6-7.8,7.7l8.1,8.1,10.1-10.1c-1.4-1.6-8.7-6.1-10.4-5.6ZM126.6,33.2c-4.7,1.8-8.4,5.4-11.9,9l7.8,7.7,1-.3c1.2-1.8,9-8.2,9.4-9.5s0-.6-.3-1c-.4-.5-5.6-5.8-6-5.9ZM162.3,41.3l-10.1,10.1,8.1,8.1,7.7-8.1c-1.1-3.7-3-7.3-5.7-10.1ZM136.6,43.7l-9.9,10.1,7.7,7.7,10.1-10.1c0-.3-.2-.5-.3-.7-.5-.7-6-6.2-6.7-6.7s-.5-.4-1-.3ZM111.1,45.8c-3.5,3.4-7,6.9-8.8,11.5l6.4,6.7,10.4-10.1-8.1-8.1ZM148.3,55.4l-9.9,10.1,7.7,7.7,10.1-10.1c0-.3-.2-.5-.3-.7-.5-.7-6-6.2-6.7-6.7s-.5-.4-1-.3ZM122.8,57.4l-10.1,10.2c-.1.6,6.8,7,7.8,8l10.4-10.1-8.1-8.1ZM169.4,57.8l-5.5,5.3,4.6,4.6c.9,0,1.5-8.8.9-10ZM99.6,73.2l5.5-5.4-4.6-4.9c-1.3,3.3-.8,6.9-.9,10.3ZM160,67.1l-9.9,10.1,7.7,7.7c3.9-3,7-7,9-11.5,0-.4-5.4-5.7-5.9-6s-.5-.4-1-.3ZM134.5,69.1l-10.1,10.2c-.1.6,6.8,7,7.8,8l10.4-10.1-8.1-8.1ZM108.8,71.5l-7.7,7.8c-.2,1.3,4.3,9.8,5.6,10.1l10.1-9.8-8-8ZM146.2,80.8l-10.1,10.2c0,.5,6,6.5,6.4,6.6,1.2.3,6.5-3.6,7.7-4.6s2.7-2.9,4.1-4.1l-8.1-8.1ZM110.3,93.5c3.3,2.2,6.5,4.5,10.4,5.4l7.8-8-8-7.8-10.2,10.3ZM137.1,99.7c-.6-.8-4.4-4.9-4.9-4.8l-5.4,5.5c3.5,0,6.9.1,10.3-.7Z"/>
  <path class="st0" d="M170.7,147.1c11.9,2.7,13.2,18.3,1.8,23.3-9.3,4.1-21.9,6.7-30.7,11.2-1.1.6-1.5,1.5-2.4,2-12.6,8.4-28.1-3.1-23.4-17.5,1-3,3.1-4.5,4.3-7,4.5-9.4,6.8-22,11.5-31.1,5.2-10.2,20.3-8.1,23.1,2.8,10.3-2.9,19.2,6,15.8,16.3ZM126.1,158.4l3.3,1.3.6-.3,19.6-24.4c1.8-7.7-8.1-11.8-12.7-5.5l-10.8,28.8ZM157.9,135.5c-1.2.2-3,1.2-3.8,2l-20.3,25.4c-.3.4-.2.6,0,1,.5,1.1,3.7,3.2,4.5,4.5l25.6-20.4c5.4-4.8,1.1-13.6-5.9-12.5ZM143.3,175.6l27.6-10c8-3.6,4.2-15.7-4.3-13.3l-24.5,19.5,1.2,3.8ZM124.3,163.7c-1.1.2-2.3,2.1-2.8,3.1-4,8.4,3.9,17.3,12.6,14s5.3-2.8,3.5-5.7-9.5-9.9-10.6-10.7-1.5-.9-2.7-.6Z"/>
</svg>