<?xml version="1.0" encoding="UTF-8"?>
<svg id="Layer_1" xmlns="http://www.w3.org/2000/svg" version="1.1" xmlns:xlink="http://www.w3.org/1999/xlink" viewBox="0 0 152 150">
  <!-- Generator: Adobe Illustrator 29.2.1, SVG Export Plug-In . SVG Version: 2.1.0 Build 116)  -->
  <defs>
    <style>
      .st0 {
        fill: #75b523;
      }
    </style>
  </defs>
  <g>
    <path class="st0" d="M106,37.6c-2.5,4.3-.7,9,.9,13.3,3.8,10.3,11.1,21.8,7.6,32.6s-14.5,18.9-28.8,21.9l3.2-1.5c10.4-5.7,12.7-13,9.7-21.7-1.3-3.9-5.6-11.1-4.8-14.8s3-4.1.9-4.7-1.6.4-2.2.8c-.9.6-2.1.9-3,1.4-1.8,1-2.4,2.5-3.3,3.9-2.6-2.7-5.5-5.2-7.3-8.3-3.2-5.6-4.3-14.2-4.1-20.1s.8-1.8-.4-2.3-1.7-.1-2.1.4c-2.4,7.6-7.1,14.8-10,22.3s-1,2.3-1.2,3.4c-.4,1.9-.2,3.9-.8,5.9l-1.5-1.1c-1.9-1.1-4.4-1.3-6.8-1.7s-1.2-.6-2.2-.3c-1.7.3.1,2.8.4,3.6.4,1.4.4,2.8-.1,4.2-1-.5-2.4-1.6-3.7-1s-.1,2.3,0,3.3c.8,4.3-1.6,8.6-1.2,13,.5,6.3,5.9,12.4,14.1,15.4,0,.3-.4.1-.6,0-.6-.1-1.6-.4-2.2-.6-15.4-4.3-25.9-14.7-26.7-26.1s2.7-13.6,2.2-20.5-.5-1.8-.4-2.7c1.1.4,1.8,2.4,2.5,2.8s1.6.2,2.1-.2,1.3-2.9,1.5-3.6c1.2-3.8,1.2-7.3-.3-11.1,4.1.7,8.4.9,10.9,3.6s1,1.9,1.6,2.8,2.1.7,3,0c3.9-3.3,3-9.3,3.8-13.3s1.7-4.8,2.8-6.9c4.2-8.1,11.4-15.2,16.1-23.1.3,0,.2.3.2.5.5,9.4,2.4,15.2,7.3,23.9s6.1,11,10.1,15,2.8,2.7,3.3,2.9c.9.3,1.9.1,2.2-.6s.6-2.4,1-3.5c1-2.6,2.6-5.7,6.4-6.9Z"/>
    <path class="st0" d="M90.9,66.8c-.4,1.7,0,3.2.5,4.9,2.3,7.8,8.7,15.3,3.8,23.3-10.7,17.7-48.7,12.4-47.1-8.5.2-2.9,1.6-5.7,1.2-8.6,2.3.9,2.7-.6,3.2-1.8.8-2.2.9-4.5.3-6.7,2.1.3,4.1.6,5.2,2s.6,2.1,2.3,2,2.8-3,3.1-4c.7-3,.5-5.1,1.7-8.2,1.9-5,4.9-9.8,7-14.8l2.1,9.8c1.4,6.1,6.9,10.6,11.5,15.6.7.7,2.1.8,2.7,0,.5-1.7.8-3.7,2.6-5.1Z"/>
    <path class="st0" d="M143.1,112.8l-.2.5c-4.3,3.5-8,9.2-9.3,14.6s-.2,2.8-.8,2.8l-17.1-10.8-15.3-18.7v-.5c-.1,0,5.7-5,5.7-5l36.9,17.2Z"/>
    <path class="st0" d="M18.7,130.7c-.4-5-3.3-10.8-6.6-14.5s-2.2-1.9-3-2.8-.3-.2-.2-.5l32.2-15,7.2,5.6v.6s-14.2,17.2-14.2,17.2c-4.7,2.8-9.2,6.1-13.9,8.8s-1.4.9-1.6.7Z"/>
    <path class="st0" d="M73.2,127.2c4.4-.2,10.3.6,14.1,2.8,6.8,3.9,4.6,8.8-1.6,11.6-6,2.7-14.1,2.9-20.3.9s-11.7-7.1-4.1-11.9c3.4-2.2,7.9-3.1,11.9-3.3Z"/>
    <path class="st0" d="M83.5,109.1l6.4,10.6,1.1,9.1c-9.1-6-22.7-6-31.9-.2l1.6-8,6.3-10.3c.6-.5,1.3,0,2,0,4.9.1,9.7,0,14.5-1.2Z"/>
    <path class="st0" d="M113,121.3c-4.9-.2-9.7,2.6-12.1,6.9s-.5,1.3-.7,1.9,0,.4-.4.3l-13.4-22c4-1.6,7.9-3.3,11.5-5.7l15.2,18.6Z"/>
    <path class="st0" d="M63.9,109.4l-12.7,20.9c-1.9-5.4-7.3-9.4-13.1-9l13.3-16.2c3.8,2.2,8.2,3.7,12.5,4.4Z"/>
    <path class="st0" d="M110.8,124.3c11.8-1.6,8.6,13.4-1.5,14.2-10.4.8-7.5-13,1.5-14.2Z"/>
    <path class="st0" d="M37.1,124.3c4.4-.6,9.3,1.9,10.8,6.1,3.3,8.8-8.2,10.5-13.3,4.2-2.8-3.5-2.9-9.6,2.4-10.4Z"/>
    <path class="st0" d="M146.7,114.7c.4,0,.6.3.7.7.9,4.7-5.1,14.9-9.3,17.2-1,.6-1.8,1-1.9-.5-.6-4.8,5-14.2,9-16.6s1.2-.7,1.5-.7Z"/>
    <path class="st0" d="M5.2,114.7c.3,0,1.2.4,1.5.6,4,2.3,9.9,12.3,9.2,16.9s-.9.9-1.8.4c-4.3-2.2-10.3-12.5-9.4-17.3s.2-.6.5-.7Z"/>
  </g>
  <image width="742" height="1080" transform="translate(-8042 -8042)" xlink:href="bonfire-1.png"/>
</svg>