<?xml version="1.0" encoding="UTF-8"?>
<svg id="Layer_1" xmlns="http://www.w3.org/2000/svg" version="1.1" viewBox="0 0 150 150">
  <!-- Generator: Adobe Illustrator 29.2.1, SVG Export Plug-In . SVG Version: 2.1.0 Build 116)  -->
  <defs>
    <style>
      .st0 {
        fill: #75b523;
      }
    </style>
  </defs>
  <g>
    <path class="st0" d="M75.5,4.8l70.6,44.5v.7c-.3.3-.7.7-1.2.7H4.6l-.7-.5v-.9L74.5,4.8h1Z"/>
    <path class="st0" d="M146.1,140.6v4.7H3.9v-4.7l.3-.5h140.6c.5,0,.7,0,1,.5h.3Z"/>
    <path class="st0" d="M107.6,63.2v64.2h-.2c0,.2-64.9.2-64.9.2h-.2V63.3h65.4-.2,0ZM63.3,67.2h-16v16.2h16v-16.2ZM83.1,67.2h-16v16.2h16v-16.2ZM102.8,67.2h-16v16h.2c0,.2,15.9.2,15.9.2v-16.2h0ZM63.3,87.4h-16v16.2h16v-16.2ZM83.1,87.4h-16v16.2h16v-16.2ZM102.8,87.4h-16v16.2h16v-16.2ZM63.3,107.7h-16v16.2h16v-16.2ZM83.1,107.7h-16v16.2h16v-16.2ZM102.8,107.7h-16v16.2h16v-16.2Z"/>
    <polygon class="st0" points="38.8 63.2 38.8 127.4 38.6 127.6 26.4 127.6 26.2 127.4 26.2 63.2 38.8 63.2"/>
    <polygon class="st0" points="123.8 63.2 123.8 127.4 123.6 127.6 111.4 127.6 111.2 127.4 111.2 63.2 123.8 63.2"/>
    <rect class="st0" x="7.7" y="54.5" width="134.5" height="5.3"/>
    <path class="st0" d="M7.7,136.4v-4.5c0-.3.9-.9,1.2-.9h132.1c.3,0,1.2.5,1.2.9v4.3h-.2c0,.2-134.4.2-134.4.2h0Z"/>
    <polygon class="st0" points="22.6 63.2 22.6 127.4 22.4 127.6 14.1 127.6 14.1 63.2 22.6 63.2"/>
  </g>
  <polygon class="st0" points="136.8 63.9 136.8 128.1 136.6 128.2 128.4 128.2 128.2 128.1 128.2 63.9 136.8 63.9"/>
</svg>