<?xml version="1.0" encoding="UTF-8"?>
<svg id="Layer_1" xmlns="http://www.w3.org/2000/svg" version="1.1" viewBox="0 0 150 150">
  <!-- Generator: Adobe Illustrator 29.2.1, SVG Export Plug-In . SVG Version: 2.1.0 Build 116)  -->
  <defs>
    <style>
      .st0 {
        fill: #75b523;
      }
    </style>
  </defs>
  <g>
    <path class="st0" d="M90.8,33c-.3.5-3.9,1.5-4.3,2.5l6.8-2.9c.3.3.6.5.6.9,0,1.5-5.2,3.4-6.5,4.3l5.9-2.3c1.1,1.1-3.7,3.5-4.3,4.2l3.4-1.4c0,.6.2,1.4-.2,1.8-.8,1.4-7.1,3.4-7.9,4.5s-.5,2.5-.6,2.6-.6,0-.8,0c-.3.2-1.5,6.3-2.2,7.7-2.2,5.1-4,5.7-7.5,9.1s-1.7,1.7-2.5,2.6l6.3-4.3c4.5-3.4,6-8.2,7.7-13.3,1.2,2.2,2.2,4.8,4.2,6.5-.3-2.2-4.6-8.5-3.5-10.2l6.9-3.4c.2.9.8,1.7,1.5,2.2l-.6-2.8c5.4,2.2,6.5-2,6.6-6.5,7.9,3.5,5.1,8.6-1.4,11.4l1.2.5c-2.3,2.5-6.2,3.7-7.2,7.1-1.1,3.4-1.1,5.1-.8,6.2s1.8,2.8,2.3,3.9c2.3,5.7.2,10.8-1.4,16.3l2.6-4.6,1.7-5.5c1.7,3.4,4.6,6.2,6.3,9.6s2.8,5.7.8,6.9-6.2,0-9.1.2c-5.7.5-6.8,4.8-8.8,9.2l-9.6.6c-1.2-.2-1.8-2.8-2.3-3.9,2-5.4,2.3-11.1,2.2-16.8-1.1.6-.5,2.3-.6,3.5-.3,2.8-1.1,7.1-2,9.7-.9,2.6,0,.8-.5.6-.3-4.9-4.6-6.5-6.8-10.3,1.7-2.2,3.2-4.5,3.7-7.2-1.2,1.1-4.3,5.9-6.2,5.1s-1.1-2.2-1.5-3.1c-2-3.4-7.1-6.8-4.8-11.2s4.5-3.5,7.9-4.5,3.4-1.8,3.7-2.2c.6-.8.9-2.9,1.7-4.2,1.5-2.3,4.6-3.9,6-6.6s0-1.8,0-3.1.6-1.1.8-1.5-.5-1.4-.2-2.3,2.8-3.4,3.4-3.7c2-1.7,1.4-.5,3.1-.2s1.5-.9,2.5-1.4,2.8-1.5,3.1-1.5c.8,0,1.7.8,1.2,1.4l-.2-.2Z"/>
    <path class="st0" d="M89.9,145.4c-1.2-.2-2.5-1.2-3.2-2.2-1.7-2.2-1.1-4.8-4.6-4.9-2.9-.2-3.5,1.5-5.5,3.1-1.1-2.9,1.1-4,2-6.3,3.1-7.4,4.5-19.1,5.5-27.1s.3-6.2.9-8.6,1.2-.9,1.7-1.4c1.2-1.5,2.3-4.8,3.5-6.6s1.7-2.9,4.5-3.2c5.1-.5,10,1.4,10,7.2s-.3,6.6-.6,8.3-.8.9-.9,1.5c-.6,3.4-.2,4.3-1.8,7.7-3.1,5.9-6.9,15.1-8.9,21.6-2,6.5-1.5,7.2-2.3,11.1l-.2-.2Z"/>
    <path class="st0" d="M48.9,47.4c-.8-.6,3.1-2.6,3.2-2.8.3-.6,0-2.6.2-3.5.8-6.5,7.2-9.6,13.1-7.7s6.9,4.9,7.4,8.2l-2.9-.3v.6c5.2.3,3.9,2.2,1.4,5.4l1.8,2.2c-.6,1.1-2.2,1.4-2.9,2.3s-.9,3.5-1.5,4.2-.8.5-.9.3v-2.6c0-.9.3-1.1-.3-1.1-.3,5.9-5.2,5.4-9.4,7.4-2.2,0-6-6.5-6-8.5s2.8-2,3.7-2.3c0-.2-1.2-2-.9-3.2s3.1-1.7,2.5-2.3c-2,.9-3.4,1.2-3.4,3.7h-5.2l.3.2ZM56.3,50.1l-2.9,1.2.5,1.8c2-.5,2.9-.9,2.5-3.1ZM58.1,55.1l-1.4-2.2-2.3,1.4,1.1,1.7s2.6-.9,2.6-.9ZM59.4,55.7l-3.4,1.4c1.7,2,2.5,2.8,4.6.6l-1.2-2Z"/>
    <path class="st0" d="M109.6,140.7c0-.5-1.1-2.6-1.5-2.2.3,1.4,1.1,2.9,0,4.2s-5.7,2.9-6.8,3.1c-2.3.5-5.4,0-7.7,0-1.4-3.2,3.9-4.5,5.1-7.1s-1.1-2-1.2-3.5.8-2.2.9-2.2c.6-.3,4-.3,5.1-.3,4-.6,5.5-3.9,9.2-5.2.5,0,1.1,2.3,1.5,2.8,1.2,1.5,4.9,2.2,4.5,5.1-.5,2.9-4.3,4.8-5.7,4.8s-1.1-.3-1.5-.3-.9.9-1.7.8l-.2.2Z"/>
    <path class="st0" d="M61.5,3.3c.3,2.3.2,6.2,1.5,8.2,4,3.5,7.7,8.3,11.7,11.7s.6.8.9.3l-11.7-12.3c-.9-2.3-1.7-5.1-1.4-7.5,2.8,2.6,4.9,5.7,7.5,8.5,6,6.5,12.6,11.7,17.6,19.1.2.3.5.3.3.8-.9.2-1.7.9-2.6.3s.2-1.5-.5-1.5c0,.8.5,3.4-.8,3.4s-.5-.2-.6-.3c-2.2-1.2-6.5-4.8-8.5-6.6-4.6-4-13.9-12.5-14.6-18.6s0-3.2,0-4.8l1.2-.5h-.2Z"/>
    <path class="st0" d="M102.5,113.6c2.2-1.4.9-2.6,1.1-4.2.2-2.2,1.7-5.7,2.2-8,.9-4.3.9-9.6-2.3-13.1,2.5-2.3,7.5-1.5,8.6,1.8s0,11.2-.8,14.3c-.8,3.1-4.5,8.2-8.8,8.9v.2Z"/>
    <path class="st0" d="M79.7,126.3l-2.2-3.2c-.5-4.2.6-9.6,0-13.6s-1.1-1.8-1.5-2.8c-.8-1.5-1.1-3.5-.9-5.2s2.5-1.8,1.8-3.9c1.2,0,6.3-.8,6.9,0v.5c0,1.5-.9,2.8-1.1,3.7-.5,2.8,0,6.6-.3,9.6-.3,4.8-2,10.2-2.8,14.9Z"/>
    <path class="st0" d="M99.9,118.9c.5,0,2,1.7,2.9,2s1.7,0,2.6.5,3.5,3.9,5.1,4.8c-1.5,1.4-4.5,5.1-6.6,5.1s-1.7-.5-2.9-.3-2.8.9-4,1.7l-1.7-1.7c1.7-3.2,2.2-7.9,3.7-10.9s.5-.9.9-1.2v.2Z"/>
    <path class="st0" d="M88,147.5l-13.4.3c-2.9-.8.3-4.8,1.7-5.4s2.3,0,3.4,0l-1.5-1.5c2.3-1.2,2.8-2.6,5.4-.9s1.1,1.7,1.8,2.8,2.5,2.6,2.6,4.6v.2Z"/>
    <path class="st0" d="M97.6,40.4h-.9l.3-3.4-1.2,3.5c-.6.5-2,0-2.6-.5-.8-1.7.3-2.6.6-3.7s0-1.1,0-1.4c0-.6.8-1.2.8-1.8-.3-1.7-2.8-.8-3.1-.9s-.8-1.4-1.7-1.4c-.3-.5,1.8-1.8,2.5-1.8s.8.6,1.1.6h1.2c.6.3,3.9,2.2,4.2,2.6,1.2,2-.3,6-1.1,8v.2Z"/>
    <path class="st0" d="M87.6,26.7c2.2,0,1.4,2.6.3,3.5l-2.3-2.6c0-.3,1.7-.9,2-.9Z"/>
  </g>
  <g>
    <path class="st0" d="M35.2,94.8c0-.6-.3-2.9.3-3.1h6.6s.2.2.2.3v3.9c0,.3-.3.5-.5.5-1.1.3-3.2,0-4.5,0-.6-.8-1.2-1.4-2.3-1.5h.2Z"/>
    <path class="st0" d="M56.3,94.8c-1.1,0-1.7.8-2.3,1.5h-3.7c-1.1,0-.9,0-1.1-.8s0-3.2,0-3.5,0-.2.2-.3h6.6c.2,0,.3.2.3.3v2.8Z"/>
    <path class="st0" d="M43,92.4h.9c0,.3,0,.6.2.8h1.2v1.5h-1.2c-.3,0-.2.5-.2.8h-.9v-3.1Z"/>
    <path class="st0" d="M48.6,92.4v3.1h-.9l-.3-.8h-1.2v-1.5h1.2c.3-.2.2-.6.2-.8h1.1Z"/>
    <path class="st0" d="M34.6,94.5s.2,0,0,.2c-.3,0-.8.2-.9.2s-.3-.2-.6-.2h-1.1c.2-.5.2-1.1,0-1.5h1.4v-.8h1.1v2.2h.2Z"/>
    <path class="st0" d="M56.9,92.4h.9c0,.3,0,.6.2.8h1.2v1.5h-1.2c-.2,0,0,.2,0,.2-.2,0-.6-.2-.9-.2v-2.3h-.2Z"/>
    <path class="st0" d="M57.5,107.8l-2.3,1.1c-.3,2.6,0,5.2-.2,8-.2,9.4,0,18.6,0,28h3.4c.2-9.6.2-19.1,0-28.7v-8.3h.3v-10c-.3-2.6-4-2.5-4.2,0v9.9h2.9Z"/>
    <path class="st0" d="M44.3,108.8c-.3.3,0,2.3,0,2.9-.3,10.5-.2,20.8,0,31.3v1.8h3.4c.3-10.2.3-20.5.2-30.7,0-2-.5-4.6,0-6.5-.3-3.2.3-6.8,0-10-.3-2.3-3.9-2.5-4.2,0v10h2.2c-.3.5-1.4.8-1.7,1.1h.2Z"/>
    <path class="st0" d="M32.9,109c0,8-.3,16-.3,24.2s.2,6.8.3,10v1.7h3.5v-4.2c0-8.8.2-17.4,0-26.2,0-2.2-.5-4.8,0-6.8-.3-3.2.3-6.8,0-10,0-.8-.8-1.7-1.5-1.7-1.4-.2-2.5.6-2.6,2v9.9h2.9l-2.6,1.2.3-.2Z"/>
  </g>
</svg>