<?xml version="1.0" encoding="UTF-8"?>
<svg id="Layer_1" xmlns="http://www.w3.org/2000/svg" version="1.1" viewBox="0 0 150 150">
  <!-- Generator: Adobe Illustrator 29.7.0, SVG Export Plug-In . SVG Version: 2.1.1 Build 138)  -->
  <defs>
    <style>
      .st0 {
        stroke-miterlimit: 50;
        stroke-width: 4.4px;
      }

      .st0, .st1 {
        fill: none;
        stroke: #75b523;
        stroke-linecap: round;
      }

      .st1 {
        stroke-linejoin: round;
        stroke-width: 4px;
      }
    </style>
  </defs>
  <g>
    <path class="st1" d="M97.9,27.9c1.6-1.9,5.6-4.3,11.1-6.9,5.4-2.5,11.8-4.9,18.1-7.1,6.2-2.2,12.3-4,16.7-5.3.9-.2,1.7-.5,2.5-.8-.1.9-.3,1.8-.5,2.9-.9,4.7-2,11.1-3.4,17.6-1.4,6.7-3,13.4-4.6,19-.9,2.8-1.7,5.3-2.5,7.2-.9,2-1.6,3.2-2,3.9-.9,1-2.8,1.8-6,2-3.1.2-6.9-.2-10.6-.9-3.7-.6-7.2-1.5-9.8-2.3-1.3-.3-2.4-.6-3.1-1h0c-.3-.6-.9-1.5-1.5-2.7-1.2-2.3-2.7-5.4-3.9-8.8s-2.2-7-2.3-10.1c-.1-3.1.5-5.6,1.9-7.2v.2Z"/>
    <path class="st1" d="M129.6,25.6s-28.7,24.7-38.1,52.4"/>
    <path class="st1" d="M89.2,37.4c-1.1-1.3-3.9-3-8-4.9-4-1.8-8.7-3.7-13.3-5.3-4.6-1.6-9-3-12.4-4-.2,0-.4-.1-.6-.2,0,.3,0,.6.1,1,.6,3.5,1.5,8.3,2.6,13.2s2.3,10,3.4,14.2c.6,2,1.2,3.9,1.8,5.4.6,1.5,1.1,2.4,1.4,2.7.4.5,1.5,1.1,3.9,1.3,2.3.1,4.9-.1,7.6-.6,2.7-.4,5.3-1.2,7.2-1.7.8-.2,1.5-.4,1.9-.5.2-.4.5-1.1.9-1.7.9-1.7,1.9-4,2.8-6.6.9-2.6,1.5-5.2,1.6-7.4,0-2.3-.3-3.9-1.3-4.8h.3Z"/>
    <path class="st1" d="M68.7,37.8s18.8,15.9,24.2,34.5"/>
  </g>
  <g>
    <path class="st0" d="M26.3,140.4L4.4,107.4c-1-1.7-.6-3.8,1-4.9h0l13.8-8.9c1.7-1,3.7-.6,4.9.9l22.5,32.4c1.1,1.6.7,3.8-.9,4.9h0l-14.3,9.7c-1.6,1.1-3.8.7-4.9-.8,0,0,0-.1-.1-.2h-.1Z"/>
    <path class="st0" d="M26.6,97.9l23.1-14.5c1.5-.9,3.3-1.2,5-.7,8.2,2.1,32.8,8.8,41.8,12.1,6.9,2.4,9.7,9.2,6.9,13.6-3.7,5.9-9.4,5.3-13.5,4.2-.5-.2-1-.4-1.6-.6l-16.1-6.9"/>
    <path class="st0" d="M44.4,124.1l7.5-4.3,42.7,11.7c.9.2,1.9,0,2.6-.4,6-3.8,31.7-20.9,44.4-29.9,3.4-1.9,4.8-6.1,2.9-9.6-.5-.9-1.1-1.7-2-2.3-3-2.7-7.5-3.1-10.9-.9-4.5,2.5-16.7,11.7-16.7,11.7"/>
  </g>
</svg>