<?xml version="1.0" encoding="UTF-8"?>
<svg id="Layer_1" xmlns="http://www.w3.org/2000/svg" version="1.1" viewBox="0 0 152 150">
  <!-- Generator: Adobe Illustrator 29.2.1, SVG Export Plug-In . SVG Version: 2.1.0 Build 116)  -->
  <defs>
    <style>
      .st0 {
        fill: #75b523;
      }
    </style>
  </defs>
  <path class="st0" d="M17,131.9c-14.1-8.4-18.4-27.9-8.6-41.3,8.3-11.4,23.2-15.3,36-9.1l7.2-10.9-10.7-16.3c-6.3-14.1,5.3-19.1,16.2-23s13.5-4.7,19.4-6.2,5.3-.3,6.9,2.5,3.3,7.6,4.3,10.1c2.4,6.4,4,13.2,6.6,19.6l11.6,5.2c.8-.1,4.5-6.1,5.9-7s.8-.5,1.6-.4,6.6,4.3,7.2,5c1.9,2.1-.2,5.5-2.8,4.7s-3.6-3-4.2-3l-2.6,3.1c-.1.5,1.5,1.6,1.9,2.2,1.2,2.2.5,4.4-1.3,6l2.1,5.9.5.2c20.5-4.5,38.3,13.8,34,34.3-4.5,21.2-30.5,29.9-47,15.7-16.1-13.9-12-40,7.5-48.2l-1.8-5.4h-5.3c0,0-23.6,28.7-23.6,28.7-.4.8.5,1.6.7,2.4,3.5,12.5-14.1,17.2-17.5,4.8-.2-.7.3-1.7-.6-1.5-2.3,21-25.2,33-43.7,22ZM85.4,64.7l-5.9-17.4c-3.7,1.8-8.1,2.6-11.8,4.3s-.5-.1-.4.6l14.9,9.3c1.5,1.9,2.1,4.1,1.3,6.5s-.9,1.2-1,2h15.2s-12.4-5.3-12.4-5.3ZM66.5,69.3c.9,1.3,2.1-1.5,2.5-2.4l-5.2-2.9c1,1.5,1.6,3.9,2.6,5.3ZM70.8,82.3l2.9,18.8,20.7-25.6h-18.2c-1.7,2.3-3.9,4.3-5.3,6.8ZM63.8,103l-2.7-10.6c-1.6-.3-3.1-.9-4.2-2.1-2.6-3.1,1.9-5.2,1.7-7.4s-2.4-5.3-4-7.1l-5.4,8.4c6.2,5,10.6,12.2,11.2,20.3,1.5.2,2.9,0,3.4-1.5ZM122.6,104.8c1,3.3-3.2,5.2-5,2.1l-6.8-19.6c-16.6,7.5-17.2,31-1,39.5,11.5,6,25.9.7,30.7-11.3,6.4-16.1-7.4-33-24.4-30l6.5,19.2ZM29.8,110c-1.4,0-2.4-2.5-1.7-3.7l12.5-19.1c-8.9-3.9-19.3-1.3-25.6,6-10.4,12.2-4.6,31,10.7,35.3,13.3,3.7,26.1-5.1,28.1-18.5h-24ZM53.8,104.5c-1-5.6-3.7-11.1-8.4-14.3l-10,14.3h18.4Z"/>
  <path class="st0" d="M100.4,14.1c-16.5-2.4-17.3,21.9-2.2,22s14.7-20.2,2.2-22Z"/>
</svg>