<?xml version="1.0" encoding="UTF-8"?>
<svg id="Layer_1" xmlns="http://www.w3.org/2000/svg" version="1.1" viewBox="0 0 152 150">
  <!-- Generator: Adobe Illustrator 29.2.1, SVG Export Plug-In . SVG Version: 2.1.0 Build 116)  -->
  <defs>
    <style>
      .st0 {
        fill: #75b523;
      }
    </style>
  </defs>
  <path class="st0" d="M144.6,128.3v2.7c-2.3,6.6-12.1,3.5-16.6.8-4.9-3-7.6-8.3-14-8.2s-10.1,6.7-16,9.4-14.3,2.5-20.2-.9-8.1-7.8-11.9-8.3c-9.9-1.3-11.2,5.8-18.6,9.2-6.3,2.9-14.2,2.5-20.2-.9-3.8-2.2-7.6-7.3-11.6-8.2-3.4-.8-6.2.2-8.1-3.9v-3c2.8-6.8,12.6-3.3,17.2-.2,4.8,3.2,7.2,8.1,13.9,7.9s7.8-4.2,11.6-7c7.3-5.4,16.3-6,24.2-1.4,5.3,3.1,7.8,8.7,14.8,8.5s7.8-4.2,11.6-7c9.1-6.6,18.9-5.7,27.6.9s4,4,6,5,5.7.6,7.8,1.7,1.6,1.9,2.4,3.1Z"/>
  <path class="st0" d="M144.6,108.5v2.7c-1.9,4.7-6.5,4.2-10.7,3.2-10.7-2.5-15.3-17.2-27.6-7.8s-12.4,10.8-24,7.6-14.5-16.8-26.7-7.6c-7.3,5.5-9.7,9.3-20.2,8.4-10.1-.9-12.1-8.3-19-10.7-3.6-1.3-7.5.3-9-4.5v-2.7c2.2-6.5,11.7-3.6,16.1-1.1,5,2.9,8,8.7,14.5,8.7,7.6,0,12.2-10.3,22.1-11.4,11.6-1.2,13.3,3,21.3,8.7,11,7.8,15-3.1,23.2-6.9s13.9-2.7,19.9.7c3.5,2,6.6,6.2,9.9,7.6s8.5,0,10,5Z"/>
  <path class="st0" d="M87.8,39.1l28.6,48.4c-5.1-.3-9.9.7-14.2,3.5s-7.7,8.8-15.2,7.8-10.9-10.3-21.1-11.3c-12.7-1.3-13.6,4.9-22.1,9.8s-14.7-5.4-23.3-8.3l56.4-32c-2.9-5.9-6.8-11.6-9.7-17.5s-3.1-5.9-1.3-10.1,3.9-4.3,7-5.2c12.8-3.7,26.8-5.5,39.7-9.1,12.2-1.4,16.1,14.3,2.8,18-8.8,2.5-18.4,3.9-27.4,6Z"/>
  <path class="st0" d="M120.8,42.3c23.1-3.1,25.6,29.8,5.2,32.2s-24.6-29.6-5.2-32.2Z"/>
</svg>