<?xml version="1.0" encoding="UTF-8"?>
<svg id="Layer_1" xmlns="http://www.w3.org/2000/svg" version="1.1" xmlns:xlink="http://www.w3.org/1999/xlink" viewBox="0 0 152 150">
  <!-- Generator: Adobe Illustrator 29.2.1, SVG Export Plug-In . SVG Version: 2.1.0 Build 116)  -->
  <defs>
    <style>
      .st0 {
        fill: #75b523;
      }

      .st1 {
        fill: none;
      }

      .st2 {
        clip-path: url(#clippath);
      }
    </style>
    <clipPath id="clippath">
      <rect class="st1" x="-8.6" y="6.7" width="155" height="136.9"/>
    </clipPath>
  </defs>
  <g class="st2">
    <g>
      <path class="st0" d="M87.7,65.3c-1.2-4.9-5.9-6.7-10.4-7.7.9-1.9,3.5-3.4,5.5-4,3.5-1.1,6.9-.3,10.5-1.2,2.2-.5,6.7-3.2,7.9-3.3,2.4-.2,5.5,5.8,4,7.5-3.9,1.9-7.7,4.7-11.6,6.6s-3.1,1-4.6,1.6,0,1.3-1.3.5c.2.7.7,1.7.2,2.3-2.8-1.8-5.4-4.1-8.7-4.9s-1.3-.5-1.2.2c4.9,1.7,14.7,7.5,15.4,13,.3,2-.3,4-.3,5.8s1.4,7.2,1.1,7.5c-2.1-.9-3.7-2.5-5.8-3.7s-7-3.5-9.9-4.8-1-.8-1.3-.3c5.5,4.2,12.3,5.5,17.4,10.5.8,2.7,1.1,5.5,1.8,8.3.4,1.8.7,3.4,1.1,5.1.3,1.5,2.8,4.1,2.7,6.2-.2,1.1-7.8,2.1-9.1,2.2-5.3.4-10.6-.3-15.9,0s-3.8.7-5.6.8c-.3-.3,1.4-6.8,1.9-7.1,1.1-.7,3.5-.4,4.9-.9s6.7-5,8.6-6.1l4.2-1.4c-3.3-.7-4.4,1.4-6.4,2.6s-5.5,3.4-6.6,3.9-4,.9-4.4.7c-.7-2.6-.2-4.9-2.3-7.2,5.1,1.2,7.8-3.3,12.6-3.3s2.1.4,3.1.5,1.3.4,1.2-.3c-7.1-3.7-12.7,5.5-19.6.9-.7-.5-1.1-.6-.9-1.6,5.6,0,10.6-5.5,16-5s2.2.7,3.3.9,1.3.5,1.2-.2c-7.9-4.7-13.6,2.5-21.1,2.7s-1.9-1.1-3.3-2.2l-4.3-3.1c2.6-2.6,6.7-2.9,9.3-5.6-1.7.6-3.5,1.2-5.2,2s-4.4,2.9-4.8,3c-.7.2-1.2,0-1.7-.5,4.7-3.2,5-11.4.4-14.8l.4-2.8c1.7.6,2.3-1.1,2.6-1.2.7-.2,2.4.4,3.4.4,1.6,0,7.5.2,8.5-.4s.7-2.4.6-3.2c-.3-1.7-1.5-2-1.8-3.4,3.8.9,4.7-3.2,8.5-2.5s5.7,2.2,7.5,4.1,1.4,2.2,2.1,2.7Z"/>
      <path class="st0" d="M83.3,130.7c.7,0,2.1.6,2.9.8.3-1.2-2.2-1.1-2.9-1.2-2.9-.2-7.2-.2-10.1,0-1.5.1-6.4,2.1-6.4-.2s7.6-2.3,8.9-4.4c-3.5,1.2-6.9.4-9.7,3.5-1.4-3.4-.6-4.5,2.2-6.5,4.9-3.5,13.1-2.1,18.5-.4l.2-1.2c-7.4-1-16.1-3.8-21.5,3.1-.6-1.8,1.5-8.6,3.2-9.2s7.2-1.2,8.8-1.3c3.8-.2,7.7.6,11.6.4,2.8-.2,6-.9,8.7-1.5-.7,6.9,1.3,13.3,1.2,20.1-3.8-.2-7.4,1.6-11.2,1.9-.6-2.5,1.6-2.5,3.1-3.7s4-3.8,4.3-6.3l-2.2,3.4c-1.6,1.7-3.6,3.6-5.9,3.9,1.1,11.4-1.2,22.8-3.1,34-2.4.5-3.9-1.3-5.8-2.1-1.8-.8-7.5-2.4-8.2-3.8s-.5-2-.6-2.9c-1.5-7.9-1-16.2-1.9-24.1,2.1-2.1,5.1-1.7,7.7-1.9.5,0,1-.4,1.1-.4,2.2,0,4.8-.2,7,0Z"/>
      <path class="st0" d="M83.4,166.8c1.9,3.8-3.7,8.4-7,9.3s-5,1-6.3,1-2.6-.7-3.8-.6c-2.2.1-5.9,1.7-8.3,2.1-4.5.8-11.7.9-15.7,2.9s-.6.9-1,1.1c-1.3.6-3.3,1-4.7,1.2l.8,1.9c-3.2-1.1-5.9-1.1-5.4-5.2.2-2.1,1.4-1.3,2.5-2.1s2.5-2.9,4.1-3.7,3.8-.9,5.6-1.7c5-2.1,9.6-6.3,14.9-7.9s5.2-1.1,8-1.4l.4,6.2c.7,0,.4-1.7.4-2.1,0-1.3-.5-2.4-.4-3.7,2.6-.3,3.2,3.4,5,4.6l-2.7-6.6c5,.3,8.6,4.1,13.5,4.7Z"/>
      <path class="st0" d="M66.4,47.2c.3.5-.2,1.7.2,2.3,2.3.6,2.6,3.5,4,5.3.4,2-3.2,3.2-1.4,7.2s1.2,1.1,1.4,2c.3,1.7.1,3.1-1.7,3.3s-8.5.3-10.1,0-1.7-2.8-4.4-1.1c0,2.3-.8,5-3.5,5,3-1.6,2.5-5.6-.8-6.2-.2.1-.3,2.7-.5,3.2-1.1,3.3-8.1.9-4.7-3.9,2.4-3.5,2.3.3,4.8,1.1-.6-1.5-1.9-2.5-2.8-4-2.8-4.7-2.8-9.7.8-14,1.6-1.9,4-3.6,6.6-3.3.6,2.9-2.5,6.1.8,8.1,0-1.1-1.1-1.7-1.1-2.9s1.1-2,1.1-3.1-.5-1.6-.4-2.5c1.7-.2,3.5,0,5,1s1.3,1.6,2.6,2.1,3.6-.2,4,.4Z"/>
      <path class="st0" d="M96.6,152.8c.5.5-1.6,4.7-1.9,5.6s-1.3,5-1.7,5.6c-.8,1.2-4.3,1.3-5.6,1.2.3.7,2.3.4,2.9.4s1.2-.1,1.7-.4c3,6.7-4.1,9.9-7.7,14.1-1,.6-1.5-.1-2.3-.6.4,1.1,0,1.4-.6,2.3-2.2,3-5.1,5.2-7.4,8.1l-.7.2c-3.1-.5-7.6-3.1-7.6-6.6s1.1-1.9,1.7-2.9,0-1.2.3-1.5c.3-.4,5.5-.8,6.6-1,3.9-.8,8.1-2.5,9.8-6.4s.3-3.2.6-5.2c.7-4.6,2.4-9.1,2.5-13.8l9.5.8Z"/>
      <path class="st0" d="M32.8,89.3c.5-1.5,1.4-2.3,1.5-4.1s.2-3.7-.8-5.2c.3-.3,6.7-1.9,7.8-2.4,2.8-1.2,6-4.9,8.8-5.5s5.6-.7,6.9,1.6c2.2,3.8,1.5,9.5-1.9,12.3-7.7-.9-14.8,3.3-22.5,3.3Z"/>
      <path class="st0" d="M136.5,10.8l-3.9,6.6c.9-.6,5.2-6.4,6.2-5.4.2,1.5-5.4,6.2-4.6,7,1.5.1,4.1-4.6,4.8-4.6.5.4.7.6.5,1.3-.4,1.4-5.7,5.3-4.6,6.5,1.8.3,3.4-.6,5-1.4l.8.8c-1.5,1.7-4.3,1.7-6,2.6s-6.5,4.9-6.8,5.2c-1.4,1.4-3.2,5.6-4.5,7.5-2.5,3.9-5.1,7.8-7.7,11.6-1.4-1.8-3-4-5.2-4.6,2.2,2.6,7.1,4.6,3.7,8.5s-7.8,5.2-8.3,4.6c.5-3.5-1.3-6.4-3.9-8.5,1.1-.4,3.3-1.1,4.1-1.9s.9-2.9,2.6-3.6l1.4.5c.1-.1-.3-.8-.2-1.2.5-1.5,4.4-4.3,5.8-5.8,4.4-4.9,8-10.7,11.3-16.1,1.2-2,5.8-8,7.6-9s1-.5,1.8-.4Z"/>
      <path class="st0" d="M28.5,44.4c.7,0,.3-.8.2-1.2-.2-.8-1-1.9-.4-2.7,2,1.7,2.9,4.5,4,6.8,1.6,3.4,1.9,4.9,2,8.8.2,6.8-2.7,11.6-3.5,18.2s.3,3.9-.2,5.6-6.1,4.2-8.3,4.3c-.9-.9,6-21,6.6-23.8.2-1.5-1.1-2.6-1.6-3.9s-.7-3.9-1.3-5.3-1.5-2-1.9-3.1-.6-2.5.5-2,2.4,4.5,3.1,3.7c-1-3.2-2.1-5.9-1.9-9.3l1-.4,1.7,4.2Z"/>
      <path class="st0" d="M60.6,202.7c.5,1.9-2.1,2.1-2.5,2.7s0,1.4-.2,1.5c-.2.2-1.5-.2-1.9,0s-.1,1.1-.5,1.4c-.6.5-1.5.6-2.6,1.9s-4.8,8.6-5.5,9c-1.8,1-3.3-.5-3.8-2-1.1-3.2-.7-7.1.7-10.2s3.4-4,3.8-5.5-.3-2.7-.1-4.4,2.2-7.3,5-7.2,4.4,1.7,4.8,2.2-2.1,4.1-2.4,5.4c-.8,3.9,1.4,9,5.2,5.1Z"/>
      <path class="st0" d="M34.2,168.4c.8.5,3.4,5.2,3.1,6.2-1,.8-2.2,2.3-3.2,3s-2.1.6-2.6,1.3c-.9,1.2-.2,4.5.9,5.5s2.5.6,3,1.7l-5.3.3c-2.8,3.5-2.7,7.3-8.6,5.7-2.1-3.7-2.6-8,.5-11.3.6-.7,2.9-1.9,3.2-2.5.5-1,0-2.5.3-3.6s1.9-3.1,2.1-3.3c1-1.2,5.1-3.9,6.7-3Z"/>
      <path class="st0" d="M98.2,133c1.1,6.5,0,12.6-1.2,18.9-.4.4-8.6-.8-9.3-1.3s-.4-.7-.4-1.2l.5-14.1,10.4-2.4Z"/>
      <path class="st0" d="M33.1,80.5c.4.2.9,2.9.8,3.6,0,1.2-1.5,5.4-2.5,6.1-1.5,1.1-6.2.9-8,.2s-3.9-4.8-1.7-6.4c.6.3-.4,1.7.7,1.5,1.8-.4,5.9-2.3,7.4-3.4s1.5-2.6,3.2-1.5Z"/>
      <path class="st0" d="M72.6,189.9l-8.8,8.1c-1.9.5-3.7-3-3.8-4.6-.3-2.7,4.1-6.9,4.9-9.7l2.3,3.7,5.4,2.5Z"/>
      <path class="st0" d="M59.5,192.6c-.2,1.8.9,4.5,2.5,5.4s2.1.1,1.8.9l-5.2,4.7c-2.3-1-2.8-3.2-2.5-5.5s2.7-6.6,3.5-5.6Z"/>
      <path class="st0" d="M86.4,19.6c.8,0,2.3,0,3,.2s.5.6.7.9c1.4,3.4,3.7,6.2,7.1,7.6.1.1.1.2,0,.4s-.4.3-.5.4c-.9.7-2.4,1.5-3.6,1.2-2.5-.7-4.9-3.2-6.2-5.3s-1.8-3.3-1.9-4.6.8-.8,1.3-.8Z"/>
      <path class="st0" d="M94.7,9c.2,0,.7.2.9.3.9.4,2.4,1.3,2.7,2.3s.1.6.1.8c.4,3.2-.9,6.7-2.8,9.3s-1.5,2-2.1,2.1-1-.8-1.3-1.2c-.4-.7-.9-1.7-1.2-2.5s.1-.6.4-1c2.1-2.7,3.3-5.8,3.1-9.2s0-.6,0-.8,0-.2.2-.2Z"/>
      <path class="st0" d="M86.6,14.7c1.5,0,4.4,0,5.7.8s.3.2.3.6c0,.7-1.1,2.6-1.7,3.1s-.2.1-.4.1c-.7,0-1.6-.2-2.3-.2s-.2,0-.3,0c-2.8-.1-5.3.4-7.7,1.8s-.5.4-.6.4c-.4.1-.4-.4-.4-.6-.2-1-.3-2.8.3-3.7s.5-.5.9-.7c1.9-1,4.2-1.5,6.3-1.6Z"/>
      <path class="st0" d="M87.4,9.8c1.8,0,3.6.3,5.2,1s1,.4,1.1.8c.2.8,0,2.1-.4,2.9s-.2.4-.4.4c-3.6-1.5-7.8-1.2-11.4.2s-.8.4-1.1.5c-.3,0-.5-.2-.4-.5.2-.6.7-1.3,1.1-1.8,1.6-2.2,3.7-3.2,6.4-3.4Z"/>
      <path class="st0" d="M99.3,12.5c.1,0,.2,0,.3.2,1,1.2,1.8,3.4,1.9,4.9.1,3-1.6,6-4,7.7s-1.4,1-1.9,1c-.7,0-1.6-.8-1.9-1.4s0-.3,0-.4c.4-.3.8-.6,1.1-.9,2.9-2.6,4.2-6.4,4.3-10.2s-.1-.7.1-.7Z"/>
      <path class="st0" d="M84.2,19.9c.2,0,.2,0,.3.1.4,4.6,3.4,8.5,7.4,10.6.2.2,0,.4-.2.4-1.5.3-3.8-.1-5.1-.8-3.1-1.5-4.9-5.5-4.7-8.9s0-.5.2-.7c.5-.6,1.4-.8,2.1-.8Z"/>
      <path class="st0" d="M90,8.1c1.3,0,2.6.2,3.6,1.1s.5.6.5,1.2c0,.9-.5.4-.9.2-1.4-.7-3.1-1.1-4.6-1.2s-1.3,0-1.8,0-.3-.3,0-.4.2,0,.3-.1c.9-.3,2.1-.6,3.1-.7Z"/>
      <path class="st0" d="M101.3,21.5c0,0,.3,0,.3.2s-.1.8-.2.9c-.4,1.8-1.4,3.9-3.2,4.7s-1,.3-1.7,0-.8-.4-.5-.7c2-.7,3.5-2.3,4.6-4.1s.3-.7.5-.9,0-.1.1-.1Z"/>
      <path class="st0" d="M81.1,20.8c.1,0,.3,0,.3.2s0,.6-.1.9c-.1,2.2.7,4.3,1.9,6.1,0,.2,0,.4-.2.3s-.4-.3-.5-.4c-1.6-1.4-3.1-3.5-2.6-5.7s.2-.6.5-.9.6-.4.7-.4Z"/>
    </g>
  </g>
</svg>