<?xml version="1.0" encoding="UTF-8"?>
<svg id="Layer_1" xmlns="http://www.w3.org/2000/svg" version="1.1" viewBox="0 0 150 150">
  <!-- Generator: Adobe Illustrator 29.7.0, SVG Export Plug-In . SVG Version: 2.1.1 Build 138)  -->
  <defs>
    <style>
      .st0 {
        fill: #75b523;
      }
    </style>
  </defs>
  <rect class="st0" x="29.4" y="33.1" width="29.6" height="34.5"/>
  <path class="st0" d="M81.2,25.7v14.8h-17.3v19.7h44.4c2.7,0,4.9,2.2,4.9,4.9v12.3h17.3v-17.3c0-10.9-8.8-19.7-19.7-19.7h-4.9v-14.8h-4.9v-4.9h2.5v-4.9h17.3v-4.9h-17.3v-4.9h-19.7v4.9h-17.3v4.9h17.3v4.9h2.5v4.9h-4.9ZM91,20.7h4.9v4.9h-4.9v-4.9Z"/>
  <path class="st0" d="M107.4,118.1c-6.4,11.7,2.1,26,15.4,26s21.8-14.3,15.4-26l-15.4-28.3-15.4,28.3ZM124.6,136.7c-6.6,0-12-5.5-12-12.3h4.9c0,4.1,3.2,7.4,7,7.4v4.9Z"/>
  <rect class="st0" x="9.6" y="38" width="14.8" height="24.7"/>
</svg>