<?xml version="1.0" encoding="UTF-8"?>
<svg id="Layer_1" xmlns="http://www.w3.org/2000/svg" version="1.1" viewBox="0 0 200 200">
  <!-- Generator: Adobe Illustrator 29.2.0, SVG Export Plug-In . SVG Version: 2.1.0 Build 108)  -->
  <defs>
    <style>
      .st0 {
        fill: #75b523;
        stroke: #75b523;
        stroke-miterlimit: 10;
        stroke-width: 4.5px;
      }
    </style>
  </defs>
  <path class="st0" d="M62.4,171c-5.3,0-8.8-4.1-10-6.7l2.7-1.3c.1.3,3.2,6.3,9.3,4.7,3.9-1,3.8-3.3,1.2-14.4-.7-3.1-1.5-6.6-2.3-10.8l3-.6c.8,4.1,1.6,7.6,2.3,10.7,2.3,10.1,3.7,16.2-3.4,18-1,.2-1.9.4-2.7.4Z"/>
  <path class="st0" d="M75.6,170.3c-4.2,0-7-2.6-8-4.4l2.6-1.5-1.3.8,1.3-.8c.3.4,2.8,4.3,8.3,2.3,5.5-2,4-9.1-.9-26.1l2.9-.9c4.5,15.5,7.8,26.7-.9,29.8-1.5.5-2.8.8-4,.8Z"/>
  <path class="st0" d="M49.1,169.7c-.1,0-.2,0-.3,0-3.8-.2-7.3-3.7-8.3-6.8-.2-.5-.4-1.1-.7-1.8-2.5-6.6-8.4-22.1-3.3-30.3,5.1-8.1,7.8-29.5,7.8-29.7v-1c.1,0,1.1-.3,1.1-.3,1.1-.3,27.1-8.1,35.7-.4,7.9,7.1,21.1,16.3,21.3,16.4l1.4,1-1.2,1.3c0,0-7,7.8-7,18.5s.9,8.3,1.8,12.5c1.5,7.1,3,13.8-1.5,17.4-1.9,1.5-4,2.1-6.1,1.8-4.2-.6-7.1-4.5-7.3-4.7l2.5-1.8s2.3,3.1,5.2,3.5c1.3.2,2.6-.2,3.8-1.2,3-2.3,1.8-7.9.4-14.3-.9-4.1-1.8-8.7-1.8-13.1,0-9.3,4.6-16.4,6.7-19.2-3.6-2.6-13.7-9.9-20.2-15.7-5.8-5.2-24.1-1.4-31.8.8-.6,4.4-3.3,22.2-8.1,29.9-4.3,6.9,1.4,22,3.6,27.6.3.8.5,1.4.7,1.9.7,2.1,3.3,4.6,5.6,4.8,1.3,0,2.4-.6,3.2-2.2l-2.7-18.2,3-.4,2.8,19.1-.2.4c-1.8,3.7-4.4,4.3-6,4.3Z"/>
  <path class="st0" d="M164.2,147.3l-1.3-2.7c.3-.1,6.3-3.2,4.7-9.3-1-3.9-3.3-3.8-14.4-1.2-3.1.7-6.6,1.5-10.8,2.3l-.6-3c4.1-.8,7.6-1.6,10.7-2.3,10.1-2.3,16.2-3.7,18,3.4,1.8,6.8-3.4,11.3-6.3,12.8Z"/>
  <path class="st0" d="M165.8,132l-1.5-2.6.8,1.3-.8-1.3c.4-.3,4.3-2.8,2.3-8.3-2-5.5-9.1-4-26.1.9l-.9-2.9c15.5-4.5,26.7-7.8,29.8.9,2.4,6.5-1.3,10.7-3.6,12Z"/>
  <path class="st0" d="M139.1,165.2c-3.2,0-6.1-.6-8.4-2-8.1-5.1-33.8-8.1-34.1-8.2l.4-3c1.1.1,26.7,3.2,35.3,8.6,6.9,4.3,22-1.4,27.6-3.6.8-.3,1.4-.5,1.9-.7,2.1-.7,4.6-3.3,4.8-5.6,0-1.3-.6-2.4-2.2-3.2l-18.2,2.7-.4-3,19.1-2.8.4.2c4,1.9,4.4,4.8,4.3,6.3-.2,3.8-3.7,7.2-6.8,8.3-.5.2-1.1.4-1.8.7-4.7,1.8-14,5.3-21.9,5.3Z"/>
  <path class="st0" d="M102.5,118.1l-2.3-2c7.1-7.9,15.4-18.7,15.4-18.8l1-1.3,1.2,1.1c0,0,7.8,7,18.5,7s8.3-.9,12.5-1.8c7.1-1.5,13.8-3,17.4,1.5,1.5,1.9,2.1,4,1.8,6.1-.6,4.2-4.5,7.1-4.7,7.3l-1.8-2.5.9,1.2-.9-1.2s3.1-2.3,3.5-5.2c.2-1.3-.2-2.6-1.2-3.8-2.3-3-7.9-1.8-14.3-.4-4.1.9-8.7,1.8-13.1,1.8-9.4,0-16.5-4.6-19.3-6.8-2.4,3.1-8.9,11.3-14.6,17.7Z"/>
  <path class="st0" d="M132.6,57.2c-.8-4.1-1.6-7.6-2.3-10.7-2.3-10.1-3.7-16.2,3.4-18,6.8-1.8,11.3,3.4,12.8,6.3l-2.7,1.3c-.1-.3-3.2-6.3-9.3-4.7-3.9,1-3.8,3.3-1.2,14.4.7,3.1,1.5,6.6,2.3,10.8l-3,.6Z"/>
  <path class="st0" d="M118.2,59.4c-4.5-15.5-7.8-26.7.9-29.8,6.5-2.4,10.7,1.3,12,3.6l-2.6,1.5,1.3-.8-1.3.8c-.3-.4-2.8-4.3-8.3-2.3-5.5,2-4,9.1.9,26.1l-2.9.9Z"/>
  <path class="st0" d="M154.2,102.5l-3-.4c.1-1.1,3.2-26.7,8.6-35.3,4.3-6.9-1.4-22-3.6-27.6-.3-.8-.5-1.4-.7-1.9-.7-2.1-3.3-4.6-5.6-4.8-1.3,0-2.4.6-3.2,2.2l2.7,18.2-3,.4-2.8-19.1.2-.4c1.9-4,4.8-4.4,6.3-4.3,3.8.2,7.3,3.7,8.3,6.8.2.5.4,1.1.7,1.8,2.5,6.6,8.4,22.1,3.3,30.3-5.1,8.1-8.1,33.8-8.2,34.1Z"/>
  <path class="st0" d="M115.3,98.8c-7.9-7.1-17.8-14.5-17.9-14.6l1.8-2.4c.1,0,10.1,7.6,18.2,14.8l-2,2.3Z"/>
  <path class="st0" d="M36.1,70.8c-3.6,0-5.9-1.3-7-5.3-1.8-6.8,3.4-11.3,6.3-12.8l1.3,2.7c-.3.1-6.3,3.2-4.7,9.3,1,3.9,3.3,3.8,14.4,1.2,3.1-.7,6.6-1.5,10.8-2.3l.6,3c-4.1.8-7.6,1.6-10.7,2.3-4.5,1-8.2,1.9-11.1,1.9Z"/>
  <path class="st0" d="M39.3,85.5c-4.5,0-7.6-1.5-9-5.5-2.4-6.5,1.3-10.7,3.6-12l1.5,2.6c-.4.3-4.3,2.8-2.3,8.3,2,5.5,9.1,4,26.1-.9l.9,2.9c-8.4,2.4-15.5,4.5-20.8,4.5Z"/>
  <path class="st0" d="M34.9,55.6l-.4-.2c-4-1.9-4.4-4.8-4.3-6.3.2-3.8,3.7-7.3,6.8-8.3.5-.2,1.1-.4,1.8-.7,6.6-2.5,22.1-8.4,30.3-3.3,8.1,5.1,33.8,8.1,34.1,8.2l-.4,3c-1.1-.1-26.7-3.2-35.3-8.6-6.9-4.3-22,1.4-27.6,3.6-.8.3-1.4.5-1.9.7-2.1.7-4.6,3.3-4.8,5.6,0,1.3.6,2.4,2.2,3.2l18.2-2.7.4,3-19.1,2.8Z"/>
  <path class="st0" d="M84,102.7l-2.4-1.9c0-.1,8.4-10.9,15.6-18.9l2.3,2c-7.1,7.9-15.4,18.7-15.5,18.8Z"/>
  <path class="st0" d="M117.5,100.3"/>
  <path class="st0" d="M99.2,84.2l-1.9-2.4c0,0,7.3-5.9,7.3-16.4s-.9-8.3-1.8-12.5c-1.5-7.1-3-13.8,1.5-17.4,2.2-1.7,4.5-2.5,6.7-2.1,3.3.5,5.2,3.2,5.2,3.3l-2.5,1.7s-1.2-1.8-3.2-2.1c-1.3-.2-2.8.3-4.3,1.5-3,2.3-1.8,7.9-.4,14.3.9,4.1,1.8,8.7,1.8,13.1,0,12-8.1,18.6-8.5,18.8Z"/>
  <path class="st0" d="M43.6,102.8c-3.7,0-9-1-11.2-6.3h0c-1.1-3.7-.9-6.8.6-9.4,2.2-3.7,6.2-4.6,6.4-4.6l.7,3-.3-1.5.3,1.5s-3,.7-4.4,3.2c-1,1.7-1.1,4-.3,6.7,2.5,5.9,11.5,4.1,11.6,4l.6,3c-.2,0-1.7.4-3.8.4Z"/>
  <rect class="st0" x="162.1" y="51.1" width="31.5" height="3"/>
  <path class="st0" d="M184.6,87.8c-.1,0-2.9-.7-7.2-2.4-2.8-1.1-14.7-.5-21.4,0l-.3-3c1.9-.2,18.4-1.7,22.9.1,4.1,1.6,6.7,2.3,6.8,2.3l-.7,3Z"/>
  <rect class="st0" x="47.5" y="6" width="3" height="31.5"/>
  <path class="st0" d="M79.3,43.1c-.2-1.9-1.7-18.4.1-22.9,1.6-4.1,2.3-6.7,2.3-6.8l3,.7c0,.1-.7,2.9-2.4,7.2-1.1,2.8-.5,14.7.1,21.4l-3,.3Z"/>
  <rect class="st0" x="149.4" y="162.5" width="3" height="31.5"/>
  <path class="st0" d="M118.7,187l-3-.7c0-.1.7-2.9,2.4-7.2,1.1-2.8.5-14.7-.1-21.4l3-.3c.2,1.9,1.7,18.4-.1,22.9-1.6,4.1-2.3,6.7-2.3,6.8Z"/>
  <rect class="st0" x="6.4" y="148" width="31.5" height="3"/>
  <path class="st0" d="M28.6,120.4c-3.5,0-6.8-.2-8.4-.9-4.1-1.6-6.7-2.3-6.8-2.3l.7-3c.1,0,2.9.7,7.2,2.4,2.8,1.1,14.7.5,21.4-.1l.3,3c-1.2.1-8.3.8-14.5.8Z"/>
</svg>