<?xml version="1.0" encoding="UTF-8"?>
<svg id="Layer_1" xmlns="http://www.w3.org/2000/svg" version="1.1" viewBox="0 0 200 200">
  <!-- Generator: Adobe Illustrator 29.2.0, SVG Export Plug-In . SVG Version: 2.1.0 Build 108)  -->
  <defs>
    <style>
      .st0 {
        fill: #75b523;
        stroke: #75b523;
        stroke-miterlimit: 10;
        stroke-width: 4.5px;
      }
    </style>
  </defs>
  <path class="st0" d="M99.9,155.6c-.4,0-.8-.2-1.1-.5l-55.8-69.5c-.4-.5-.4-1.2,0-1.7l20.2-27.8c.3-.4.7-.6,1.1-.6h70.7c.4,0,.8.2,1.1.5l20.9,27.2c.4.5.4,1.2,0,1.7l-56,70.1c-.3.3-.7.5-1.1.5h0ZM45.8,84.6l54.1,67.3,54.2-67.9-19.8-25.8h-69.3l-19.1,26.4h0Z"/>
  <path class="st0" d="M99.6,154.3c-.6,0-1.2-.4-1.3-1l-20.4-68.3v-.8l7.3-25.9c.2-.7,1-1.2,1.7-1s1.2,1,1,1.7l-7.2,25.5,20.3,67.9c.2.7-.2,1.5-.9,1.7h-.4v.2Z"/>
  <path class="st0" d="M99.7,155.3h-.4c-.7-.2-1.2-1-.9-1.7l20.9-69-7.1-25.4c-.2-.7.2-1.5,1-1.7s1.5.2,1.7,1l7.2,25.7v.8l-21,69.4c-.2.6-.7,1-1.3,1h0Z"/>
  <path class="st0" d="M44.8,85.8c-.8,0-1.4-.6-1.4-1.4s.6-1.4,1.4-1.4l111-.5h0c.8,0,1.4.6,1.4,1.4s-.6,1.4-1.4,1.4l-111,.5h0Z"/>
  <path class="st0" d="M100,30.7c-.8,0-1.4-.6-1.4-1.4V10.9c0-.8.6-1.4,1.4-1.4s1.4.6,1.4,1.4v18.4c0,.8-.6,1.4-1.4,1.4Z"/>
  <path class="st0" d="M100,190.5c-.8,0-1.4-.6-1.4-1.4v-18.4c0-.8.6-1.4,1.4-1.4s1.4.6,1.4,1.4v18.4c0,.8-.6,1.4-1.4,1.4Z"/>
  <path class="st0" d="M50,51.4c-.4,0-.7,0-1-.4l-13-13c-.5-.5-.5-1.4,0-2,.5-.5,1.4-.5,2,0l13,13c.5.5.5,1.4,0,2-.3.3-.6.4-1,.4Z"/>
  <path class="st0" d="M163,164.4c-.4,0-.7-.1-1-.4l-13-13c-.5-.5-.5-1.4,0-2s1.4-.5,2,0l13,13c.5.5.5,1.4,0,2s-.6.4-1,.4Z"/>
  <path class="st0" d="M29.3,101.4H10.9c-.8,0-1.4-.6-1.4-1.4s.6-1.4,1.4-1.4h18.4c.8,0,1.4.6,1.4,1.4s-.6,1.4-1.4,1.4Z"/>
  <path class="st0" d="M189.1,101.4h-18.4c-.8,0-1.4-.6-1.4-1.4s.6-1.4,1.4-1.4h18.4c.8,0,1.4.6,1.4,1.4s-.6,1.4-1.4,1.4Z"/>
  <path class="st0" d="M37,164.4c-.4,0-.7-.1-1-.4-.5-.5-.5-1.4,0-2l13-13c.5-.5,1.4-.5,2,0s.5,1.4,0,2l-13,13c-.3.3-.6.4-1,.4Z"/>
  <path class="st0" d="M150,51.4c-.4,0-.7,0-1-.4-.5-.5-.5-1.4,0-2l13-13c.5-.5,1.4-.5,2,0,.5.5.5,1.4,0,2l-13,13c-.3.3-.6.4-1,.4Z"/>
</svg>