<?xml version="1.0" encoding="UTF-8"?>
<svg id="Layer_1" xmlns="http://www.w3.org/2000/svg" version="1.1" viewBox="0 0 200 200">
  <!-- Generator: Adobe Illustrator 29.2.0, SVG Export Plug-In . SVG Version: 2.1.0 Build 108)  -->
  <defs>
    <style>
      .st0 {
        fill: #75b523;
        stroke: #75b523;
        stroke-linecap: round;
        stroke-linejoin: round;
        stroke-width: 3.1px;
      }
    </style>
  </defs>
  <path class="st0" d="M90.2,80.1c-21.4,0-38.7-17.3-38.7-38.7S68.8,3,90.2,3s38.7,17.3,38.7,38.7-17.3,38.7-38.7,38.7v-.2ZM90.2,6.5c-19.1,0-34.9,15.6-34.9,34.9s15.6,34.9,34.9,34.9,34.9-15.6,34.9-34.9S109.6,6.5,90.2,6.5Z"/>
  <path class="st0" d="M159.6,186.8H20.4c-6.8,0-12.3-5.6-12.3-12.3v-34.9c0-29.1,22-56.1,53.5-65.1,1-.2,2,.2,2.4,1.2.2,1-.2,2-1.2,2.4-29.9,8.6-50.9,33.9-50.9,61.4v34.9c0,4.8,3.8,8.6,8.6,8.6h139.3c4.8,0,8.6-3.8,8.6-8.6v-14.4c0-1,.8-1.8,1.8-1.8s1.8.8,1.8,1.8v14.4c0,6.8-5.6,12.3-12.3,12.3h.2-.1Z"/>
  <path class="st0" d="M144.5,92.7c-.4,0-.8,0-1.2-.4-7.3-6.8-16.4-11.6-26.2-14.2-1-.2-1.6-1.2-1.4-2.2s1.2-1.6,2.2-1.4c10.2,2.5,19.8,7.7,27.7,15,.8.6.8,1.8,0,2.5-.4.4-.8.6-1.4.6h.3Z"/>
  <path class="st0" d="M81.9,169.1h-45.9c-4.4,0-7.7-3.6-7.7-7.7v-28.7c1.6-11.8,7.3-22.1,16-28.9.8-.6,2-.6,2.5.2.6.8.6,2-.2,2.5-7.7,6.2-12.9,15.6-14.6,26.6v28.3c0,2.2,1.8,4.2,4.2,4.2h45.9c1,0,1.8.8,1.8,1.8s-.8,1.8-1.8,1.8h-.2Z"/>
  <path class="st0" d="M151.6,172.5h-.6c-.4,0-40.3-16-38.1-72.6,0-1,.8-1.8,1.8-1.8s0,0,0,0c1,0,22.3-.2,36.1-16,.4-.4,1-.6,1.6-.6s1.2.4,1.4.8c0,0,9,13.1,36.3,17.5.8,0,1.6.8,1.6,1.8s2.4,52.4-39.3,70.9h-1ZM116.7,101.7c-1.2,49.1,29.7,64.7,35.1,66.8,34.9-15.8,36.6-57,36.3-65.3-22-3.8-32.3-13.1-35.7-17.2-12.7,13.1-29.9,15.2-35.7,15.6h0Z"/>
  <path class="st0" d="M147.6,139.2c-.4,0-1,0-1.2-.4l-14.2-13.1c-.8-.6-.8-1.8,0-2.5s1.8-.8,2.5,0l12.9,12,22.5-20.8c.8-.6,2-.6,2.5,0,.6.8.6,2,0,2.5l-23.7,22c-.4.4-.8.4-1.2.4h-.4.2Z"/>
  <circle class="st0" cx="52.1" cy="99.3" r="2.7"/>
</svg>