<?xml version="1.0" encoding="UTF-8"?>
<svg id="Layer_1" xmlns="http://www.w3.org/2000/svg" version="1.1" viewBox="0 0 682 393">
  <!-- Generator: Adobe Illustrator 29.1.0, SVG Export Plug-In . SVG Version: 2.1.0 Build 142)  -->
  <defs>
    <style>
      .st0 {
        fill: #fff;
      }

      .st1 {
        fill: #6c55d5;
      }

      .st2 {
        fill: #ffbb4f;
      }

      .st3 {
        fill: #bed1eb;
      }

      .st4 {
        fill: #297ff4;
        isolation: isolate;
        opacity: .2;
      }

      .st5 {
        fill: #236fd4;
      }

      .st6 {
        fill: #ff7494;
      }

      .st7 {
        fill: #277beb;
      }

      .st8 {
        fill: #d8d1ff;
      }

      .st9 {
        fill: #2d314a;
      }

      .st10 {
        fill: #382c6f;
      }

      .st11 {
        fill: #ff8a9f;
      }

      .st12 {
        fill: #6c55d6;
      }
    </style>
  </defs>
  <path class="st7" d="M347.2,272.6l32.8,113.1h3.8l-26.8-113.1h-9.8ZM312.9,272.6l-32.8,113.1h-3.8l26.8-113.1h9.8Z"/>
  <path class="st6" d="M330,305.8c30.5,0,55.3-24.7,55.3-55.3s-24.7-55.3-55.3-55.3-55.3,24.7-55.3,55.3,24.7,55.3,55.3,55.3Z"/>
  <path class="st10" d="M383.5,267.2l-1.4-.4c1.6-5.2,2.4-10.7,2.4-16.2,0-8.1-1.8-16.1-5.2-23.4l1.4-.6c6,12.7,7,27.2,2.9,40.6h0ZM313.4,304.1c-10-3.2-19-9.1-25.8-17-6.8-8-11.3-17.7-12.9-28.1l1.5-.2c1.5,10.1,5.9,19.6,12.6,27.4,6.7,7.8,15.4,13.5,25.2,16.6l-.4,1.4ZM379.3,277.2l-1.3-.7c.9-1.8,1.8-3.5,2.5-5.4l1.4.6c-.8,1.9-1.6,3.7-2.6,5.5h0ZM210.5,347.3c-2.2,0-4.3-.6-6.1-1.8-1.8-1.2-3.2-2.9-4-4.9-.8-2-1-4.2-.6-6.3.4-2.1,1.5-4.1,3-5.6,1.5-1.5,3.5-2.6,5.6-3,2.1-.4,4.3-.2,6.3.6,2,.8,3.7,2.2,4.9,4,1.2,1.8,1.8,3.9,1.8,6.1,0,2.9-1.2,5.7-3.2,7.7-2,2-4.8,3.2-7.7,3.2h0ZM210.5,327c-1.9,0-3.7.6-5.2,1.6-1.5,1-2.8,2.5-3.5,4.2-.7,1.7-.9,3.6-.5,5.4.4,1.8,1.3,3.5,2.6,4.8,1.3,1.3,3,2.2,4.8,2.6,1.8.4,3.7.2,5.4-.5,1.7-.7,3.2-1.9,4.2-3.5,1-1.5,1.6-3.4,1.6-5.2,0-2.5-1-4.9-2.8-6.7-1.8-1.8-4.2-2.8-6.7-2.8h0Z"/>
  <path class="st11" d="M174.7,336.4h71.7v49.3h-71.7v-49.3Z"/>
  <path class="st10" d="M238.9,336.4h7.5v49.3h-7.5v-49.3ZM174.7,360.3h64.2v1.5h-64.2v-1.5Z"/>
  <path class="st0" d="M201.6,360.3h10.4v6.7h-10.4v-6.7Z"/>
  <path class="st10" d="M357.3,271.2c0,3.5-.7,7-2,10.2h-50.5c-1.5-3.7-2.2-7.7-1.9-11.7.2-4,1.3-7.9,3.3-11.4s4.6-6.6,7.8-9c3.2-2.4,7-4,10.9-4.8,3.9-.8,8-.6,11.9.3,3.9,1,7.5,2.8,10.6,5.4,3.1,2.6,5.6,5.8,7.3,9.4,1.7,3.6,2.6,7.6,2.6,11.6h0Z"/>
  <path class="st10" d="M330,278.7c4.1,0,7.5-3.3,7.5-7.5s-3.3-7.5-7.5-7.5-7.5,3.3-7.5,7.5,3.3,7.5,7.5,7.5Z"/>
  <path class="st1" d="M396.1,236.9c4.9-2.7,6.8-8.9,4.1-13.8-2.7-4.9-8.9-6.8-13.8-4.1-4.9,2.7-6.8,8.9-4.1,13.8,2.7,4.9,8.9,6.8,13.8,4.1Z"/>
  <path class="st2" d="M343.2,213.9l43.2,23,11.2-16.9-38-30.9-16.4,24.8Z"/>
  <path class="st2" d="M354.7,215c7.9-2.5,12.3-10.8,9.8-18.7-2.5-7.9-10.8-12.3-18.7-9.8-7.9,2.5-12.3,10.8-9.8,18.7,2.5,7.9,10.8,12.3,18.7,9.8Z"/>
  <path class="st2" d="M318.3,213l-40.2,27.9-13.1-15.5,34.1-35.1,19.2,22.7h0Z"/>
  <path class="st2" d="M324.7,201.7c.5-8.2-5.7-15.3-14-15.8-8.2-.5-15.3,5.7-15.8,14-.5,8.2,5.7,15.3,14,15.8,8.2.5,15.3-5.7,15.8-14Z"/>
  <path class="st10" d="M313.5,291.6c5.6,0,10.2-4.6,10.2-10.2s-4.6-10.2-10.2-10.2-10.2,4.6-10.2,10.2,4.6,10.2,10.2,10.2Z"/>
  <path class="st10" d="M346.6,291.6c5.6,0,10.2-4.6,10.2-10.2s-4.6-10.2-10.2-10.2-10.2,4.6-10.2,10.2,4.6,10.2,10.2,10.2Z"/>
  <path class="st2" d="M360.9,196.8l-3.6,74.4h-54.5l-3.6-74.4c0-1.4.1-2.8.6-4.2.5-1.3,1.2-2.5,2.2-3.6,1-1,2.2-1.8,3.5-2.4,1.3-.6,2.7-.8,4.1-.8h40.9c1.4,0,2.8.3,4.1.9,1.3.6,2.5,1.4,3.5,2.4,1,1,1.7,2.2,2.2,3.6.5,1.3.7,2.7.6,4.2h0Z"/>
  <path class="st10" d="M357.3,271.2l-.5,10.2v.5c-.1,2.6-1.3,5.1-3.1,6.9-1.9,1.8-4.4,2.8-7,2.8h-33c-2.6,0-5.1-1-7-2.8-1.9-1.8-3-4.3-3.2-6.9v-.5l-.5-10.2h54.4Z"/>
  <path class="st10" d="M355.1,382.6c2.4-2.5,2.3-6.5-.2-8.9-2.5-2.4-6.5-2.3-8.9.2-2.4,2.5-2.3,6.5.2,8.9,2.5,2.4,6.5,2.3,8.9-.2Z"/>
  <path class="st10" d="M348.2,291.8c4.8,0,8.6-3.9,8.6-8.6s-3.9-8.6-8.6-8.6-8.6,3.9-8.6,8.6,3.9,8.6,8.6,8.6Z"/>
  <path class="st10" d="M344.2,378.2l-4.7-95.1h17.3v95.1h-12.6Z"/>
  <path class="st11" d="M363.2,385.7h-19v-7.5h12.6l7.2,4c.3.2.5.4.7.7.2.3.3.6.3,1,0,.5-.2.9-.6,1.3s-.8.5-1.3.5h0Z"/>
  <path class="st10" d="M396.2,298c.8-3.4-1.3-6.8-4.7-7.6-3.4-.8-6.8,1.3-7.6,4.7-.8,3.4,1.3,6.8,4.7,7.6s6.8-1.3,7.6-4.7Z"/>
  <path class="st10" d="M302.6,258.8c1.6.6,3,1.6,4,3,1,1.4,1.6,3,1.7,4.7,0,1.7-.3,3.4-1.2,4.9-.9,1.5-2.2,2.6-3.7,3.4-1.5.7-3.3,1-5,.7-1.7-.2-3.3-1-4.5-2.1-1.3-1.1-2.2-2.6-2.6-4.3-.4-1.7-.3-3.4.2-5,.8-2.1,2.4-3.9,4.4-4.9,2.1-1,4.4-1.1,6.6-.4h0Z"/>
  <path class="st10" d="M387.9,302.6l-91.1-27.5,5.8-16.3,89.6,31.9-4.2,11.9Z"/>
  <path class="st11" d="M392.8,311.1l6.4-17.9-7-2.5-4.3,11.9,1.3,8.1c0,.3.2.6.4.9.2.3.5.5.8.6.5.2,1,.1,1.4,0,.4-.2.8-.6,1-1h0Z"/>
  <path class="st10" d="M305.6,287.8l-12.6-15.4,12.5-11.9,14.8,13.3-14.7,14h0Z"/>
  <path class="st7" d="M203.1,242.7l-.8,7.5-14.9,135.5h-3.8l11.2-142.9h8.3Z"/>
  <path class="st8" d="M551.6,242.7l.8,7.5,14.9,135.5h3.8l-11.1-142.9h-8.3Z"/>
  <path class="st5" d="M186.8,242.7h379.7v7.5H186.8v-7.5Z"/>
  <path class="st2" d="M272.3,242.7c5.6,0,10.2-4.6,10.2-10.2s-4.6-10.2-10.2-10.2-10.2,4.6-10.2,10.2,4.6,10.2,10.2,10.2Z"/>
  <path class="st10" d="M337.7,238.2h35.8v4.5h-35.8v-4.5Z"/>
  <path class="st7" d="M444.7,191.6l-1.9,39.9-.5,11.2h-71.7l2.4-51.1h71.7Z"/>
  <path class="st0" d="M411.3,220.8c2.1-2.1,2.2-5.4.3-7.4-2-2-5.3-2-7.4,0-2.1,2.1-2.2,5.4-.3,7.4,2,2,5.3,2,7.4,0Z"/>
  <path class="st5" d="M442.9,231.5l-.5,11.2h-71.7l72.2-11.2Z"/>
  <path class="st11" d="M323.9,161.2l4.1-.3-.3-4.1c0-1.1-.6-2.1-1.4-2.8s-1.9-1-3-1c-.5,0-1.1.2-1.5.4-.5.2-.9.6-1.2,1-.3.4-.6.9-.8,1.4-.2.5-.2,1-.2,1.6,0,1.1.6,2.1,1.4,2.8.8.7,1.9,1,3,1h0Z"/>
  <path class="st10" d="M347,127.5l-6.6.5,6.6-.5h0Z"/>
  <path class="st11" d="M341.6,166.2l-13.4-.8-.6-7-4.1.3.5,6.5h-1.2c0,0-1.2,20.1-1.2,20.1,0,2.4.8,4.8,2.5,6.6,1.6,1.8,3.9,2.9,6.3,3,2.4.1,4.8-.7,6.6-2.3,1.8-1.6,3-3.8,3.2-6.2l1.2-20.2ZM353,149.9l-.3-2.3c-.2-1.4-.6-2.7-1.1-4l-12.5,1c-1.6.1-3.2,0-4.6-.6-1.5-.5-2.9-1.3-4-2.4l1.3,16.2c.1,1.2.7,2.3,1.6,3.1.9.8,2.1,1.1,3.3,1.1l17.8-1.4-1.2-9.3v-1.2Z"/>
  <path class="st10" d="M339.1,144.5l12.5-1c.6,1.3.9,2.6,1.1,4l.3,2.3v1.1c1.9-.5,3.4-1.4,4.6-2.7,1.2-1.3,2-3,2.2-4.7.3-1.8,0-3.6-.7-5.2-.7-1.6-1.9-3-3.4-3.9-.2-1.7-1-3.2-2.1-4.4-1.2-1.2-2.6-2-4.3-2.4-.6-.2-1.2-.2-1.8-.2h-.4l-6.6.5h-.7c-1.4.2-2.7.8-3.6,1.9-.7-.8-1.6-1.3-2.6-1.6-1-.3-2-.2-3,0-1,.3-1.9.9-2.5,1.7-.7.8-1.1,1.7-1.2,2.8-3.4.5-6.5,2.3-8.7,5-2.2,2.7-3.2,6.1-2.9,9.5l1,11.9.4,5.4c.1,1.8,1,3.5,2.4,4.6,1.4,1.2,3.1,1.7,4.9,1.6h.7s-1-12.2-1-12.2l4.1-.3,1,12.3c.2,2.9,1.6,5.5,3.8,7.4s5,2.8,7.9,2.6l10.8-.9c.7,0,1.5-.3,2.1-.6.7-.3,1.2-.8,1.7-1.4.5-.6.8-1.2,1-1.9.2-.7.3-1.5.2-2.2l-1.7-13.2-17.8,1.4c-1.2,0-2.4-.3-3.3-1.1-.9-.8-1.5-1.9-1.6-3.1l-1.3-16.1c1.2,1.1,2.5,1.9,4,2.4,1.5.5,3.1.7,4.6.6h0Z"/>
  <path class="st11" d="M335.4,237c.3.8.3,1.8,0,2.6-.3.8-.8,1.6-1.5,2.2-.7.6-1.5.9-2.4,1-.9,0-1.8,0-2.6-.5-.8-.4-1.4-1.1-1.8-1.8-.4-.8-.6-1.7-.5-2.6,0-.9.4-1.7,1-2.4.6-.7,1.3-1.2,2.2-1.4,1.1-.3,2.4-.2,3.4.4,1,.6,1.8,1.5,2.2,2.6Z"/>
  <path class="st2" d="M274.2,222.5l57.7,11.3-.9,8.9h-58.8l1.9-20.2Z"/>
  <path class="st11" d="M347.2,235.1c-.4-1.5-1.5-2.8-2.9-3.6-1.4-.8-3-.9-4.5-.5l-9,2.6-2.8-.5v9.6h13.5c.6,0,1.1,0,1.7-.2,1.5-.5,2.8-1.5,3.6-2.9.8-1.4.9-3,.5-4.5h0Z"/>
  <path class="st2" d="M295.6,223.3h8.5v8.5h-8.5v-8.5Z"/>
  <path class="st0" d="M289.9,226.4l.3-1.5,38,7.4-.3,1.5-38-7.4Z"/>
  <path class="st12" d="M312.7,280.7l.4-1.4,26.3,7.9-.4,1.4-26.3-7.9Z"/>
  <path class="st3" d="M82.1,141.3c-2.2,10.2-5.9,20-8.8,30-3,10.3-6.1,20.7-6,31.4.1,14.1,5.5,27.6,15.2,37.9,3.8,4,8.1,7.4,11,12.1,2.9,4.6,4,11,.7,15.4-4.7,6.4-14.6,5-21.4,9-8.6,5-9.8,17.8-4.9,26.4,4.9,8.6,27.1,33.3,58.9,27.2,14.2-2.7,33.5-16.2,32.9-30.7-.6-15.1-15-27.2-14.5-42.3.3-9.9,7-18.2,12.7-26.2,5.7-8,11.1-17.8,8.4-27.3-3.9-14-21.9-18.3-30.6-29.9-5.6-7.5-6.9-17.3-7.2-26.7-.4-9.4-.1-18.9-3.2-27.8-7.6-21.4-34.4-18.9-43.2,21.5Z"/>
  <path class="st10" d="M114.7,195.1h1.5v162.2h-1.5v-162.2Z"/>
  <path class="st10" d="M116.2,241.9l-1.5-.2c2.4-14.7,19.1-23.8,19.8-24.2l.7,1.3c-.2,0-16.8,9.2-19,23.1ZM114.7,305.8c-1.6-9.9-13.4-16.4-13.6-16.5l.7-1.3c.5.3,12.6,6.9,14.3,17.5l-1.5.2Z"/>
  <path class="st2" d="M88.4,351.7h53.8v15.5c0,4.9-1.9,9.6-5.4,13.1-3.5,3.5-8.2,5.4-13.1,5.4h-16.8c-4.9,0-9.6-1.9-13.1-5.4-3.5-3.5-5.4-8.2-5.4-13.1v-15.5Z"/>
  <path class="st10" d="M97.9,384.2c-3.1-1.6-5.7-4.1-7.5-7.1s-2.8-6.4-2.8-9.9v-5.7h1.5v5.7c0,3.2.9,6.4,2.5,9.2s4.1,5,6.9,6.5l-.7,1.3Z"/>
  <path class="st0" d="M88.4,356.5h53.8v1.5h-53.8v-1.5Z"/>
  <path class="st3" d="M0,385.7h681.3v1.5H0v-1.5Z"/>
  <path class="st10" d="M107.9,350.9h34.2v1.5h-34.2v-1.5Z"/>
  <path class="st0" d="M352.6,164.2c0,.5,0,1.1-.2,1.6-.2.5-.4,1-.8,1.4-.3.4-.8.8-1.2,1-.5.3-1,.4-1.5.5s-1.1,0-1.6-.2c-.5-.2-1-.4-1.4-.8-.4-.3-.8-.8-1-1.2-.2-.5-.4-1-.5-1.5l8.2-.7Z"/>
  <path class="st0" d="M529.2,321.9c1.3-7.9-4-15.3-11.9-16.5-7.9-1.3-15.3,4-16.5,11.9-1.3,7.9,4,15.3,11.9,16.5,7.9,1.3,15.3-4,16.5-11.9Z"/>
  <path class="st10" d="M515,334.8c-3,0-5.9-.9-8.4-2.6-2.5-1.7-4.4-4-5.6-6.8-1.1-2.8-1.4-5.8-.9-8.8.6-2.9,2-5.6,4.1-7.8s4.8-3.6,7.8-4.1c2.9-.6,6-.3,8.8.9,2.8,1.1,5.1,3.1,6.8,5.6,1.7,2.5,2.6,5.4,2.6,8.4,0,4-1.6,7.9-4.4,10.7-2.8,2.8-6.7,4.4-10.7,4.4h0ZM515,306c-2.7,0-5.3.8-7.6,2.3-2.2,1.5-4,3.6-5,6.1-1,2.5-1.3,5.2-.8,7.9.5,2.6,1.8,5.1,3.7,7,1.9,1.9,4.3,3.2,7,3.7,2.6.5,5.4.3,7.9-.8,2.5-1,4.6-2.8,6.1-5,1.5-2.2,2.3-4.9,2.3-7.6,0-3.6-1.4-7.1-4-9.7-2.6-2.6-6-4-9.7-4h0Z"/>
  <path class="st0" d="M500.6,334.2c5.3-2.2,7.8-8.3,5.6-13.6-2.2-5.3-8.3-7.8-13.6-5.6-5.3,2.2-7.8,8.3-5.6,13.6,2.2,5.3,8.3,7.8,13.6,5.6Z"/>
  <path class="st10" d="M496.6,335.7c-2.2,0-4.4-.6-6.2-1.9-1.8-1.2-3.3-3-4.1-5-.8-2-1.1-4.3-.6-6.4.4-2.2,1.5-4.1,3-5.7s3.5-2.6,5.7-3c2.2-.4,4.4-.2,6.4.6,2,.8,3.8,2.3,5,4.1,1.2,1.8,1.9,4,1.9,6.2,0,2.9-1.2,5.8-3.3,7.9s-4.9,3.3-7.9,3.3h0ZM496.6,315c-1.9,0-3.8.6-5.4,1.6-1.6,1.1-2.8,2.6-3.6,4.3-.7,1.8-.9,3.7-.6,5.6.4,1.9,1.3,3.6,2.6,4.9,1.3,1.3,3.1,2.3,4.9,2.6,1.9.4,3.8.2,5.6-.5,1.8-.7,3.3-2,4.3-3.5,1.1-1.6,1.6-3.4,1.6-5.4,0-2.6-1-5-2.8-6.8-1.8-1.8-4.2-2.8-6.8-2.8h0Z"/>
  <path class="st7" d="M534,321.1l-1,7.5-.2,1.5-2.7,20.5-3.2,25-.3,2.5-1,7.5h-42l-1-7.5-.2-1.5-2.4-18.2-3.7-28.3-.2-1.5-1-7.5h58.8Z"/>
  <path class="st6" d="M507.9,191.6h15.7v51.1h-15.7v-51.1Z"/>
  <path class="st0" d="M513.1,196.8h5.2v20.7h-5.2v-20.7Z"/>
  <path class="st10" d="M518.7,230.1c0,.6-.2,1.2-.5,1.7-.3.5-.8.9-1.3,1.1-.5.2-1.2.3-1.7.2-.6-.1-1.1-.4-1.5-.8-.4-.4-.7-1-.8-1.5-.1-.6,0-1.2.2-1.7s.6-1,1.1-1.3c.5-.3,1.1-.5,1.7-.5s1.6.3,2.1.9c.6.6.9,1.3.9,2.1Z"/>
  <path class="st4" d="M492.2,191.6h15.7v51.1h-15.7v-51.1Z"/>
  <path class="st0" d="M497.5,196.8h5.2v20.7h-5.2v-20.7Z"/>
  <path class="st10" d="M503.1,230.1c0,.6-.2,1.2-.5,1.7-.3.5-.8.9-1.3,1.1-.5.2-1.2.3-1.7.2-.6-.1-1.1-.4-1.5-.8-.4-.4-.7-1-.8-1.5-.1-.6,0-1.2.2-1.7.2-.5.6-1,1.1-1.3.5-.3,1.1-.5,1.7-.5s1.6.3,2.1.9c.6.6.9,1.3.9,2.1Z"/>
  <path class="st2" d="M476.5,191.6h15.7v51.1h-15.7v-51.1Z"/>
  <path class="st0" d="M481.8,196.8h5.2v20.7h-5.2v-20.7Z"/>
  <path class="st10" d="M487.4,230.1c0,.6-.2,1.2-.5,1.7-.3.5-.8.9-1.3,1.1-.5.2-1.2.3-1.7.2-.6-.1-1.1-.4-1.5-.8-.4-.4-.7-1-.8-1.5-.1-.6,0-1.2.2-1.7s.6-1,1.1-1.3c.5-.3,1.1-.5,1.7-.5s1.6.3,2.1.9c.6.6.9,1.3.9,2.1h0ZM230.9,147.7c-7.1,0-14-2.1-19.8-6-5.9-3.9-10.4-9.5-13.1-16-2.7-6.5-3.4-13.7-2-20.6s4.8-13.3,9.8-18.3c5-5,11.4-8.4,18.3-9.8,6.9-1.4,14.1-.7,20.6,2,6.5,2.7,12.1,7.3,16,13.1,3.9,5.9,6,12.8,6,19.8,0,9.5-3.8,18.5-10.5,25.2s-15.8,10.5-25.2,10.5h0ZM230.9,77.8c-6.8,0-13.4,2-19,5.8-5.6,3.8-10,9.1-12.6,15.3-2.6,6.2-3.3,13.1-1.9,19.8,1.3,6.6,4.6,12.7,9.4,17.5,4.8,4.8,10.9,8,17.5,9.4,6.6,1.3,13.5.6,19.8-1.9,6.2-2.6,11.6-7,15.3-12.6,3.8-5.6,5.8-12.2,5.8-19,0-9.1-3.6-17.8-10-24.2-6.4-6.4-15.1-10-24.2-10Z"/>
  <path class="st3" d="M230.9,141.9c16.5,0,29.9-13.4,29.9-29.9s-13.4-29.9-29.9-29.9-29.9,13.4-29.9,29.9,13.4,29.9,29.9,29.9Z"/>
  <path class="st0" d="M230.9,142.7c-6.1,0-12-1.8-17-5.2-5-3.4-9-8.1-11.3-13.7-2.3-5.6-2.9-11.8-1.7-17.7,1.2-5.9,4.1-11.4,8.4-15.7,4.3-4.3,9.7-7.2,15.7-8.4,5.9-1.2,12.1-.6,17.7,1.7,5.6,2.3,10.4,6.2,13.7,11.3,3.4,5,5.2,11,5.2,17,0,8.1-3.2,15.9-9,21.6-5.7,5.7-13.5,9-21.6,9h0ZM230.9,82.9c-5.8,0-11.4,1.7-16.2,4.9-4.8,3.2-8.5,7.8-10.7,13.1-2.2,5.3-2.8,11.2-1.7,16.8,1.1,5.6,3.9,10.8,8,14.9,4.1,4.1,9.3,6.8,14.9,8,5.6,1.1,11.5.5,16.8-1.7,5.3-2.2,9.9-5.9,13.1-10.7,3.2-4.8,4.9-10.4,4.9-16.2,0-7.7-3.1-15.1-8.5-20.6-5.5-5.5-12.9-8.5-20.6-8.5h0Z"/>
  <path class="st0" d="M230.2,82.2h1.5v6.3h-1.5v-6.3Z"/>
  <path class="st0" d="M230.2,135.6h1.5v6.3h-1.5v-6.3Z"/>
  <path class="st9" d="M216,86.2l3.1,5.4-3.1-5.4Z"/>
  <path class="st0" d="M215.3,86.5l1.3-.7,3.1,5.4-1.3.7-3.1-5.4Z"/>
  <path class="st9" d="M242.7,132.5l3.1,5.4-3.1-5.4Z"/>
  <path class="st0" d="M242.1,132.8l1.3-.7,3.1,5.4-1.3.7-3.1-5.4Z"/>
  <path class="st9" d="M205.1,97.1l5.4,3.2-5.4-3.2Z"/>
  <path class="st0" d="M204.7,97.8l.7-1.3,5.4,3.1-.7,1.3-5.4-3.1Z"/>
  <path class="st9" d="M251.4,123.8l5.4,3.1-5.4-3.1Z"/>
  <path class="st0" d="M251,124.5l.7-1.3,5.4,3.1-.7,1.3-5.4-3.1Z"/>
  <path class="st0" d="M201.1,111.3h6.3v1.5h-6.3v-1.5Z"/>
  <path class="st0" d="M254.5,111.3h6.3v1.5h-6.3v-1.5Z"/>
  <path class="st9" d="M205.1,127l5.4-3.1-5.4,3.1Z"/>
  <path class="st0" d="M204.7,126.4l5.4-3.1.7,1.3-5.4,3.1-.7-1.3Z"/>
  <path class="st9" d="M251.4,100.3l5.4-3.2-5.4,3.2Z"/>
  <path class="st0" d="M251,99.6l5.4-3.1.7,1.3-5.4,3.1-.7-1.3Z"/>
  <path class="st9" d="M216,137.9l3.1-5.4-3.1,5.4Z"/>
  <path class="st0" d="M215.3,137.5l3.1-5.4,1.3.7-3.1,5.4-1.3-.7Z"/>
  <path class="st9" d="M242.7,91.6l3.1-5.4-3.1,5.4Z"/>
  <path class="st0" d="M242.1,91.2l3.1-5.4,1.3.7-3.1,5.4-1.3-.7Z"/>
  <path class="st0" d="M245.1,112.8h-14.9v-18.9h1.5v17.4h13.5v1.5Z"/>
  <path class="st6" d="M243.3,242.9h-10.8l-1.5-23h13.8l-1.5,23h0Z"/>
  <path class="st0" d="M244,205c0,.9-.2,1.8-.5,2.6-.3.8-.8,1.6-1.5,2.2-.6.6-1.4,1.1-2.2,1.5-.8.3-1.7.5-2.6.5v-5.6c-2.3,0-4.5-1-6.1-2.7-1.6-1.7-2.5-3.9-2.5-6.2s.9-4.5,2.5-6.2c1.6-1.7,3.8-2.6,6.1-2.7v9.7c1.8,0,3.6.7,4.8,2,1.3,1.3,2,3,2,4.8h0Z"/>
  <path class="st10" d="M237.1,212.5h-.7v-5.7c-2.5-.2-4.8-1.3-6.4-3.2-1.6-1.9-2.5-4.3-2.4-6.8,0-2.5,1.1-4.8,2.9-6.6,1.8-1.7,4.2-2.7,6.7-2.7h.8v9.8c1.9.2,3.7,1.1,5,2.6,1.3,1.5,1.9,3.4,1.8,5.3,0,1.9-.9,3.8-2.3,5.1-1.4,1.3-3.3,2.1-5.2,2.1h0ZM236.4,189.2c-2.1.2-4,1.2-5.3,2.8-1.4,1.6-2.1,3.6-2,5.7,0,2.1,1,4,2.5,5.5,1.5,1.4,3.5,2.3,5.6,2.3h.8v5.6c1.6-.2,3-.9,4-2.1,1-1.2,1.5-2.7,1.4-4.3,0-1.6-.8-3-1.9-4.1-1.1-1.1-2.6-1.6-4.2-1.6h-.7v-9.7Z"/>
  <path class="st5" d="M530.2,350.7l-3.2,25-.3,2.5-1,7.5h-42l-1-7.5-.2-1.5-2.4-18.2,50.1-7.8h0Z"/>
  <path class="st0" d="M489.1,377.3h-1.5c0,.1,0-.7,0-.7l-4.3-46.5v-.7c0,0,1.4-.1,1.4-.1v.8c0,0,4.3,46.5,4.3,46.5v.7ZM491.5,329.5h1.5c0,0,2.6,47.9,2.6,47.9h-1.5c0,0-2.6-47.9-2.6-47.9ZM499.8,329.4h1.5s.9,48,.9,48h-1.5s-.9-48-.9-48ZM507.1,377.4l.9-48h1.5s-.9,48-.9,48h-1.5ZM513.7,377.3l2.7-48h1.5c0,0-2.7,48.1-2.7,48.1h-1.5ZM526.2,329.5v.7c0,0-4.4,46.5-4.4,46.5v.8c0,0-1.6-.1-1.6-.1v-.7c0,0,4.4-46.5,4.4-46.5v-.8c0,0,1.6.1,1.6.1Z"/>
  <path class="st0" d="M476.2,328.7l.2,1.5h56.4l.2-1.5h-56.8ZM526.8,376.7h-44.4l.2,1.5h44l.3-2.5-.2,1Z"/>
  <path class="st0" d="M369.9,242.7l2.4-51.2h1.5c0,0-2.4,51.2-2.4,51.2h-1.5Z"/>
  <path class="st10" d="M186.8,249.4h100v1.5h-100v-1.5Z"/>
  <path class="st10" d="M335.3,249.4h165.7v1.5h-165.7v-1.5Z"/>
  <path class="st10" d="M523.6,249.4h43v1.5h-43v-1.5Z"/>
  <path class="st10" d="M509.1,249.4h6.9v1.5h-6.9v-1.5Z"/>
  <path class="st10" d="M475.3,320.4h21.8v1.5h-21.8v-1.5Z"/>
  <path class="st10" d="M500.6,385.7h42.2v1.5h-42.2v-1.5Z"/>
  <path class="st10" d="M202.5,385.7h92v1.5h-92v-1.5Z"/>
  <path class="st10" d="M115.9,385.7h34.4v1.5h-34.4v-1.5Z"/>
  <path class="st10" d="M478.6,385.7h11.9v1.5h-11.9v-1.5Z"/>
  <path class="st0" d="M660,119.3l-17.3,36-12.1-9.4,28.8-26.2h0c0,0-38.5,18.7-38.5,18.7l-9.5-7.4,48.4-11.9s0,0,0,0c0,0,0,0,0,0,0,0,0,0,0,0,0,0,0,0,0,0h0Z"/>
  <path class="st7" d="M643,156.5l-13.6-10.6,25.8-23.5-34.4,16.8-11.1-8.6,49.9-12.2c.2,0,.3,0,.5,0,.2,0,.3.1.4.3.1.1.2.3.2.5s0,.4,0,.5l-17.7,36.8ZM631.7,145.8l10.7,8.3,15.5-32.1-26.2,23.8ZM613.1,131.3l7.9,6.1,33.2-16.2-41,10.1Z"/>
  <path class="st0" d="M659.4,119.6l-28.8,26.2-8,7.2c-.1.1-.3.2-.5.2-.2,0-.4,0-.5,0-.2,0-.3-.2-.4-.4-.1-.2-.2-.3-.2-.5v-14l38.4-18.8s0,0,0,0Z"/>
  <path class="st7" d="M622,154.1c-.2,0-.5,0-.7-.1-.3-.1-.6-.4-.7-.6-.2-.3-.3-.6-.3-.9v-14.5l.4-.2,39-19,.8,1-.5.5-36.8,33.5c-.3.3-.8.5-1.2.4ZM621.7,138.8v13.6s0,0,0,.1c0,0,0,0,.1,0,0,0,0,0,.1,0s0,0,.1,0l33.1-30.1-33.5,16.3Z"/>
  <path class="st7" d="M612.6,159.3l-.8-1.3c2-1.2,3.1-2,3.1-2l.9,1.2s-1.1.8-3.1,2h0ZM542.6,181.8v-1.5c2.4,0,4.9-.1,7.3-.3v1.5c-2.4.2-4.9.3-7.3.3ZM535.2,181.5c-2.5-.2-5-.5-7.4-.9l.3-1.5c2.4.4,4.8.7,7.3.9v1.5ZM557.5,180.6l-.2-1.5c2.4-.4,4.8-.8,7.2-1.3l.3,1.4c-2.4.5-4.9,1-7.3,1.4ZM520.5,178.9c-2.4-.7-4.8-1.5-7.1-2.4l.5-1.4c2.2.9,4.6,1.6,6.9,2.3l-.4,1.4ZM572,177.5l-.4-1.4c2.3-.6,4.7-1.4,7-2.2l.5,1.4c-2.3.8-4.7,1.6-7.1,2.2h0ZM506.6,173.5c-2.2-1-4.5-2.1-6.7-3l.6-1.4c2.2,1,4.5,2,6.8,3l-.6,1.4ZM586.1,172.7l-.5-1.4c2.2-.9,4.5-1.9,6.8-2.9l.6,1.4c-2.3,1-4.6,2-6.9,2.9h0ZM493,167.8c-2.3-.9-4.7-1.6-7-2.3l.4-1.4c2.3.7,4.7,1.5,7.1,2.4l-.5,1.4ZM599.7,166.6l-.7-1.3c2.2-1.1,4.4-2.3,6.5-3.5l.7,1.3c-2.1,1.2-4.3,2.4-6.6,3.5ZM478.9,163.5c-2.4-.6-4.8-1.1-7.2-1.5l.3-1.5c2.4.4,4.9,1,7.3,1.6l-.4,1.4ZM428,163.2l-.4-1.4c2.3-.6,4.8-1.2,7.3-1.6l.3,1.5c-2.4.4-4.8,1-7.1,1.6h0ZM464.4,160.9c-2.5-.3-4.9-.5-7.3-.6v-1.5c2.5.1,5,.3,7.5.6l-.2,1.5ZM442.4,160.6l-.2-1.5c2.4-.2,5-.4,7.5-.4v1.5c-2.4,0-4.9.2-7.3.4h0ZM417.8,167.1l-.7-1.3s1.2-.7,3.5-1.6l.6,1.4c-1.1.4-2.2.9-3.3,1.5h0Z"/>
  <path class="st7" d="M469.2,140.3h-40.2v-27.9h40.2v27.9ZM430.5,138.8h37.2v-24.9h-37.2v24.9Z"/>
  <path class="st7" d="M449.6,130.6l-20.3-16.9,1-1.1,19.3,16.1,18.4-16.1,1,1.1-19.4,16.9h0Z"/>
  <path class="st0" d="M473.4,113.1c0,1-.3,2-.8,2.8-.5.8-1.3,1.5-2.2,1.8-.9.4-1.9.5-2.9.3-1-.2-1.9-.7-2.6-1.4-.7-.7-1.2-1.6-1.4-2.6-.2-1,0-2,.3-2.9.4-.9,1-1.7,1.8-2.2.8-.6,1.8-.8,2.8-.8s2.6.5,3.5,1.5c.9.9,1.5,2.2,1.5,3.5h0Z"/>
  <path class="st7" d="M468.4,118.9c-1.1,0-2.2-.3-3.2-1-.9-.6-1.7-1.5-2.1-2.6-.4-1-.6-2.2-.3-3.3.2-1.1.8-2.1,1.6-2.9.8-.8,1.8-1.4,2.9-1.6,1.1-.2,2.3-.1,3.3.3,1.1.4,1.9,1.2,2.6,2.1.6.9,1,2.1,1,3.2,0,1.5-.6,3-1.7,4s-2.5,1.7-4,1.7h0ZM468.4,108.9c-.8,0-1.7.2-2.4.7-.7.5-1.2,1.1-1.6,1.9-.3.8-.4,1.6-.2,2.4.2.8.6,1.6,1.2,2.2.6.6,1.3,1,2.2,1.2.8.2,1.7,0,2.5-.2.8-.3,1.4-.9,1.9-1.6.5-.7.7-1.5.7-2.4,0-1.1-.5-2.2-1.3-3-.8-.8-1.9-1.2-3-1.2h0Z"/>
  <path class="st5" d="M600,201h1.5v4.2h-1.5v-4.2ZM600,226.1h1.5v4.2h-1.5v-4.2ZM592.7,203.3l1.3-.7,2.1,3.6-1.3.7-2.1-3.6ZM605.3,225l1.3-.7,2.1,3.6-1.3.7-2.1-3.6ZM588.8,206.6l.7-1.3,3.6,2.1-.7,1.3-3.6-2.1ZM609.4,221.5l.7-1.3,3.6,2.1-.7,1.3-3.6-2.1Z"/>
  <path class="st5" d="M586,214.9h4.2v1.5h-4.2v-1.5ZM611.2,214.9h4.2v1.5h-4.2v-1.5Z"/>
  <path class="st5" d="M587.6,222.4l3.6-2.1.7,1.3-3.6,2.1-.7-1.3ZM609.4,209.8l3.6-2.1.7,1.3-3.6,2.1-.7-1.3Z"/>
  <path class="st5" d="M592.7,227.9l2.1-3.6,1.3.7-2.1,3.6-1.3-.7ZM605.3,206.1l2.1-3.6,1.3.7-2.1,3.6-1.3-.7Z"/>
  <path class="st5" d="M296,16h1.5v4.2h-1.5v-4.2ZM296,41.1h1.5v4.2h-1.5v-4.2ZM288.8,18.3l1.3-.7,2.1,3.6-1.3.7-2.1-3.6ZM301.4,40.1l1.3-.7,2.1,3.6-1.3.7-2.1-3.6ZM283.7,24l.7-1.3,3.6,2.1-.7,1.3-3.6-2.1ZM305.5,36.5l.7-1.3,3.6,2.1-.7,1.3-3.6-2.1Z"/>
  <path class="st5" d="M282.1,29.9h4.2v1.5h-4.2v-1.5ZM307.3,29.9h4.2v1.5h-4.2v-1.5Z"/>
  <path class="st5" d="M283.7,37.4l3.6-2.1.7,1.3-3.6,2.1-.7-1.3ZM305.5,24.8l3.6-2.1.7,1.3-3.6,2.1-.7-1.3Z"/>
  <path class="st5" d="M288.8,43l2.1-3.6,1.3.7-2.1,3.6-1.3-.7ZM301.4,21.2l2.1-3.6,1.3.7-2.1,3.6-1.3-.7Z"/>
</svg>