<?xml version="1.0" encoding="UTF-8"?>
<svg id="Layer_1" xmlns="http://www.w3.org/2000/svg" version="1.1" viewBox="0 0 100 100">
  <!-- Generator: Adobe Illustrator 29.1.0, SVG Export Plug-In . SVG Version: 2.1.0 Build 142)  -->
  <defs>
    <style>
      .st0 {
        fill: #fff;
      }

      .st1 {
        fill: none;
        stroke: #fff;
        stroke-miterlimit: 10;
        stroke-width: 5.9px;
      }
    </style>
  </defs>
  <path class="st0" d="M68.3,41.6c0,1.9-.3,3.6-.8,5.4-2.3,7.5-17.3,29.7-17.3,29.7,0,0-15.5-22.3-17.8-29.7-2.9-9.7,2.5-20,12.2-22.9s20,2.5,22.9,12.2c.5,1.8.8,3.5.8,5.3ZM55.9,41.7c0-3.3-2.6-6-6-6h0c-3.3,0-6,2.6-6,6s2.6,6,6,6,6-2.6,6-6h0Z"/>
  <circle class="st1" cx="50" cy="50" r="46.1"/>
</svg>