<?xml version="1.0" encoding="UTF-8"?>
<svg id="Layer_1" xmlns="http://www.w3.org/2000/svg" version="1.1" viewBox="0 0 168.3 74.3">
  <!-- Generator: Adobe Illustrator 29.1.0, SVG Export Plug-In . SVG Version: 2.1.0 Build 142)  -->
  <defs>
    <style>
      .st0 {
        fill: #77cb3b;
      }

      .st1 {
        fill: #666;
      }
    </style>
  </defs>
  <g>
    <path class="st1" d="M15.8,60.9h-3.9v2.7h4.3v1h-5.5v-7.9h5.2v1h-4.1v2.3h3.9v1Z"/>
    <path class="st1" d="M26.3,62.3c-.3,1.4-1.4,2.4-3.2,2.4s-3.6-1.8-3.6-4,1.2-4.1,3.6-4.1,2.9,1.1,3.2,2.4h-1.2c-.3-.8-.8-1.5-2-1.5s-2.4,1.5-2.4,3.1.6,3.1,2.4,3.1,1.7-.7,2-1.4h1.2Z"/>
    <path class="st1" d="M37.1,60.5c0,2.2-1.2,4.1-3.8,4.1s-3.7-1.8-3.7-4.1,1.3-4.1,3.8-4.1,3.7,1.7,3.7,4ZM31,60.6c0,1.7.8,3.1,2.5,3.1s2.5-1.5,2.5-3.1-.8-3.1-2.5-3.1-2.5,1.4-2.5,3.1Z"/>
    <path class="st1" d="M46.2,56.6h5.2v1h-4v2.5h3.8v1h-3.8v3.5h-1.2v-7.9Z"/>
    <path class="st1" d="M55.6,62.3l-.8,2.3h-1.2l2.8-7.9h1.5l2.9,7.9h-1.2l-.8-2.3h-3.1ZM58.4,61.3c-.7-2-1.1-3.1-1.3-3.7h0c-.2.7-.6,2-1.2,3.7h2.5Z"/>
    <path class="st1" d="M65.4,61.1v3.4h-1.2v-7.9h3.2c1.6,0,2.5.9,2.5,2.1s-.6,1.7-1.3,1.9c.6.2,1.2.6,1.2,2v.3c0,.5,0,1.2.1,1.6h-1.1c-.1-.3-.1-1-.1-1.7v-.2c0-1.1-.3-1.6-1.7-1.6h-1.5ZM65.4,60.1h1.7c1.2,0,1.7-.4,1.7-1.3s-.5-1.3-1.6-1.3h-1.8v2.5Z"/>
    <path class="st1" d="M80.7,61.2c0-1.4,0-2.9,0-3.8h0c-.3,1.3-1.5,4.6-2.4,7.1h-1c-.7-2.1-1.9-5.7-2.3-7.1h0c0,.9,0,2.7,0,4v3.1h-1.1v-7.9h1.8c.8,2.4,1.9,5.5,2.1,6.5h0c.2-.8,1.4-4.2,2.3-6.5h1.7v7.9h-1.1v-3.3Z"/>
    <path class="st1" d="M86.7,62.3c.2.9.8,1.4,1.9,1.4s1.6-.5,1.6-1.3-.4-1.2-1.9-1.6c-1.9-.5-2.5-1.1-2.5-2.2s.9-2.2,2.7-2.2,2.7,1.1,2.8,2.2h-1.2c-.1-.7-.5-1.2-1.7-1.2s-1.4.4-1.4,1.1.4,1,1.8,1.3c2.3.5,2.7,1.4,2.7,2.5s-1,2.3-2.9,2.3-2.9-1.1-3.1-2.3h1.2Z"/>
    <path class="st1" d="M100.5,56.6h3.1c1.6,0,2.6.9,2.6,2.3s-1.1,2.4-2.7,2.4h-1.8v3.2h-1.2v-7.9ZM101.7,60.4h1.7c1,0,1.6-.5,1.6-1.4s-.6-1.4-1.5-1.4h-1.8v2.8Z"/>
    <path class="st1" d="M112.2,64.6l-2.9-7.9h1.3l1.4,3.9c.4,1.2.8,2.3,1,3h0c.2-.7.6-1.8,1-3l1.4-3.9h1.2l-3,7.9h-1.4Z"/>
    <path class="st1" d="M122.1,57.6h-2.5v-1h6.2v1h-2.5v6.9h-1.2v-6.9Z"/>
    <path class="st1" d="M134.4,56.6h1.2v6.9h4.1l-.2,1h-5.1v-7.9Z"/>
    <path class="st1" d="M143.5,57.6h-2.5v-1h6.2v1h-2.5v6.9h-1.2v-6.9Z"/>
    <path class="st1" d="M150.7,56.6h2.9c2.2,0,3.8,1.5,3.8,3.9s-1.5,4-3.8,4h-2.8v-7.9ZM151.8,63.6h1.6c1.8,0,2.6-1.3,2.6-3s-.8-2.9-2.6-2.9h-1.6v6Z"/>
  </g>
  <g>
    <path class="st0" d="M36.5,40.1c-1.1-2.1-1.7-4.6-1.7-7.5s.6-5.3,1.7-7.4c1.1-2,2.5-3.6,4.4-4.8-.3-.8-.6-1.5-1-2.2-1.5-2.7-3.5-4.8-6.2-6.3-2.7-1.5-5.9-2.2-9.6-2.2h-13.4v36.4h13.4c3.7,0,6.9-.7,9.6-2.2,1.3-.7,2.5-1.6,3.5-2.6-.3-.4-.5-.8-.8-1.3ZM32.2,34.2c-.7,1.6-1.8,2.7-3.2,3.4-1.4.7-3.1,1-5.2,1h-4.3v-21.4h4.2c2.1,0,3.8.3,5.3,1,1.4.7,2.5,1.8,3.2,3.4.7,1.6,1.1,3.6,1.1,6.3s-.4,4.7-1.1,6.3Z"/>
    <path class="st0" d="M90.4,9.7c4,0,6.9,1.8,8.4,4.2v-4.2h8.3v27.5c0,7.3-4.2,13.4-13.6,13.4s-13.3-4.1-14.1-10.6h8.2c.5,2,2.6,3.4,5.5,3.4s5.7-1.7,5.7-6.2v-3.8c-1.5,2.4-4.4,4.3-8.4,4.3-6.7,0-12-5.5-12-14s5.3-13.9,12-13.9ZM92.8,17c-3.1,0-5.9,2.3-5.9,6.7s2.8,6.8,5.9,6.8,5.9-2.4,5.9-6.7-2.8-6.7-5.9-6.7Z"/>
    <path class="st0" d="M110.1,9.7h8.4v12.7c1.7-2.4,4.7-4,8.5-4,6.2,0,10.4,4.3,10.4,11.7v16h-8.4v-14.9c0-3.7-2.1-5.8-5.3-5.8s-5.3,2.1-5.3,5.8v14.9h-8.4V9.7Z"/>
    <path class="st0" d="M143.6,24.6h-3.3v-7h3.3v-7.9h8.4v7.9h5.5v7h-5.5v12.2c0,1.6.7,2.3,2.6,2.3h3v7.1h-4.3c-5.7,0-9.7-2.4-9.7-9.5v-12.1Z"/>
    <g>
      <rect class="st0" x="67.2" y="19.5" width="8.6" height="26.7"/>
      <circle class="st0" cx="71.5" cy="14" r="4.4"/>
    </g>
    <g>
      <g>
        <path class="st0" d="M52.8,27.1c-.4-.7-1-1.3-1.7-1.7-.7-.4-1.6-.6-2.5-.6s-1.8.2-2.6.6c-.8.4-1.4,1-1.8,1.8-.4.7-.7,1.5-.7,2.4h10.1c0-.9-.2-1.7-.7-2.5Z"/>
        <path class="st0" d="M55,9.7v10.3c1,.5,2,1.2,2.8,2.1,1.2,1.2,2.1,2.6,2.7,4.4.7,1.7,1,3.7,1,6v2.2h-18.2v.2c0,1.1.2,2.1.7,2.9.4.8,1.1,1.5,1.9,1.9.8.5,1.8.7,2.9.7s1.5-.1,2.1-.3c.6-.2,1.2-.5,1.6-.9.4-.4.8-.9,1-1.5h4.4c0,.1,3.6.2,3.6.2-.3,1.8-1.1,3.3-2.2,4.7-1.1,1.3-2.5,2.3-4.2,3v.7h8.7V9.7h-8.7Z"/>
      </g>
      <path class="st0" d="M41,20.4c4.1-2.8,9.9-3,14.2-.3-4.4-2.3-9.9-2.2-14.2.3h0Z"/>
      <path class="st0" d="M54.8,45.6c-5.1,2.8-11.9,1.7-16-2.4-.6-.6-1.1-1.2-1.6-1.9.5.6,1.1,1.2,1.7,1.8,4.2,3.9,10.7,4.9,15.9,2.5h0Z"/>
    </g>
  </g>
</svg>