<?xml version="1.0" encoding="UTF-8"?>
<svg id="Layer_1" xmlns="http://www.w3.org/2000/svg" version="1.1" viewBox="0 0 205.2 83.1">
  <!-- Generator: Adobe Illustrator 29.1.0, SVG Export Plug-In . SVG Version: 2.1.0 Build 142)  -->
  <defs>
    <style>
      .st0 {
        fill: #fff;
      }
    </style>
  </defs>
  <g>
    <path class="st0" d="M16.3,71.6h-4.9v3.4h5.4l-.2,1.3h-6.7v-10h6.6v1.3h-5.2v2.9h4.9v1.3Z"/>
    <path class="st0" d="M29.5,73.3c-.4,1.7-1.7,3-4,3s-4.5-2.3-4.5-5.1,1.5-5.2,4.6-5.2,3.7,1.4,4,3.1h-1.5c-.3-1-1-1.8-2.6-1.8s-3,1.9-3,3.9.8,3.9,3,3.9,2.2-.9,2.5-1.8h1.5Z"/>
    <path class="st0" d="M43.2,71.1c0,2.8-1.6,5.2-4.7,5.2s-4.6-2.3-4.6-5.2,1.7-5.2,4.8-5.2,4.6,2.1,4.6,5.1ZM35.4,71.1c0,2.1,1.1,3.9,3.1,3.9s3.1-1.9,3.1-3.9-1-3.9-3.1-3.9-3.1,1.8-3.1,3.9Z"/>
    <path class="st0" d="M54.7,66.2h6.5v1.3h-5.1v3.1h4.8v1.3h-4.8v4.4h-1.5v-10Z"/>
    <path class="st0" d="M66.5,73.3l-1,2.9h-1.5l3.5-10h1.8l3.7,10h-1.6l-1.1-2.9h-3.9ZM70.1,72.1c-.9-2.5-1.4-3.9-1.6-4.7h0c-.2.9-.8,2.5-1.5,4.7h3.2Z"/>
    <path class="st0" d="M79,71.9v4.3h-1.5v-10h4c2.1,0,3.2,1.1,3.2,2.7s-.7,2.1-1.7,2.4c.8.2,1.5.8,1.5,2.6v.4c0,.7,0,1.5.1,2h-1.4c-.2-.4-.2-1.2-.2-2.2v-.2c0-1.4-.4-2-2.1-2h-1.9ZM79,70.6h2.1c1.5,0,2.1-.6,2.1-1.6s-.7-1.6-2-1.6h-2.2v3.2Z"/>
    <path class="st0" d="M98.3,72c0-1.8,0-3.7,0-4.8h0c-.4,1.7-1.9,5.8-3.1,9h-1.3c-.8-2.6-2.4-7.2-2.8-9h0c0,1.2.1,3.4.1,5.1v3.9h-1.4v-10h2.2c1.1,3,2.4,6.9,2.7,8.2h0c.2-1,1.8-5.3,2.9-8.2h2.1v10h-1.4v-4.2Z"/>
    <path class="st0" d="M105.9,73.4c.3,1.2,1.1,1.8,2.5,1.8s2.1-.7,2.1-1.6-.5-1.5-2.4-2c-2.4-.6-3.2-1.4-3.2-2.8s1.1-2.7,3.4-2.7,3.4,1.4,3.6,2.7h-1.5c-.2-.8-.7-1.6-2.1-1.6s-1.8.5-1.8,1.4.5,1.2,2.3,1.7c2.9.7,3.4,1.8,3.4,3.1s-1.2,2.9-3.7,2.9-3.7-1.4-3.9-2.9h1.5Z"/>
    <path class="st0" d="M123.3,66.2h3.9c2,0,3.3,1.1,3.3,2.9s-1.5,3-3.4,3h-2.3v4h-1.5v-10ZM124.8,70.9h2.2c1.3,0,2-.6,2-1.8s-.8-1.8-1.9-1.8h-2.2v3.5Z"/>
    <path class="st0" d="M138,76.2l-3.6-10h1.6l1.7,4.9c.5,1.5,1,2.9,1.2,3.8h0c.2-.8.7-2.3,1.3-3.8l1.8-5h1.5l-3.7,10h-1.8Z"/>
    <path class="st0" d="M150.6,67.4h-3.2v-1.3h7.9v1.3h-3.2v8.8h-1.5v-8.8Z"/>
    <path class="st0" d="M166.1,66.2h1.5v8.8h5.2l-.2,1.3h-6.5v-10Z"/>
    <path class="st0" d="M177.7,67.4h-3.2v-1.3h7.9v1.3h-3.2v8.8h-1.5v-8.8Z"/>
    <path class="st0" d="M186.7,66.2h3.7c2.8,0,4.7,1.9,4.7,4.9s-1.9,5.1-4.8,5.1h-3.6v-10ZM188.2,75h2c2.3,0,3.3-1.6,3.3-3.8s-1-3.7-3.3-3.7h-2v7.5Z"/>
  </g>
  <g>
    <path class="st0" d="M42.4,45.3c-1.4-2.7-2.1-5.8-2.1-9.5s.7-6.7,2.1-9.4c1.3-2.6,3.2-4.6,5.6-6-.4-1-.8-1.9-1.3-2.8-1.8-3.4-4.5-6.1-7.8-7.9-3.4-1.8-7.4-2.7-12.1-2.7H9.9v46h17c4.7,0,8.7-.9,12.1-2.8,1.7-.9,3.1-2,4.4-3.3-.3-.5-.7-1-1-1.6ZM37,37.9c-.9,2-2.3,3.4-4.1,4.3-1.8.9-4,1.3-6.5,1.3h-5.5v-27h5.3c2.6,0,4.9.4,6.7,1.3,1.8.9,3.2,2.3,4.1,4.3.9,2,1.4,4.6,1.4,7.9s-.5,6-1.4,7.9Z"/>
    <path class="st0" d="M110.5,6.9c5,0,8.7,2.3,10.6,5.4v-5.3h10.5v34.8c0,9.2-5.3,17-17.2,17s-16.9-5.2-17.8-13.4h10.4c.7,2.6,3.3,4.2,6.9,4.2s7.1-2.1,7.1-7.9v-4.9c-1.9,3-5.5,5.4-10.6,5.4-8.4,0-15.1-6.9-15.1-17.7s6.7-17.6,15.1-17.6ZM113.6,16.1c-3.9,0-7.5,3-7.5,8.4s3.6,8.6,7.5,8.6,7.5-3,7.5-8.5-3.5-8.5-7.5-8.5Z"/>
    <path class="st0" d="M135.4,6.9h10.6v16.1c2.1-3,5.9-5,10.7-5,7.9,0,13.2,5.5,13.2,14.8v20.2h-10.6v-18.8c0-4.7-2.6-7.3-6.6-7.3s-6.6,2.6-6.6,7.3v18.8h-10.6V6.9Z"/>
    <path class="st0" d="M177.7,25.8h-4.2v-8.8h4.2V6.9h10.6v10h7v8.8h-7v15.4c0,2,.9,2.9,3.2,2.9h3.8v9h-5.4c-7.2,0-12.2-3-12.2-12.1v-15.2Z"/>
    <g>
      <rect class="st0" x="81.1" y="19.3" width="10.9" height="33.7"/>
      <circle class="st0" cx="86.6" cy="12.3" r="5.5"/>
    </g>
    <g>
      <g>
        <path class="st0" d="M63,28.9c-.5-.9-1.3-1.6-2.2-2.1-.9-.5-2-.8-3.2-.8s-2.3.3-3.3.8c-1,.5-1.7,1.3-2.3,2.2-.5.9-.8,1.9-.9,3h12.8c0-1.2-.3-2.2-.8-3.1Z"/>
        <path class="st0" d="M65.8,6.9v13c1.3.7,2.5,1.6,3.5,2.6,1.5,1.5,2.6,3.3,3.5,5.5.8,2.2,1.2,4.7,1.2,7.5v2.7h-23v.3c0,1.4.3,2.6.8,3.7.6,1.1,1.3,1.9,2.4,2.5,1,.6,2.2.9,3.6.9s1.9-.1,2.6-.4c.8-.3,1.5-.7,2-1.2.6-.5,1-1.2,1.3-1.9l5.5.2h4.5c-.4,2.4-1.3,4.4-2.7,6-1.4,1.6-3.2,2.9-5.4,3.8v.9h11V6.9h-11Z"/>
      </g>
      <path class="st0" d="M48.1,20.4c5.2-3.6,12.5-3.7,17.9-.4-5.5-3-12.5-2.8-17.9.4h0Z"/>
      <path class="st0" d="M65.5,52.2c-6.5,3.5-15,2.2-20.2-3-.7-.7-1.4-1.5-2-2.4.7.8,1.4,1.5,2.1,2.2,5.3,4.9,13.5,6.2,20.1,3.2h0Z"/>
    </g>
  </g>
</svg>