<?xml version="1.0" encoding="UTF-8"?>
<svg id="Layer_1" xmlns="http://www.w3.org/2000/svg" version="1.1" viewBox="0 0 200 200">
  <!-- Generator: Adobe Illustrator 29.2.0, SVG Export Plug-In . SVG Version: 2.1.0 Build 108)  -->
  <defs>
    <style>
      .st0 {
        stroke-width: 2.3px;
      }

      .st0, .st1, .st2, .st3 {
        fill: none;
        stroke: #75b523;
      }

      .st0, .st2 {
        stroke-linecap: round;
        stroke-linejoin: round;
      }

      .st1 {
        stroke-width: .8px;
      }

      .st1, .st3 {
        stroke-miterlimit: 10;
      }

      .st4 {
        fill: #75b523;
      }

      .st2 {
        stroke-width: 1.2px;
      }

      .st3 {
        stroke-width: .9px;
      }
    </style>
  </defs>
  <circle class="st4" cx="11" cy="96.6" r="1.9"/>
  <circle class="st4" cx="97.7" cy="31.2" r="1.9"/>
  <circle class="st4" cx="89.2" cy="70.9" r="2.9"/>
  <path class="st2" d="M71.3,158.9s-.4,5.7-5.1,5.8c0,0,3.3,1.3,4.4,5.9,0,0,.2-5.3,5.3-5.1,0,0-4.8-.5-4.6-6.6h0Z"/>
  <path class="st4" d="M149.8,139.2s-.6,5.4-5.1,5.6c0,0,4.3,2.1,4.8,5.9,0,0,1.7-5,5.5-5.1,0,0-4.7-.5-5-6.3h0Z"/>
  <path class="st4" d="M171.8,64.8s-.4,3.6-3.5,3.7c0,0,2.8,1.4,3.2,3.9,0,0,1.1-3.4,3.7-3.4,0,0-3.2-.3-3.4-4.2Z"/>
  <g>
    <path class="st1" d="M136.2,43.9s-71.7-4.1-119.8,20.7c0,0-21.7,10.9-10.5,13.5,0,0,16.2.7,68-19.3,0,0,37.2-15.2,62.3-15Z"/>
    <path class="st1" d="M117.4,81.8s.7-23.4,34.1-23c2.4,0,5.4-.9,8-4,0,0-3.5,31.4-32.1,30.3"/>
    <path class="st1" d="M134.9,97.1s9.9-17,40.2-3c0,0,15.9,8,22.3,8,0,0-9.3,24.2-40,21.7,0,0-12.9-3.1-19-13"/>
    <path class="st1" d="M179.3,107.5c-14.8,12.8-32.8-.2-32.8-.2l-18.4-10.9C64.5,51.5,5.4,127.2,5.4,127.2c0,0,7.5-20.2,46.4,5.8,0,0,41.9,27.7,84-12.3"/>
    <path class="st1" d="M6.2,127.1s18.8-4.8,33.4,19.6"/>
    <path class="st1" d="M27,127.5s16.9,3,17.1,27.5c0,0-7.4-4.8-13.7-6.1,0,0-13.7-4.2-13.7-20.1"/>
    <path class="st1" d="M100,83.4s23.1,4,41.7-14.1"/>
    <path class="st1" d="M110.9,87.6c4.1,5.7,6.4,12.8,5.8,20.4-1.2,17.3-16.1,30.2-33.3,29.1s-30.2-16.1-29.1-33.3c1.1-17.2,2.6-11.8,6.1-16.5"/>
    <path class="st3" d="M97.5,106.9c-.4,6.4-6,11.6-12.3,10.8-10.3-1.2-10.7-10.3-10.7-10.3,0,0,4.7.2,5.9-3.5s-2.5-6-2.5-6c0,0,3.7-3.5,8.9-3.4,6.4.2,11.3,6,10.8,12.3h0Z"/>
    <line class="st3" x1="86.5" y1="82.6" x2="86.5" y2="89.7"/>
    <line class="st3" x1="82.3" y1="82.5" x2="83.4" y2="89.2"/>
    <line class="st3" x1="77.9" y1="82.7" x2="80.5" y2="89.3"/>
    <line class="st3" x1="73.6" y1="83.4" x2="78" y2="91.1"/>
    <line class="st3" x1="68.7" y1="84.4" x2="75.3" y2="92.4"/>
    <line class="st3" x1="63.8" y1="85.6" x2="73.6" y2="94.6"/>
    <line class="st3" x1="59.5" y1="89.5" x2="71.8" y2="97"/>
    <line class="st3" x1="56.6" y1="94.3" x2="70.7" y2="99.8"/>
    <line class="st3" x1="55" y1="99.5" x2="70.2" y2="102.5"/>
    <line class="st3" x1="54.4" y1="104.9" x2="69.6" y2="105.4"/>
    <line class="st3" x1="54.8" y1="110.4" x2="70" y2="108.3"/>
    <line class="st3" x1="70.7" y1="111.1" x2="56" y2="116.4"/>
    <line class="st3" x1="71.6" y1="113.6" x2="58.5" y2="120.9"/>
    <line class="st3" x1="73.1" y1="115.9" x2="60.9" y2="125.2"/>
    <line class="st3" x1="75" y1="118.3" x2="64.8" y2="129.2"/>
    <line class="st3" x1="77.3" y1="119.9" x2="69.5" y2="132.7"/>
    <line class="st3" x1="79.9" y1="121.1" x2="74.7" y2="135"/>
    <line class="st3" x1="82.6" y1="121.7" x2="80" y2="136.6"/>
    <line class="st3" x1="85.5" y1="122.3" x2="85.4" y2="137.2"/>
    <line class="st3" x1="88.3" y1="122" x2="90.8" y2="136.4"/>
    <line class="st3" x1="91.2" y1="121.3" x2="95.7" y2="135.4"/>
    <line class="st3" x1="94" y1="120.4" x2="101.1" y2="133.6"/>
    <line class="st3" x1="96.2" y1="118.7" x2="105.3" y2="130"/>
    <line class="st3" x1="98.4" y1="116.7" x2="109" y2="126.3"/>
    <line class="st3" x1="99.6" y1="114.2" x2="112.4" y2="121.7"/>
    <line class="st3" x1="101.5" y1="111.8" x2="114.7" y2="117"/>
    <line class="st3" x1="102" y1="109" x2="116.3" y2="111.9"/>
    <line class="st3" x1="102.3" y1="106.2" x2="116.8" y2="106.6"/>
    <line class="st3" x1="101.9" y1="103.3" x2="116.5" y2="101.6"/>
    <line class="st3" x1="101.5" y1="100.5" x2="115.2" y2="96.1"/>
    <line class="st3" x1="100.4" y1="97.9" x2="112.9" y2="91"/>
    <line class="st3" x1="98.8" y1="95.4" x2="109.4" y2="86.8"/>
    <line class="st3" x1="96.8" y1="93.4" x2="104.3" y2="85"/>
    <line class="st3" x1="94.4" y1="92" x2="99.6" y2="83.7"/>
    <line class="st3" x1="91.9" y1="90.7" x2="95.4" y2="82.9"/>
    <line class="st3" x1="89.4" y1="89.7" x2="90.7" y2="82.3"/>
  </g>
  <g>
    <path class="st0" d="M136.2,43.9s-71.7-4.1-119.8,20.7c0,0-21.7,10.9-10.5,13.5,0,0,16.2.7,68-19.3,0,0,37.2-15.2,62.3-15Z"/>
    <path class="st0" d="M117.4,81.8s.7-23.4,34.1-23c2.4,0,5.4-.9,8-4,0,0-3.5,31.4-32.1,30.3"/>
    <path class="st0" d="M134.9,97.1s9.9-17,40.2-3c0,0,15.9,8,22.3,8,0,0-9.3,24.2-40,21.7,0,0-12.9-3.1-19-13"/>
    <path class="st0" d="M179.3,107.5c-14.8,12.8-32.8-.2-32.8-.2l-18.4-10.9C64.5,51.5,5.4,127.2,5.4,127.2c0,0,7.5-20.2,46.4,5.8,0,0,41.9,27.7,84-12.3"/>
    <path class="st0" d="M6.2,127.1s18.8-4.8,33.4,19.6"/>
    <path class="st0" d="M27,127.5s16.9,3,17.1,27.5c0,0-7.4-4.8-13.7-6.1,0,0-13.7-4.2-13.7-20.1"/>
    <path class="st0" d="M100,83.4s23.1,4,41.7-14.1"/>
    <path class="st0" d="M110.9,87.6c4.1,5.7,6.4,12.8,5.8,20.4-1.2,17.3-16.1,30.2-33.3,29.1s-30.2-16.1-29.1-33.3c1.1-17.2,2.6-11.8,6.1-16.5"/>
    <path class="st0" d="M97.5,106.9c-.4,6.4-6,11.6-12.3,10.8-10.3-1.2-10.7-10.3-10.7-10.3,0,0,4.7.2,5.9-3.5s-2.5-6-2.5-6c0,0,3.7-3.5,8.9-3.4,6.4.2,11.3,6,10.8,12.3h0Z"/>
    <line class="st0" x1="86.5" y1="82.6" x2="86.5" y2="89.7"/>
    <line class="st0" x1="82.3" y1="82.5" x2="83.4" y2="89.2"/>
    <line class="st0" x1="77.9" y1="82.7" x2="80.5" y2="89.3"/>
    <line class="st0" x1="73.6" y1="83.4" x2="78" y2="91.1"/>
    <line class="st0" x1="68.7" y1="84.4" x2="75.3" y2="92.4"/>
    <line class="st0" x1="63.8" y1="85.6" x2="73.6" y2="94.6"/>
    <line class="st0" x1="59.5" y1="89.5" x2="71.8" y2="97"/>
    <line class="st0" x1="56.6" y1="94.3" x2="70.7" y2="99.8"/>
    <line class="st0" x1="55" y1="99.5" x2="70.2" y2="102.5"/>
    <line class="st0" x1="54.4" y1="104.9" x2="69.6" y2="105.4"/>
    <line class="st0" x1="54.8" y1="110.4" x2="70" y2="108.3"/>
    <line class="st0" x1="70.7" y1="111.1" x2="56" y2="116.4"/>
    <line class="st0" x1="71.6" y1="113.6" x2="58.5" y2="120.9"/>
    <line class="st0" x1="73.1" y1="115.9" x2="60.9" y2="125.2"/>
    <line class="st0" x1="75" y1="118.3" x2="64.8" y2="129.2"/>
    <line class="st0" x1="77.3" y1="119.9" x2="69.5" y2="132.7"/>
    <line class="st0" x1="79.9" y1="121.1" x2="74.7" y2="135"/>
    <line class="st0" x1="82.6" y1="121.7" x2="80" y2="136.6"/>
    <line class="st0" x1="85.5" y1="122.3" x2="85.4" y2="137.2"/>
    <line class="st0" x1="88.3" y1="122" x2="90.8" y2="136.4"/>
    <line class="st0" x1="91.2" y1="121.3" x2="95.7" y2="135.4"/>
    <line class="st0" x1="94" y1="120.4" x2="101.1" y2="133.6"/>
    <line class="st0" x1="96.2" y1="118.7" x2="105.3" y2="130"/>
    <line class="st0" x1="98.4" y1="116.7" x2="109" y2="126.3"/>
    <line class="st0" x1="99.6" y1="114.2" x2="112.4" y2="121.7"/>
    <line class="st0" x1="101.5" y1="111.8" x2="114.7" y2="117"/>
    <line class="st0" x1="102" y1="109" x2="116.3" y2="111.9"/>
    <line class="st0" x1="102.3" y1="106.2" x2="116.8" y2="106.6"/>
    <line class="st0" x1="101.9" y1="103.3" x2="116.5" y2="101.6"/>
    <line class="st0" x1="101.5" y1="100.5" x2="115.2" y2="96.1"/>
    <line class="st0" x1="100.4" y1="97.9" x2="112.9" y2="91"/>
    <line class="st0" x1="98.8" y1="95.4" x2="109.4" y2="86.8"/>
    <line class="st0" x1="96.8" y1="93.4" x2="104.3" y2="85"/>
    <line class="st0" x1="94.4" y1="92" x2="99.6" y2="83.7"/>
    <line class="st0" x1="91.9" y1="90.7" x2="95.4" y2="82.9"/>
    <line class="st0" x1="89.4" y1="89.7" x2="90.7" y2="82.3"/>
  </g>
</svg>