<?xml version="1.0" encoding="UTF-8"?>
<svg id="Layer_1" xmlns="http://www.w3.org/2000/svg" version="1.1" viewBox="0 0 200 200">
  <!-- Generator: Adobe Illustrator 29.2.0, SVG Export Plug-In . SVG Version: 2.1.0 Build 108)  -->
  <defs>
    <style>
      .st0 {
        fill: #75b523;
      }

      .st1 {
        stroke-width: 2.1px;
      }

      .st1, .st2, .st3 {
        fill: none;
        stroke: #75b523;
        stroke-linecap: round;
        stroke-linejoin: round;
      }

      .st2 {
        stroke-width: 2px;
      }

      .st3 {
        stroke-width: 1.1px;
      }
    </style>
  </defs>
  <path class="st1" d="M69.5,179.5s19.3-24.9,19.3-32.7c0,0,3.6-12.6,10-15.5,0,0,18.3-11.5,17.3-33.9,0,0,10.5.2,8.4,14.4l-3.5,12.9s-7.4,17.3,8.8,19.7c0,0,20.3,2.3,28.8-3.5,0,0,30.2-18.3,37.8-7.2l-36.6,21.2s-9.6,9.7-25.3,8c0,0-35.1,1.6-41.9,33.7"/>
  <path class="st1" d="M135.8,143.6s9.4-50.9-4.1-69c0,0-23.2-26.3-6-71.9,0,0,10.3,14,7.2,43.3,0,0-2.7,13.8-1,27.5"/>
  <path class="st1" d="M140.1,144.5l7.2-15.2,4.1-8.6s1.8-4.3,7.2-2.5l-1.2,11.3-9,14.2"/>
  <path class="st1" d="M158.1,128.7l7.4-11.5s3.7-3.5,7.8-1c0,0,.2,6.6-3.5,12.1-3.7,5.5-11.1,10.9-13.3,13.3"/>
  <path class="st1" d="M169.4,128.9l11-10.7s5.1-4.9,9.2-.2l-7.6,12.3"/>
  <path class="st1" d="M126.2,5.6s5.5,28,3.5,61.2"/>
  <path class="st1" d="M130.9,73.2c-5.8-18.3-5.1-69.6-5.1-69.6"/>
  <path class="st1" d="M124.1,7.3s-6.4,39.4,4.9,61.4"/>
  <path class="st1" d="M139.3,111.8s-3.9-39,22-51.5c0,0,8.2-3.6,17.3-3.9,0,0-6.5,8.9-11.7,21.9-3.5,8.9-11.8,18-25,28.8,0,0-1.7,0-2.6,4.6Z"/>
  <path class="st1" d="M141.6,106.8s10.8-22.4,33-43.8"/>
  <path class="st1" d="M139.5,108.9s5.7-24.9,36.5-49.9"/>
  <path class="st1" d="M177,56.8s-30.5,16.6-37.5,51.1"/>
  <path class="st1" d="M139.3,101.6s3.9-36.7,36.7-44.4"/>
  <path class="st1" d="M72.1,53.1s28.9,2.8,45.4,16c2.3,1.8,3.8,3,8.5,11.2,2.3,4,11.5,12,11.5,12,0,0-18.3,2.4-32.7-9.7-6.3-5.3-8-14.6-21-22.9-2.4-1.5-11.7-6.5-11.7-6.5Z"/>
  <path class="st1" d="M76.3,54.7s15.9,2.2,36.8,18.6c0,0,13.6,12,22.2,18.3"/>
  <path class="st1" d="M133.4,91.5s-12.5-3.9-27-18.7c-8.6-8.8-32-19-32-19"/>
  <path class="st1" d="M88.2,61.5s14.2,11.4,19,17.7c4.8,6.3,21.9,12.7,27,12.7"/>
  <circle class="st0" cx="103.5" cy="42.2" r="1.8"/>
  <circle class="st0" cx="75.1" cy="135.5" r="2.8"/>
  <path class="st3" d="M95.2,98.7s0,5.4-4.5,5.8c0,0,3.2,1.1,4.5,5.3,0,0-.1-5,4.7-5.2,0,0-4.5-.1-4.8-6Z"/>
  <path class="st0" d="M155.6,35.5s-.2,5.2-4.5,5.6c0,0,4.2,1.7,4.9,5.2,0,0,1.3-4.8,4.8-5.2,0,0-4.5-.1-5.2-5.6Z"/>
  <path class="st0" d="M73.2,67.1s-.1,3.4-3,3.7c0,0,2.8,1.2,3.3,3.5,0,0,.8-3.2,3.2-3.5,0,0-3,0-3.5-3.7Z"/>
  <path class="st2" d="M139.2,104.7c0,14.2-1.5,27.6-4.3,39.7"/>
  <path class="st2" d="M129,163.9c-8.1,20.4-20.4,33.4-34.1,33.4-24.5,0-44.4-41.5-44.4-92.6S70.4,12.1,94.9,12.1c7.9,0,15.3,4.3,21.7,11.8"/>
</svg>