<?xml version="1.0" encoding="UTF-8"?>
<svg id="Layer_1" xmlns="http://www.w3.org/2000/svg" version="1.1" viewBox="0 0 200 200">
  <!-- Generator: Adobe Illustrator 29.2.0, SVG Export Plug-In . SVG Version: 2.1.0 Build 108)  -->
  <defs>
    <style>
      .st0 {
        fill: #75b523;
      }
    </style>
  </defs>
  <g id="Calque_2">
    <g id="Business_topics">
      <path class="st0" d="M190.4,28.6c-1.6-5.3-3.8-10.1-6.5-14.7-.6-1-1.9-1.4-3-1.2-5.3,1.2-10.3,3.2-15.1,5.7-10.7,5.5-18.3,12.7-21.7,20.7-3,7.8-3.4,16.3-1.2,24.5-4.2-4.8-9.3-9.1-14.5-12.7-3.6-7-7.8-13.5-12.7-19.4l-4.2,3.4c3.8,4.6,7.2,9.7,10.1,14.7l-24.9-4.8-23.6-32.4c2.4,0,4.6.2,7,.6,8,1.6,15.3,5.5,21.3,10.9l3.4-4.2c-6.8-6.1-14.9-10.1-23.8-12.3-12.7-2.6-27.2.8-42.4,9.5-7,4-13.3,8.6-19.1,13.9-.8,1-1,2.4-.4,3.4,3.4,7,7.6,13.3,12.3,19.4,3.8,4.8,8.2,9.3,13.1,13.3-1.2,1-2.6,2.1-3.8,3.4-25.1,24.5-25.5,64.8-.8,89.6,6.1,6.3,13.5,11.2,21.5,14.3l2.1-5c-4.2-1.6-8.2-4-12-6.5,1.2-7.6-.4-15.1-4.6-21.7-.8-1.2,1.6-6.5,3.4-9.9,1.6-3.2,3-6.5,4-9.9.8-3.2-.2-6.3-2.8-8.2-2.1-1.2-4.2-2.4-6.5-3-1.2-.2-2.4-.8-3.4-1.4-1.9-2.4-3.6-4.8-4.8-7.4-1.2-3-3-5.7-5-8.4,3.8-8.9,9.7-16.7,17.3-22.8,6.8,4.8,14.7,7.8,23.2,8.6-9.7,7.6-12.9,17.1-8.4,26.4,5.3,10.7,16.1,9.1,25.5,7.6,1.6-.2,3.4-.6,4.8-.8h.8c2.1,1.9,2.1,10.7,1.9,17.3,0,8.9,0,17.3,3.2,21.7,1.6,2.1,4.2,3.6,7,3.4,1.9,0,3.8-.4,5.5-1.2,8.2-3.4,16.9-14.1,15.6-22.5-1-7.4-1.9-12.3,0-16.3,1.9-4,5.7-7,13.5-11.4,1,4.4,1.4,8.9,1.4,13.3,0,15.3-6.3,30-17.3,40.7-12.5,12-29.5,18.1-46.8,16.3l-.6,5.5c18.9,2.1,37.8-4.4,51.3-17.7,25.1-24.5,25.5-64.6,1-89.6-3.2-3.4-6.8-6.3-10.7-8.9,3.6-2.6,6.3-4.8,7.8-6.1,6.5,4.6,12.3,10.3,16.9,16.9,23.2,32.6,15.6,78.2-17.3,101.4-32.8,23.2-78.2,15.6-101.4-17.3-11.2-15.6-15.6-35-12.5-53.7l-5.5-.8c-7.2,42.6,21.5,82.9,64.1,90,20.7,3.4,41.7-1.4,58.6-13.7,30-21.5,40.9-60.9,26.1-94.8,4.4-1.2,8.6-3,12.7-5,10.7-5.5,18.3-12.7,21.7-20.7,3.4-8,3.4-18.5-.2-30.2h0v.8l-.3-.2ZM31.4,104.1c1.4,3.4,3.4,6.5,5.9,9.3,1.6,1,3.6,1.9,5.5,2.4,5.3,1.6,5.9,2.6,5.5,4.6-.8,3-2.1,5.9-3.4,8.6-2.8,5.9-5.5,11.2-3,15.1,2.8,4.4,4.2,9.5,4,14.5-16.5-14.9-23-37.8-16.9-59,.8,1.4,1.6,3,2.4,4.4h.1ZM164,50.1l-7.8-18.9c3.6-3.2,7.6-5.9,12-8,2.8-1.4,5.7-2.8,8.6-3.6l-12.9,30.6h0ZM181.8,21.6c1.2,2.8,2.6,5.7,3.4,8.6,1.4,4.2,2.4,8.6,2.6,13.3l-18.3,7.6,12.3-29.5h.2-.1ZM149.1,41.3c.8-1.9,1.9-3.6,3-5.3l8.9,21.5-8,18.9c-1.2-3-2.6-5.9-3.4-9.1-2.4-7-4.2-17.3-.4-26.1h0ZM166.5,74.5c-2.8,1.2-5.5,2.6-8.4,3.4l8.2-19.6,21.1-8.6c-.2,2.4-.8,4.6-1.9,7-3.8,8.9-12.5,14.5-18.9,17.9h-.1ZM67.7,73.1c-1,0-1.9-.4-3-.6l30.4-22.3,24.9,4.8c-9.1,7.2-31.2,22.1-52.5,18.1h.2ZM40.1,55.8c-5.5-5.9-10.1-12.3-14.1-19.1l31.8,6.1-17.9,13.1h.2ZM45.6,19.3l13.3,18.1-32-6.3c5.9-4.6,12-8.6,18.7-11.8h0ZM66.9,38.9l-16.1-21.9c4.8-2.1,10.1-3.4,15.3-4.2l22.3,30.4-21.5-4.2h-.2.1ZM65.2,44.1l22.8,4.4-29.1,21.3c-5.5-2.8-10.5-6.1-14.7-10.3l21.3-15.3h-.2ZM139.5,97.7c-9.9,5.3-14.7,9.5-17.1,14.5s-1.4,11.2-.2,19.1c.6,4.6-4.8,13.5-12.5,16.9-2.8,1-4.6,1-5.7-.4-2.1-2.8-2.1-11.4-2.1-18.3s0-17.7-3.8-21.3c-1.4-1.2-3.4-1.9-5.3-1.4-1.6,0-3.4.4-5,.8-10.1,1.6-16.5,2.4-19.6-4.4-5.3-10.9,5.5-18.9,10.3-21.9,1-.6,1.9-1.2,2.8-2.1,11.8-1.6,23-6.1,32.8-12.9,12,7.2,21.1,18.3,25.5,31.6h0l-.2-.2h-.1Z"/>
    </g>
  </g>
</svg>